<svg width="22" height="20" viewBox="0 0 22 20" fill="none" xmlns="http://www.w3.org/2000/svg">
<path d="M21.0008 10.5001C21.0008 10.0091 20.9958 9.01708 20.9848 8.52408C20.9198 5.45908 20.8868 3.92608 19.7558 2.79108C18.6248 1.65508 17.0508 1.61608 13.9018 1.53708C11.9681 1.48829 10.0335 1.48829 8.09979 1.53708C4.95079 1.61608 3.37679 1.65508 2.24579 2.79108C1.11479 3.92608 1.08179 5.45908 1.01579 8.52408C0.994737 9.50797 0.994737 10.4922 1.01579 11.4761C1.08179 14.5411 1.11479 16.0741 2.24579 17.2091C3.37679 18.3451 4.95079 18.3841 8.09979 18.4631C8.90246 18.4831 9.70279 18.4951 10.5008 18.4991" stroke="white" stroke-width="1.5" stroke-linecap="round" stroke-linejoin="round"/>
<path d="M6 6.5L8.942 8.24C10.657 9.254 11.342 9.254 13.058 8.24L16 6.5M21 15.5H13M21 15.5C21 14.8 19.006 13.492 18.5 13M21 15.5C21 16.2 19.006 17.509 18.5 18" stroke="white" stroke-width="1.5" stroke-linecap="round" stroke-linejoin="round"/>
</svg>
