<svg width="20" height="20" viewBox="0 0 20 20" fill="none" xmlns="http://www.w3.org/2000/svg">
<path d="M1.75105 4.92478C1.74573 4.82642 1.72109 4.73007 1.67853 4.64124C1.63598 4.5524 1.57634 4.47281 1.50303 4.40702C1.42972 4.34123 1.34417 4.29053 1.25126 4.2578C1.15835 4.22507 1.05991 4.21096 0.961547 4.21628C0.863187 4.2216 0.766838 4.24624 0.678 4.2888C0.589163 4.33135 0.509577 4.39099 0.443786 4.4643C0.377996 4.53761 0.32729 4.62316 0.294563 4.71607C0.261836 4.80898 0.247729 4.90742 0.253047 5.00578L1.75105 4.92478ZM2.71705 1.09178C2.58571 1.23692 2.51632 1.42766 2.5237 1.62326C2.53107 1.81886 2.61462 2.00383 2.75651 2.13867C2.8984 2.27351 3.08738 2.34753 3.28311 2.34494C3.47883 2.34235 3.66578 2.26334 3.80405 2.12478L2.71705 1.09178ZM8.66305 17.8118C8.74644 17.8655 8.83968 17.9022 8.93734 17.9197C9.03501 17.9371 9.13517 17.935 9.23202 17.9135C9.32888 17.892 9.4205 17.8515 9.50158 17.7943C9.58266 17.7371 9.65159 17.6644 9.70437 17.5804C9.75716 17.4964 9.79275 17.4027 9.80909 17.3049C9.82543 17.207 9.82219 17.1069 9.79956 17.0103C9.77693 16.9137 9.73535 16.8225 9.67725 16.7421C9.61914 16.6617 9.54566 16.5936 9.46105 16.5418L8.66305 17.8118ZM13.112 18.0578C12.9172 18.0171 12.7143 18.0554 12.5477 18.1644C12.3812 18.2733 12.2648 18.444 12.224 18.6388C12.1833 18.8336 12.2217 19.0366 12.3306 19.2031C12.4396 19.3696 12.6102 19.4861 12.805 19.5268L13.112 18.0578ZM13.644 13.5438L14.099 13.0638L13.011 12.0308L12.556 12.5108L13.644 13.5438ZM15.598 12.8618L17.508 13.9618L18.257 12.6618L16.346 11.5618L15.598 12.8618ZM17.877 16.2418L16.456 17.7368L17.544 18.7708L18.964 17.2748L17.877 16.2418ZM6.35805 13.9588C2.48205 9.87778 1.83205 6.43478 1.75105 4.92478L0.253047 5.00578C0.353047 6.85578 1.13705 10.6398 5.27105 14.9918L6.35805 13.9588ZM7.73405 7.32178L8.02005 7.01978L6.93305 5.98678L6.64605 6.28878L7.73405 7.32178ZM8.24605 3.25978L6.98505 1.47678L5.76005 2.34278L7.02005 4.12578L8.24605 3.25978ZM7.18905 6.80478C7.00907 6.63134 6.82739 6.45966 6.64405 6.28978L6.64205 6.29178L6.63905 6.29478C6.6213 6.31315 6.6046 6.33252 6.58905 6.35278C6.49102 6.48253 6.41346 6.62654 6.35905 6.77978C6.26105 7.05478 6.20905 7.41878 6.27505 7.87278C6.40505 8.76478 6.99005 9.96378 8.51705 11.5728L9.60505 10.5388C8.17705 9.03578 7.82505 8.11078 7.75905 7.65478C7.72705 7.43478 7.75905 7.31978 7.77205 7.28278L7.78005 7.26378C7.77187 7.27695 7.76249 7.28933 7.75205 7.30078C7.74619 7.30757 7.74018 7.31524 7.73405 7.32178L7.18905 6.80478ZM8.51705 11.5718C10.04 13.1758 11.19 13.8058 12.067 13.9488C12.518 14.0218 12.883 13.9628 13.159 13.8538C13.3123 13.7938 13.4548 13.7094 13.581 13.6038L13.616 13.5698L13.63 13.5558C13.6324 13.5538 13.6347 13.5518 13.637 13.5498L13.64 13.5468L13.641 13.5448C13.641 13.5448 13.643 13.5438 13.099 13.0268C12.555 12.5108 12.556 12.5098 12.556 12.5088L12.558 12.5078L12.56 12.5048L12.566 12.4998C12.5812 12.4852 12.5968 12.4712 12.613 12.4578C12.622 12.4518 12.621 12.4538 12.608 12.4588C12.588 12.4668 12.498 12.4988 12.308 12.4678C11.906 12.4018 11.038 12.0478 9.60505 10.5388L8.51705 11.5718ZM6.98505 1.47678C5.97105 0.0427834 3.94305 -0.200217 2.71705 1.09178L3.80405 2.12478C4.32705 1.57478 5.24805 1.61778 5.76005 2.34278L6.98505 1.47678ZM16.456 17.7368C16.177 18.0308 15.886 18.1888 15.602 18.2168L15.749 19.7088C16.496 19.6358 17.101 19.2378 17.544 18.7708L16.456 17.7368ZM8.02005 7.01978C8.98805 6.00078 9.05605 4.40678 8.24605 3.25978L7.02105 4.12578C7.44305 4.72278 7.37805 5.51878 6.93305 5.98678L8.02005 7.01978ZM17.508 13.9618C18.329 14.4348 18.49 15.5968 17.877 16.2418L18.964 17.2748C20.269 15.9008 19.889 13.6018 18.257 12.6618L17.508 13.9618ZM14.099 13.0638C14.484 12.6578 15.085 12.5668 15.598 12.8618L16.346 11.5618C15.247 10.9298 13.886 11.1108 13.011 12.0308L14.099 13.0638ZM9.46105 16.5418C8.47805 15.9238 7.43105 15.0878 6.35805 13.9588L5.27105 14.9918C6.42505 16.2068 7.56805 17.1238 8.66305 17.8118L9.46105 16.5418ZM15.601 18.2168C14.7681 18.2899 13.9289 18.2363 13.112 18.0578L12.805 19.5268C13.7715 19.7361 14.7642 19.7975 15.749 19.7088L15.601 18.2168Z" fill="white"/>
</svg>
