<svg width="18" height="18" viewBox="0 0 18 18" fill="none" xmlns="http://www.w3.org/2000/svg">
<path d="M0.25 16.8125C0.25 17.0611 0.348772 17.2996 0.524587 17.4754C0.700403 17.6512 0.93886 17.75 1.1875 17.75H16.8125C17.0611 17.75 17.2996 17.6512 17.4754 17.4754C17.6512 17.2996 17.75 17.0611 17.75 16.8125V5.875H0.25V16.8125ZM12.75 7.28125C12.75 7.23981 12.7665 7.20007 12.7958 7.17076C12.8251 7.14146 12.8648 7.125 12.9062 7.125H14.4688C14.5102 7.125 14.5499 7.14146 14.5792 7.17076C14.6085 7.20007 14.625 7.23981 14.625 7.28125V8.84375C14.625 8.88519 14.6085 8.92493 14.5792 8.95424C14.5499 8.98354 14.5102 9 14.4688 9H12.9062C12.8648 9 12.8251 8.98354 12.7958 8.95424C12.7665 8.92493 12.75 8.88519 12.75 8.84375V7.28125ZM12.75 10.4062C12.75 10.3648 12.7665 10.3251 12.7958 10.2958C12.8251 10.2665 12.8648 10.25 12.9062 10.25H14.4688C14.5102 10.25 14.5499 10.2665 14.5792 10.2958C14.6085 10.3251 14.625 10.3648 14.625 10.4062V11.9688C14.625 12.0102 14.6085 12.0499 14.5792 12.0792C14.5499 12.1085 14.5102 12.125 14.4688 12.125H12.9062C12.8648 12.125 12.8251 12.1085 12.7958 12.0792C12.7665 12.0499 12.75 12.0102 12.75 11.9688V10.4062ZM9.625 7.28125C9.625 7.23981 9.64146 7.20007 9.67076 7.17076C9.70007 7.14146 9.73981 7.125 9.78125 7.125H11.3438C11.3852 7.125 11.4249 7.14146 11.4542 7.17076C11.4835 7.20007 11.5 7.23981 11.5 7.28125V8.84375C11.5 8.88519 11.4835 8.92493 11.4542 8.95424C11.4249 8.98354 11.3852 9 11.3438 9H9.78125C9.73981 9 9.70007 8.98354 9.67076 8.95424C9.64146 8.92493 9.625 8.88519 9.625 8.84375V7.28125ZM9.625 10.4062C9.625 10.3648 9.64146 10.3251 9.67076 10.2958C9.70007 10.2665 9.73981 10.25 9.78125 10.25H11.3438C11.3852 10.25 11.4249 10.2665 11.4542 10.2958C11.4835 10.3251 11.5 10.3648 11.5 10.4062V11.9688C11.5 12.0102 11.4835 12.0499 11.4542 12.0792C11.4249 12.1085 11.3852 12.125 11.3438 12.125H9.78125C9.73981 12.125 9.70007 12.1085 9.67076 12.0792C9.64146 12.0499 9.625 12.0102 9.625 11.9688V10.4062ZM9.625 13.5312C9.625 13.4898 9.64146 13.4501 9.67076 13.4208C9.70007 13.3915 9.73981 13.375 9.78125 13.375H11.3438C11.3852 13.375 11.4249 13.3915 11.4542 13.4208C11.4835 13.4501 11.5 13.4898 11.5 13.5312V15.0938C11.5 15.1352 11.4835 15.1749 11.4542 15.2042C11.4249 15.2335 11.3852 15.25 11.3438 15.25H9.78125C9.73981 15.25 9.70007 15.2335 9.67076 15.2042C9.64146 15.1749 9.625 15.1352 9.625 15.0938V13.5312ZM6.5 10.4062C6.5 10.3648 6.51646 10.3251 6.54576 10.2958C6.57507 10.2665 6.61481 10.25 6.65625 10.25H8.21875C8.26019 10.25 8.29993 10.2665 8.32924 10.2958C8.35854 10.3251 8.375 10.3648 8.375 10.4062V11.9688C8.375 12.0102 8.35854 12.0499 8.32924 12.0792C8.29993 12.1085 8.26019 12.125 8.21875 12.125H6.65625C6.61481 12.125 6.57507 12.1085 6.54576 12.0792C6.51646 12.0499 6.5 12.0102 6.5 11.9688V10.4062ZM6.5 13.5312C6.5 13.4898 6.51646 13.4501 6.54576 13.4208C6.57507 13.3915 6.61481 13.375 6.65625 13.375H8.21875C8.26019 13.375 8.29993 13.3915 8.32924 13.4208C8.35854 13.4501 8.375 13.4898 8.375 13.5312V15.0938C8.375 15.1352 8.35854 15.1749 8.32924 15.2042C8.29993 15.2335 8.26019 15.25 8.21875 15.25H6.65625C6.61481 15.25 6.57507 15.2335 6.54576 15.2042C6.51646 15.1749 6.5 15.1352 6.5 15.0938V13.5312ZM3.375 10.4062C3.375 10.3648 3.39146 10.3251 3.42076 10.2958C3.45007 10.2665 3.48981 10.25 3.53125 10.25H5.09375C5.13519 10.25 5.17493 10.2665 5.20424 10.2958C5.23354 10.3251 5.25 10.3648 5.25 10.4062V11.9688C5.25 12.0102 5.23354 12.0499 5.20424 12.0792C5.17493 12.1085 5.13519 12.125 5.09375 12.125H3.53125C3.48981 12.125 3.45007 12.1085 3.42076 12.0792C3.39146 12.0499 3.375 12.0102 3.375 11.9688V10.4062ZM3.375 13.5312C3.375 13.4898 3.39146 13.4501 3.42076 13.4208C3.45007 13.3915 3.48981 13.375 3.53125 13.375H5.09375C5.13519 13.375 5.17493 13.3915 5.20424 13.4208C5.23354 13.4501 5.25 13.4898 5.25 13.5312V15.0938C5.25 15.1352 5.23354 15.1749 5.20424 15.2042C5.17493 15.2335 5.13519 15.25 5.09375 15.25H3.53125C3.48981 15.25 3.45007 15.2335 3.42076 15.2042C3.39146 15.1749 3.375 15.1352 3.375 15.0938V13.5312ZM16.8125 1.5H14.6281V0.25H12.7531V1.5H5.24687V0.25H3.37187V1.5H1.1875C1.06485 1.49897 0.943217 1.52222 0.829596 1.5684C0.715974 1.61459 0.612614 1.6828 0.525471 1.76911C0.438328 1.85542 0.369124 1.95811 0.321846 2.07129C0.274568 2.18446 0.25015 2.30587 0.25 2.42852V4.625H17.75V2.42852C17.7498 2.30587 17.7254 2.18446 17.6782 2.07129C17.6309 1.95811 17.5617 1.85542 17.4745 1.76911C17.3874 1.6828 17.284 1.61459 17.1704 1.5684C17.0568 1.52222 16.9351 1.49897 16.8125 1.5Z" fill="#140A6A"/>
</svg>
