<svg width="22" height="20" viewBox="0 0 22 20" fill="none" xmlns="http://www.w3.org/2000/svg">
<path d="M21.0001 10.5001C21.0001 10.0091 20.9951 9.01708 20.9841 8.52408C20.9191 5.45908 20.8861 3.92608 19.7551 2.79108C18.6241 1.65508 17.0501 1.61608 13.9011 1.53708C11.9674 1.48829 10.0327 1.48829 8.09906 1.53708C4.95006 1.61608 3.37606 1.65508 2.24506 2.79108C1.11406 3.92608 1.08106 5.45908 1.01506 8.52408C0.994005 9.50797 0.994005 10.4922 1.01506 11.4761C1.08106 14.5411 1.11406 16.0741 2.24506 17.2091C3.37606 18.3451 4.95006 18.3841 8.09906 18.4631C8.90172 18.4831 9.70206 18.4951 10.5001 18.4991" stroke="white" stroke-width="1.5" stroke-linecap="round" stroke-linejoin="round"/>
<path d="M6 6.5L8.942 8.24C10.657 9.254 11.342 9.254 13.058 8.24L16 6.5M21 15.5H13M21 15.5C21 14.8 19.006 13.492 18.5 13M21 15.5C21 16.2 19.006 17.509 18.5 18" stroke="white" stroke-width="1.5" stroke-linecap="round" stroke-linejoin="round"/>
</svg>
