<svg width="18" height="14" viewBox="0 0 18 14" fill="none" xmlns="http://www.w3.org/2000/svg">
<path d="M17.3333 3.27905V11.1666C17.3334 11.8042 17.0897 12.4178 16.6523 12.8818C16.2148 13.3457 15.6166 13.625 14.98 13.6624L14.8333 13.6666H3.16667C2.529 13.6666 1.91541 13.4229 1.45145 12.9855C0.987499 12.548 0.708249 11.9498 0.670839 11.3132L0.666672 11.1666V3.27905L8.5375 8.52655L8.63417 8.58155C8.74809 8.63721 8.87321 8.66615 9 8.66615C9.1268 8.66615 9.25192 8.63721 9.36584 8.58155L9.46251 8.52655L17.3333 3.27905Z" fill="#140A6A"/>
<path d="M14.8333 0.333252C15.7333 0.333252 16.5225 0.808252 16.9625 1.52242L9.00001 6.83075L1.03751 1.52242C1.2465 1.1831 1.53358 0.898669 1.87482 0.692827C2.21605 0.486984 2.60155 0.3657 2.99917 0.339085L3.16667 0.333252H14.8333Z" fill="#140A6A"/>
</svg>
