<svg width="48" height="30" viewBox="0 0 48 30" fill="none" xmlns="http://www.w3.org/2000/svg">
<path fill-rule="evenodd" clip-rule="evenodd" d="M28.4701 18.1623C28.27 18.0272 28.1318 17.8181 28.0859 17.581C28.04 17.344 28.0901 17.0984 28.2253 16.8983C28.3604 16.6983 28.5695 16.5601 28.8066 16.5142C29.0436 16.4683 29.2892 16.5184 29.4893 16.6535L37.2589 21.9047C37.6941 22.0283 38.1522 22.0485 38.5966 21.9638C39.0411 21.8791 39.4596 21.6917 39.8189 21.4167C39.9913 21.1911 40.1174 20.9335 40.1899 20.6589C40.2624 20.3843 40.2798 20.0981 40.2413 19.8167C40.1181 19.2301 39.6055 18.6487 38.7202 18.0871C38.1138 17.7101 37.2397 17.0871 36.2258 16.3655C34.6311 15.229 32.6461 13.8146 30.8967 12.789C28.3447 11.2919 27.6434 11.4258 27.5575 11.4525C25.173 13.4626 22.0477 15.6599 19.7767 15.6605C19.4321 15.665 19.0895 15.6055 18.7666 15.485C18.3973 15.3443 18.0748 15.1029 17.8358 14.7881C17.5968 14.4733 17.4509 14.0978 17.4146 13.7042C17.1266 11.5415 19.2519 8.27434 22.6519 5.56608C22.1538 5.20554 21.3389 5.32341 19.6402 5.74528C18.1394 6.11861 16.317 6.57034 14.5463 6.02528L8.35221 15.7346L8.39541 15.7815C8.75939 15.3971 9.21808 15.1151 9.72545 14.964C10.2328 14.8128 10.771 14.7977 11.2861 14.9202C12.0591 15.1019 12.7423 15.5525 13.2135 16.1917C13.7557 15.8444 14.37 15.6255 15.0095 15.5515C15.6491 15.4776 16.2971 15.5506 16.9042 15.765C17.385 15.9483 17.8096 16.2538 18.1362 16.6514C18.4627 17.049 18.6798 17.525 18.7661 18.0322C19.2975 17.9679 19.8367 18.0295 20.3399 18.212C20.8432 18.3945 21.2965 18.6928 21.6631 19.0829C21.9997 19.5183 22.2275 20.0277 22.3278 20.5689C22.4281 21.11 22.3978 21.6672 22.2397 22.1943C23.4663 22.6503 24.2087 23.3677 24.4583 24.3277C24.7895 25.6023 23.8573 27.1901 23.3383 27.9389C24.9047 28.9655 26.1853 29.3789 26.9879 29.101C27.229 28.997 27.4455 28.8436 27.6236 28.6507C27.8016 28.4578 27.9372 28.2296 28.0215 27.981L24.9687 25.8109C24.8712 25.7414 24.7882 25.6535 24.7247 25.552C24.6611 25.4505 24.6182 25.3375 24.5983 25.2194C24.5581 24.9809 24.6144 24.7362 24.7546 24.5391C24.8949 24.3421 25.1076 24.2088 25.3461 24.1687C25.5846 24.1285 25.8293 24.1848 26.0263 24.325L29.5597 26.837C30.3863 27.1954 31.0311 27.2637 31.477 27.0439C31.9405 26.7356 32.2717 26.2648 32.4055 25.7245L26.829 22.0861L27.8231 20.5629L33.8061 24.4669C34.0688 24.5463 34.3449 24.5721 34.6179 24.5427C34.8908 24.5133 35.1551 24.4293 35.3949 24.2957C35.7037 24.0119 35.8952 23.6228 35.9319 23.205L28.4701 18.1623ZM19.4226 13.789C19.3511 13.7607 19.253 13.7229 19.2178 13.4642C19.0578 12.2813 20.5677 9.34688 24.4093 6.51061C27.5527 4.70101 28.3314 5.08234 29.4071 5.60874C30.2308 6.06037 31.1438 6.3253 32.0813 6.38474C32.534 6.41088 32.9881 6.40268 33.4397 6.36021L39.9127 16.5053C39.8707 16.5451 39.825 16.5808 39.7762 16.6119C39.7458 16.5917 39.7165 16.5719 39.685 16.5522C39.1213 16.2013 38.2685 15.5922 37.2797 14.8893C32.0066 11.1319 28.1389 8.58581 26.3997 10.0546C22.2717 13.5367 20.0733 14.0413 19.4242 13.7911L19.4226 13.789ZM21.4311 23.8375C22.0178 24.029 22.5799 24.3282 22.6994 24.7858C22.7783 25.0898 22.5165 26.0167 21.6861 27.1255C20.917 28.1527 20.1661 28.6434 19.8994 28.6519C19.0173 28.6797 18.5255 28.4071 18.2461 27.7047L19.2391 26.4983L21.4311 23.8375ZM17.8349 25.3421C17.333 25.9527 16.9469 26.4221 16.7335 26.6797C15.8562 26.8503 15.1954 26.8034 14.8135 26.5389C14.5528 26.3352 14.3775 26.0415 14.3218 25.7154L18.453 19.8898C19.3063 19.7623 19.9618 19.8935 20.2781 20.2631C20.6247 20.6685 20.6306 21.4226 20.3015 22.3431C19.2637 23.6018 18.4406 24.6009 17.8322 25.3405L17.8349 25.3421ZM12.8839 24.6002C12.3484 24.6289 11.8207 24.4619 11.3991 24.1303C11.0728 23.7698 10.891 23.3015 10.8887 22.8151C12.7629 20.5623 13.477 18.9362 13.7469 18.0749C14.0692 17.7592 14.47 17.5356 14.9079 17.4272C15.3458 17.3188 15.8047 17.3295 16.237 17.4583C16.4895 17.5657 16.7016 17.7502 16.8427 17.9856C16.9839 18.2209 17.0468 18.4949 17.0226 18.7682L12.8839 24.6002ZM9.47487 21.6711C8.97705 21.8148 8.44324 21.7639 7.98154 21.5287C7.83693 21.3895 7.72292 21.2216 7.6468 21.0359C7.57067 20.8501 7.5341 20.6505 7.53941 20.4498C7.45354 19.4466 8.27114 18.5778 9.13621 17.6583C9.31541 17.4685 9.49887 17.2722 9.67381 17.0759C9.82024 16.9076 10.0103 16.7828 10.2231 16.7156C10.4358 16.6483 10.663 16.641 10.8797 16.6946C11.1252 16.7553 11.3525 16.8742 11.5423 17.0413C11.7322 17.2084 11.879 17.4188 11.9703 17.6546C11.3823 19.1306 10.5371 20.4905 9.47381 21.6711H9.47487ZM34.3127 4.34474C34.2598 4.25921 34.2423 4.15641 34.2641 4.0582C34.2858 3.95998 34.345 3.87412 34.429 3.81888L38.4898 1.22848C38.5499 1.19032 38.6197 1.17015 38.6909 1.17034C38.7552 1.16988 38.8186 1.1856 38.8753 1.21608C38.932 1.24656 38.9801 1.2908 39.0151 1.34474L47.2877 14.3111C47.3402 14.3967 47.3575 14.4994 47.3357 14.5975C47.3139 14.6955 47.2548 14.7812 47.1709 14.8365L43.1095 17.4274C43.0243 17.4807 42.9215 17.4984 42.8234 17.4766C42.7252 17.4549 42.6395 17.3955 42.5847 17.3111L34.3127 4.34474ZM40.5373 7.20394C40.6021 7.3042 40.6466 7.41626 40.6681 7.5337C40.6897 7.65115 40.6879 7.77169 40.6629 7.88845C40.6378 8.0052 40.5901 8.11588 40.5222 8.21417C40.4544 8.31245 40.3679 8.39642 40.2677 8.46128C40.1674 8.52613 40.0554 8.57061 39.9379 8.59216C39.8205 8.61371 39.6999 8.61192 39.5832 8.58688C39.4664 8.56185 39.3557 8.51406 39.2574 8.44625C39.1592 8.37844 39.0752 8.29194 39.0103 8.19168L36.5938 4.45354C36.4679 4.25097 36.4265 4.00704 36.4786 3.77427C36.5308 3.5415 36.6722 3.33852 36.8726 3.20902C37.0729 3.07953 37.3161 3.03388 37.5497 3.08191C37.7834 3.12994 37.9888 3.2678 38.1218 3.46581L40.5373 7.20394ZM5.41514 16.957C5.36018 17.0412 5.2744 17.1006 5.17619 17.1223C5.07799 17.1441 4.97518 17.1265 4.88981 17.0733L0.82794 14.4823C0.743882 14.4272 0.684755 14.3414 0.663223 14.2432C0.641691 14.145 0.659465 14.0423 0.71274 13.957L8.98367 0.990078C9.03842 0.905397 9.12455 0.845926 9.22314 0.824744C9.25099 0.818647 9.27943 0.815607 9.30794 0.815677C9.37939 0.815363 9.44941 0.835739 9.50954 0.874344L13.5703 3.46474C13.6544 3.51999 13.7136 3.60585 13.7353 3.70406C13.757 3.80227 13.7395 3.90508 13.6866 3.99061L5.41514 16.957ZM11.1357 4.51701L11.397 4.11168C11.4619 4.01142 11.5063 3.89937 11.5279 3.78192C11.5494 3.66447 11.5476 3.54393 11.5226 3.42718C11.4976 3.31042 11.4498 3.19974 11.382 3.10145C11.3142 3.00317 11.2277 2.9192 11.1274 2.85434C11.0271 2.78949 10.9151 2.74502 10.7976 2.72347C10.6802 2.70191 10.5597 2.70371 10.4429 2.72874C10.2071 2.7793 10.0011 2.92146 9.87007 3.12394L9.60714 3.52981C9.47958 3.73248 9.43705 3.97727 9.4888 4.21108C9.54054 4.4449 9.68237 4.64888 9.88354 4.77881C10.0847 4.90873 10.329 4.9541 10.5634 4.9051C10.7978 4.85609 11.0034 4.71664 11.1357 4.51701Z" fill="white"/>
</svg>
