<svg width="21" height="20" viewBox="0 0 21 20" fill="none" xmlns="http://www.w3.org/2000/svg">
<path d="M18.6713 8.368H18V8.33341H10.5V11.6667H15.2096C14.5225 13.6072 12.6763 15.0001 10.5 15.0001C7.73876 15.0001 5.50001 12.7613 5.50001 10.0001C5.50001 7.23883 7.73876 5.00008 10.5 5.00008C11.7746 5.00008 12.9342 5.48091 13.8171 6.26633L16.1742 3.90925C14.6858 2.52216 12.695 1.66675 10.5 1.66675C5.89792 1.66675 2.16667 5.398 2.16667 10.0001C2.16667 14.6022 5.89792 18.3334 10.5 18.3334C15.1021 18.3334 18.8333 14.6022 18.8333 10.0001C18.8333 9.44133 18.7758 8.89591 18.6713 8.368Z" fill="#FFC107"/>
<path d="M3.1275 6.12133L5.86542 8.12925C6.60625 6.29508 8.40042 5.00008 10.5 5.00008C11.7746 5.00008 12.9342 5.48091 13.8171 6.26633L16.1742 3.90925C14.6858 2.52216 12.695 1.66675 10.5 1.66675C7.29917 1.66675 4.52334 3.47383 3.1275 6.12133Z" fill="#FF3D00"/>
<path d="M10.5 18.3334C12.6525 18.3334 14.6083 17.5096 16.0871 16.17L13.5079 13.9875C12.6431 14.6452 11.5864 15.0009 10.5 15C8.3325 15 6.49209 13.618 5.79875 11.6892L3.08125 13.783C4.46042 16.4817 7.26125 18.3334 10.5 18.3334Z" fill="#4CAF50"/>
<path d="M18.6712 8.36784H18V8.33325H10.5V11.6666H15.2096C14.8809 12.5901 14.2889 13.3971 13.5067 13.9878L13.5079 13.987L16.0871 16.1695C15.9046 16.3353 18.8333 14.1666 18.8333 9.99992C18.8333 9.44117 18.7758 8.89575 18.6712 8.36784Z" fill="#1976D2"/>
</svg>
