<svg width="20" height="20" viewBox="0 0 20 20" fill="none" xmlns="http://www.w3.org/2000/svg">
<g clip-path="url(#clip0_51_323)">
<path d="M19.1476 7.08586L17.4237 5.36203C17.2847 5.22483 17.0992 5.14471 16.904 5.13748C16.7088 5.13025 16.5179 5.19643 16.3691 5.32297C16.1393 5.51857 15.8444 5.6207 15.5428 5.60913C15.2413 5.59755 14.9551 5.47311 14.7409 5.26047C14.5284 5.04636 14.404 4.76024 14.3925 4.45878C14.3809 4.15732 14.483 3.86251 14.6784 3.63274C14.805 3.48389 14.8712 3.29303 14.8639 3.0978C14.8567 2.90257 14.7766 2.71713 14.6394 2.57805L12.914 0.852266C12.7682 0.706735 12.5706 0.625 12.3646 0.625C12.1586 0.625 11.961 0.706735 11.8152 0.852266L9.06711 3.59992C8.89748 3.77022 8.76954 3.97744 8.69328 4.20539C8.67844 4.24922 8.6537 4.28904 8.62098 4.32176C8.58826 4.35448 8.54844 4.37922 8.50461 4.39406C8.27656 4.4703 8.06931 4.5984 7.89914 4.76828L0.852266 11.8152C0.706735 11.961 0.625 12.1586 0.625 12.3646C0.625 12.5706 0.706735 12.7682 0.852266 12.914L2.57805 14.6378C2.71713 14.775 2.90257 14.8551 3.0978 14.8624C3.29303 14.8696 3.48389 14.8034 3.63274 14.6769C3.86199 14.4797 4.15729 14.3764 4.45946 14.3878C4.76163 14.3991 5.04836 14.5242 5.26218 14.7381C5.476 14.9519 5.60111 15.2386 5.61246 15.5408C5.62381 15.8429 5.52054 16.1382 5.32336 16.3675C5.19682 16.5163 5.13064 16.7072 5.13787 16.9024C5.1451 17.0977 5.22522 17.2831 5.36242 17.4222L7.08625 19.146C7.23206 19.2915 7.42966 19.3733 7.63566 19.3733C7.84167 19.3733 8.03927 19.2915 8.18508 19.146L15.232 12.0991C15.4018 11.9291 15.5299 11.722 15.6062 11.4941C15.6209 11.4501 15.6457 11.4101 15.6785 11.3773C15.7113 11.3445 15.7513 11.3198 15.7952 11.305C16.0231 11.2288 16.2302 11.1008 16.4003 10.9312L19.148 8.18313C19.293 8.03733 19.3743 7.84004 19.3743 7.63441C19.3742 7.42878 19.2927 7.23155 19.1476 7.08586ZM10.2269 5.92766C10.1688 5.98571 10.0999 6.03176 10.0241 6.06318C9.94826 6.09459 9.86697 6.11077 9.78488 6.11077C9.7028 6.11077 9.62151 6.09459 9.54567 6.06318C9.46984 6.03176 9.40093 5.98571 9.34289 5.92766L8.89328 5.47805C8.77892 5.36025 8.71551 5.20218 8.71675 5.03801C8.71799 4.87383 8.78377 4.71674 8.89989 4.60067C9.016 4.48461 9.17313 4.41889 9.3373 4.41773C9.50148 4.41656 9.65952 4.48005 9.77727 4.59445L10.2269 5.04367C10.2849 5.10171 10.331 5.17062 10.3624 5.24645C10.3938 5.32229 10.41 5.40358 10.41 5.48566C10.41 5.56775 10.3938 5.64904 10.3624 5.72487C10.331 5.80071 10.2849 5.86962 10.2269 5.92766ZM11.9456 7.64641C11.8284 7.76353 11.6695 7.82932 11.5038 7.82932C11.3381 7.82932 11.1792 7.76353 11.062 7.64641L10.6323 7.21672C10.5151 7.0995 10.4493 6.94051 10.4493 6.77473C10.4493 6.60895 10.5151 6.44996 10.6323 6.33274C10.7496 6.21551 10.9086 6.14966 11.0743 6.14966C11.2401 6.14966 11.3991 6.21551 11.5163 6.33274L11.946 6.76242C12.0043 6.82046 12.0505 6.88942 12.0821 6.96535C12.1136 7.04128 12.1299 7.12269 12.1299 7.20492C12.1299 7.28715 12.1138 7.36857 12.0823 7.44453C12.0508 7.52049 12.0046 7.58949 11.9464 7.64758L11.9456 7.64641ZM13.6644 9.36516C13.6063 9.42321 13.5374 9.46926 13.4616 9.50068C13.3858 9.53209 13.3045 9.54827 13.2224 9.54827C13.1403 9.54827 13.059 9.53209 12.9832 9.50068C12.9073 9.46926 12.8384 9.42321 12.7804 9.36516L12.3507 8.93547C12.2363 8.81767 12.1729 8.6596 12.1742 8.49543C12.1754 8.33125 12.2412 8.17416 12.3573 8.05809C12.4734 7.94203 12.6306 7.87631 12.7947 7.87515C12.9589 7.87398 13.1169 7.93747 13.2347 8.05188L13.6644 8.48156C13.7228 8.5395 13.7692 8.6084 13.8009 8.68432C13.8326 8.76023 13.8491 8.84166 13.8492 8.92393C13.8494 9.00621 13.8334 9.08771 13.802 9.16376C13.7706 9.23981 13.7245 9.30891 13.6663 9.36711L13.6644 9.36516ZM15.3999 11.105C15.3419 11.1631 15.273 11.2091 15.1971 11.2405C15.1213 11.2719 15.04 11.2881 14.9579 11.2881C14.8758 11.2881 14.7946 11.2719 14.7187 11.2405C14.6429 11.2091 14.574 11.1631 14.5159 11.105L14.0691 10.6558C14.0098 10.5979 13.9626 10.5288 13.9303 10.4526C13.8979 10.3763 13.8811 10.2944 13.8807 10.2116C13.8803 10.1287 13.8964 10.0466 13.928 9.97008C13.9596 9.89351 14.0061 9.82399 14.0648 9.76556C14.1235 9.70713 14.1933 9.66096 14.27 9.62972C14.3467 9.59848 14.4289 9.58281 14.5117 9.58361C14.5945 9.5844 14.6764 9.60166 14.7525 9.63437C14.8286 9.66708 14.8974 9.71459 14.955 9.77414L15.4023 10.223C15.4603 10.281 15.5063 10.35 15.5377 10.4258C15.5691 10.5017 15.5852 10.583 15.5852 10.665C15.5851 10.7471 15.5689 10.8284 15.5375 10.9042C15.506 10.9801 15.46 11.0489 15.4019 11.107L15.3999 11.105Z" fill="white"/>
</g>
<defs>
<clipPath id="clip0_51_323">
<rect width="20" height="20" fill="white"/>
</clipPath>
</defs>
</svg>
