<svg width="18" height="18" viewBox="0 0 18 18" fill="none" xmlns="http://www.w3.org/2000/svg">
<path d="M9.00014 0.25C11.3209 0.25 13.5467 1.17194 15.1878 2.813C16.8288 4.45406 17.7508 6.67981 17.7508 9.00062C17.7508 11.3214 16.8288 13.5472 15.1878 15.1883C13.5467 16.8293 11.3209 17.7513 9.00014 17.7513C6.67933 17.7513 4.45357 16.8293 2.81251 15.1883C1.17145 13.5472 0.249512 11.3214 0.249512 9.00062C0.249512 6.67981 1.17145 4.45406 2.81251 2.813C4.45357 1.17194 6.67933 0.25 9.00014 0.25ZM10.3126 5.6225C10.9626 5.6225 11.4901 5.17125 11.4901 4.5025C11.4901 3.83375 10.9614 3.3825 10.3126 3.3825C9.66264 3.3825 9.13764 3.83375 9.13764 4.5025C9.13764 5.17125 9.66264 5.6225 10.3126 5.6225ZM10.5414 12.6562C10.5414 12.5225 10.5876 12.175 10.5614 11.9775L9.53389 13.16C9.32139 13.3837 9.05514 13.5387 8.93014 13.4975C8.87342 13.4766 8.82602 13.4362 8.79646 13.3835C8.7669 13.3308 8.75712 13.2693 8.76889 13.21L10.4814 7.8C10.6214 7.11375 10.2364 6.4875 9.42014 6.4075C8.55889 6.4075 7.29139 7.28125 6.52014 8.39C6.52014 8.5225 6.49514 8.8525 6.52139 9.05L7.54764 7.86625C7.76014 7.645 8.00764 7.48875 8.13264 7.53125C8.19422 7.55335 8.24469 7.59872 8.2732 7.65762C8.30171 7.71651 8.306 7.78423 8.28514 7.84625L6.58764 13.23C6.39139 13.86 6.76264 14.4775 7.66264 14.6175C8.98764 14.6175 9.77014 13.765 10.5426 12.6562H10.5414Z" fill="#140A6A"/>
</svg>
