<svg  viewBox="0 0 378 423" fill="none" preserveAspectRatio="none" xmlns="http://www.w3.org/2000/svg">
<path d="M10.4221 211.768L10.5923 211.5L10.4221 211.232L8.14938 207.652L7.88137 207.23L7.45927 207.498L2.54073 199.752L2.96284 199.484L2.69483 199.062L0.5 195.605V190.807V190.307H0V179.443H0.5V178.943V169.057V168.557H0V157.693H0.5V157.193V147.307V146.807H0V135.943H0.5V135.443V125.557V125.057H0V114.193H0.5V113.693V103.807V103.307H0V92.4432H0.5V91.9432V82.0568V81.5568H0V70.6932H0.5V70.1932V60.3068V59.8068H0V48.9432H0.5V48.4432V38.5568V38.0568H0V27.1932H0.5V26.6932V16.8068V16.3068H0V5.44318H0.5V4.94318V0.5H5.05338H5.55338V0H16.6817V0.5H17.1817H27.2887H27.7887V0H38.917V0.5H39.417H49.524H50.024V0H61.1524V0.5H61.6524H71.7593H72.2593V0H83.3877V0.5H83.8877H93.9947H94.4947V0H105.623V0.5H106.123H116.23H116.73V0H127.858V0.5H128.358H138.465H138.965V0H150.094V0.5H150.594H160.701H161.201V0H172.329V0.5H172.829H182.936H183.436V0H194.564V0.5H195.064H205.171H205.671V0H216.799V0.5H217.299H227.406H227.906V0H239.035V0.5H239.535H249.642H250.142V0H261.27V0.5H261.77H271.877H272.377V0H283.505V0.5H284.005H294.112H294.612V0H305.741V0.5H306.241H316.348H316.848V0H327.976V0.5H328.476H338.583H339.083V0H350.211V0.5H350.711H360.818H361.318V0H372.447V0.5H372.947H377.5V4.94319V5.44319H378V16.3068H377.5V16.8068V26.6932V27.1932H378V38.0568H377.5V38.5568V48.4432V48.9432H378V59.8068H377.5V60.3068V70.1932V70.6932H378V81.5568H377.5V82.0568V91.9432V92.4432H378V103.307H377.5V103.807V113.693V114.193H378V125.057H377.5V125.557V135.443V135.943H378V146.807H377.5V147.307V157.193V157.693H378V168.557H377.5V169.057V178.943V179.443H378V190.307H377.5V190.807V195.605L375.305 199.062L375.037 199.484L375.459 199.752L370.541 207.498L370.119 207.23L369.851 207.652L367.578 211.232L367.408 211.5L367.578 211.768L369.851 215.348L370.119 215.77L370.541 215.502L375.459 223.248L375.037 223.516L375.305 223.938L377.5 227.395V232.193V232.693H378V243.557H377.5V244.057V253.943V254.443H378V265.307H377.5V265.807V275.693V276.193H378V287.057H377.5V287.557V297.443V297.943H378V308.807H377.5V309.307V319.193V319.693H378V330.557H377.5V331.057V340.943V341.443H378V352.307H377.5V352.807V362.693V363.193H378V374.057H377.5V374.557V384.443V384.943H378V395.807H377.5V396.307V406.193V406.693H378V417.557H377.5V418.057V422.5H372.947H372.447V423H361.318V422.5H360.818H350.711H350.211V423H339.083V422.5H338.583H328.476H327.976V423H316.848V422.5H316.348H306.241H305.741V423H294.612V422.5H294.112H284.005H283.505V423H272.377V422.5H271.877H261.77H261.27V423H250.142V422.5H249.642H239.535H239.035V423H227.906V422.5H227.406H217.299H216.799V423H205.671V422.5H205.171H195.064H194.564V423H183.436V422.5H182.936H172.829H172.329V423H161.201V422.5H160.701H150.594H150.094V423H138.965V422.5H138.465H128.358H127.858V423H116.73V422.5H116.23H106.123H105.623V423H94.4946V422.5H93.9946H83.8877H83.3877V423H72.2594V422.5H71.7594H61.6524H61.1524V423H50.0241V422.5H49.5241H39.4171H38.9171V423H27.7888V422.5H27.2888H17.1818H16.6818V423H5.55348V422.5H5.05348H0.5V418.057V417.557H0V406.693H0.5V406.193V396.307V395.807H0V384.943H0.5V384.443V374.557V374.057H0V363.193H0.5V362.693V352.807V352.307H0V341.443H0.5V340.943V331.057V330.557H0V319.693H0.5V319.193V309.307V308.807H0V297.943H0.5V297.443V287.557V287.057H0V276.193H0.5V275.693V265.807V265.307H0V254.443H0.5V253.943V244.057V243.557H0V232.693H0.5V232.193V227.395L2.69483 223.938L2.96284 223.516L2.54073 223.248L7.45927 215.502L7.88137 215.77L8.14938 215.348L10.4221 211.768Z" stroke="#140A6A" stroke-linecap="square" stroke-dasharray="10 12"/>
</svg>
