<svg width="24" height="24" viewBox="0 0 24 24" fill="none" xmlns="http://www.w3.org/2000/svg">
<g clip-path="url(#clip0_9_538)">
<path d="M5.03673 3.73447C5.03639 4.40632 4.77075 5.05051 4.29822 5.52534C3.8257 6.00017 3.18502 6.26673 2.5171 6.2664C1.84919 6.26606 1.20877 5.99885 0.736721 5.52355C0.264673 5.04824 -0.00033364 4.40378 3.15251e-07 3.73194C0.000334271 3.06009 0.265981 2.4159 0.738502 1.94107C1.21102 1.46624 1.85171 1.19968 2.51962 1.20001C3.18753 1.20035 3.82796 1.46756 4.30001 1.94286C4.77205 2.41817 5.03706 3.06263 5.03673 3.73447ZM5.11228 8.14223H0.0755511V24H5.11228V8.14223ZM13.0703 8.14223H8.05876V24H13.0199V15.6785C13.0199 11.0427 19.0262 10.6121 19.0262 15.6785V24H24V13.9559C24 6.14101 15.1102 6.43232 13.0199 10.2701L13.0703 8.14223Z" fill="#140A6A"/>
</g>
<defs>
<clipPath id="clip0_9_538">
<rect width="24" height="24" fill="white"/>
</clipPath>
</defs>
</svg>
