<svg xmlns="http://www.w3.org/2000/svg" width="186" height="36" viewBox="0 0 186 36"><g><g><g><path fill="#de1f27" d="M24.023 25.27a10.95 10.95 0 0 0 3-7.544 10.697 10.697 0 0 0-.836-4.178 11.098 11.098 0 0 0-5.919-5.92 10.869 10.869 0 0 0-8.357 0 11.096 11.096 0 0 0-5.919 5.92 10.864 10.864 0 0 0 0 8.358 11.096 11.096 0 0 0 5.919 5.918c1.322.556 2.744.84 4.179.836a10.243 10.243 0 0 0 3.257-.514l3.13 4.158-.173.085a16.524 16.524 0 0 1-6.214 1.242c-2.09.005-4.16-.41-6.086-1.222a16.023 16.023 0 0 1-8.595-8.594 15.825 15.825 0 0 1 0-12.195 15.84 15.84 0 0 1 3.45-5.165A15.58 15.58 0 0 1 9.92 3.07a15.193 15.193 0 0 1 6.176-1.242 15.877 15.877 0 0 1 11.273 27.132l-.342.342 2.872 3.772-3.773 2.787-8.188-10.931 3.773-2.787z"/></g><g><path fill="#de1f27" d="M33.019 1.824h4.971v31.815H33.02z"/></g><g><path fill="#de1f27" d="M52.007 23.127c-.97.242-1.961.387-2.96.432l-1.198.044L55.65 33.64h5.614l-8.401-10.715-.857.213zm.944-6.278a5.96 5.96 0 0 1-4.503 1.58h-4.457V6.334h4.457c1.66-.134 3.3.433 4.521 1.565a7.48 7.48 0 0 1-.02 8.96zm-8.96 6.034h2.743a12.887 12.887 0 0 0 9.41-2.594 10.743 10.743 0 0 0 2.808-8.808v.102a12.747 12.747 0 0 0-.535-2.933 9.901 9.901 0 0 0-2.036-3.643 8.67 8.67 0 0 0-3.237-2.316 11.81 11.81 0 0 0-4.693-.857H39.02v31.805h4.971z"/></g><g><path fill="#de1f27" d="M67.264 33.636V17.94l-4.972-6.258v21.947zM62.294.367v9.645l4.972 6.729 9.987 14.832L87.2 16.74v16.888h5.015V.367l-14.96 22.29z"/></g><g><path fill="#de1f27" d="M93.238 1.824h4.972v31.815h-4.972z"/></g><g><path fill="#de1f27" d="M124.016 28.657h-15.215l-2.916 4.972h18.131zm-24.79 4.982h5.83l19.388-31.815h-21.646v4.971h12.773z"/></g><g><path fill="#de1f27" d="M125.468 1.824h4.971v31.815h-4.971z"/></g><g><path fill="#9a2021" d="M133.558 33.632a2.14 2.14 0 1 1 1.515-.629c-.395.411-.945.638-1.515.629z"/></g><g><path fill="#9a2021" d="M140.079 33.625V19.729l-3.551-3.277V33.63zm-3.551-22.978v4.82l3.551 3.551 14.297 14.727v-22.84h-3.582v14.58z"/></g><g><path fill="#9a2021" d="M165.427 20.156h-6.245v3.214h6.245zm3.307 10.254H158.66V14.093h10.074V10.91h-13.625v22.717h13.625z"/></g><g><path fill="#9a2021" d="M179.845 10.912v3.184h5.695v-3.184zm-10.377 0v3.184h6.245v19.53h3.582V10.913z"/></g></g></g></svg>