<svg width="18" height="14" viewBox="0 0 18 14" fill="none" xmlns="http://www.w3.org/2000/svg">
<path d="M3.375 0.75C2.5462 0.75 1.75134 1.07924 1.16529 1.66529C0.57924 2.25134 0.25 3.0462 0.25 3.875V4.5H17.75V3.875C17.75 3.0462 17.4208 2.25134 16.8347 1.66529C16.2487 1.07924 15.4538 0.75 14.625 0.75H3.375ZM17.75 5.75H0.25V10.125C0.25 10.9538 0.57924 11.7487 1.16529 12.3347C1.75134 12.9208 2.5462 13.25 3.375 13.25H14.625C15.4538 13.25 16.2487 12.9208 16.8347 12.3347C17.4208 11.7487 17.75 10.9538 17.75 10.125V5.75ZM12.125 9.5H14.625C14.7908 9.5 14.9497 9.56585 15.0669 9.68306C15.1842 9.80027 15.25 9.95924 15.25 10.125C15.25 10.2908 15.1842 10.4497 15.0669 10.5669C14.9497 10.6842 14.7908 10.75 14.625 10.75H12.125C11.9592 10.75 11.8003 10.6842 11.6831 10.5669C11.5658 10.4497 11.5 10.2908 11.5 10.125C11.5 9.95924 11.5658 9.80027 11.6831 9.68306C11.8003 9.56585 11.9592 9.5 12.125 9.5Z" fill="#FC5816"/>
</svg>
