<svg width="20" height="20" viewBox="0 0 20 20" fill="none" xmlns="http://www.w3.org/2000/svg">
<path d="M15.0629 1.29492L18.5404 4.91992V18.7049H5.5498V18.7499H18.5848V4.96555L15.0629 1.29492Z" fill="#909090"/>
<path d="M15.0193 1.25H5.50488V18.705H18.5399V4.92063L15.0193 1.25Z" fill="#F4F4F4"/>
<path d="M5.40977 2.1875H1.41602V6.45437H13.9785V2.1875H5.40977Z" fill="#7A7B7C"/>
<path d="M14.0452 6.38182H1.49707V2.11182H14.0452V6.38182Z" fill="#DD2025"/>
<path d="M5.6577 2.83367H4.84082V5.83367H5.48332V4.82179L5.6252 4.82992C5.7631 4.82802 5.89974 4.80331 6.02957 4.75679C6.14371 4.71804 6.24861 4.65612 6.3377 4.57492C6.42905 4.49832 6.50082 4.40105 6.54707 4.29117C6.61035 4.10912 6.63275 3.91536 6.6127 3.72367C6.60913 3.5867 6.58512 3.45104 6.54145 3.32117C6.50209 3.2273 6.44357 3.14268 6.36964 3.07273C6.2957 3.00277 6.20797 2.94902 6.11207 2.91492C6.02939 2.8843 5.94371 2.86251 5.85645 2.84992C5.79053 2.83918 5.72386 2.83375 5.65707 2.83367M5.53895 4.26742H5.48332V3.34242H5.60395C5.65718 3.33858 5.7106 3.34675 5.76026 3.36633C5.80991 3.38591 5.85453 3.4164 5.89082 3.45554C5.96602 3.55618 6.00619 3.67867 6.0052 3.80429C6.0052 3.95804 6.0052 4.09742 5.86645 4.19554C5.76651 4.25059 5.65271 4.27597 5.53895 4.26742ZM7.83332 2.82554C7.76395 2.82554 7.69645 2.83054 7.64895 2.83242L7.5002 2.83617H7.0127V5.83617H7.58645C7.80568 5.84181 8.02392 5.80466 8.22895 5.72679C8.39402 5.6616 8.54013 5.5561 8.65395 5.41992C8.76547 5.28314 8.84511 5.12322 8.88707 4.95179C8.93636 4.758 8.96031 4.55863 8.95832 4.35867C8.97056 4.12252 8.95228 3.88577 8.90395 3.65429C8.85768 3.4841 8.77204 3.32717 8.65395 3.19617C8.56132 3.09024 8.44738 3.00505 8.31957 2.94617C8.21009 2.89542 8.09488 2.85807 7.97645 2.83492C7.92935 2.8272 7.88167 2.82364 7.83395 2.82429M7.7202 5.28492H7.6577V3.36992H7.66582C7.79467 3.35502 7.92506 3.37827 8.04082 3.43679C8.12561 3.5045 8.1947 3.58979 8.24332 3.68679C8.29579 3.78888 8.32604 3.90092 8.33207 4.01554C8.3377 4.15304 8.33207 4.26554 8.33207 4.35867C8.33438 4.46594 8.32748 4.57321 8.31145 4.67929C8.29178 4.78808 8.25619 4.89338 8.20582 4.99179C8.14892 5.08357 8.07119 5.16065 7.97895 5.21679C7.90189 5.2668 7.81053 5.29008 7.71895 5.28304M10.8939 2.83617H9.3752V5.83617H10.0177V4.64617H10.8302V4.08867H10.0177V3.39367H10.8927V2.83617" fill="#464648"/>
<path d="M13.6134 12.6594C13.6134 12.6594 15.6059 12.2982 15.6059 12.9788C15.6059 13.6594 14.3715 13.3826 13.6134 12.6594ZM12.1403 12.7113C11.8237 12.7811 11.5152 12.8835 11.2197 13.0169L11.4697 12.4544C11.7197 11.8919 11.979 11.1251 11.979 11.1251C12.2766 11.6276 12.6238 12.0992 13.0153 12.5326C12.7205 12.5765 12.4284 12.6366 12.1403 12.7126V12.7113ZM11.3515 8.64882C11.3515 8.05569 11.5434 7.89382 11.6928 7.89382C11.8422 7.89382 12.0103 7.96569 12.0159 8.48069C11.9672 8.99853 11.8588 9.509 11.6928 10.0019C11.4647 9.58836 11.3469 9.12299 11.3509 8.65069L11.3515 8.64882ZM8.44592 15.2213C7.83467 14.8557 9.7278 13.7301 10.0709 13.6938C10.069 13.6944 9.08592 15.6038 8.44592 15.2213ZM16.1878 13.0594C16.1815 12.9969 16.1253 12.3051 14.894 12.3344C14.3808 12.3254 13.8678 12.3616 13.3609 12.4426C12.8696 11.948 12.4467 11.3899 12.1034 10.7832C12.3195 10.1578 12.4505 9.50607 12.4928 8.84569C12.4747 8.09569 12.2953 7.66569 11.7203 7.67194C11.1453 7.67819 11.0615 8.18132 11.1372 8.93007C11.2112 9.43324 11.3509 9.92451 11.5528 10.3913C11.5528 10.3913 11.2872 11.2182 10.9359 12.0407C10.5847 12.8632 10.3447 13.2944 10.3447 13.2944C9.73378 13.4931 9.15875 13.7885 8.64155 14.1694C8.12655 14.6488 7.91717 15.0169 8.18842 15.3851C8.42217 15.7026 9.2403 15.7744 9.97155 14.8163C10.3594 14.321 10.7143 13.8007 11.034 13.2588C11.034 13.2588 12.149 12.9532 12.4959 12.8694C12.8428 12.7857 13.2622 12.7194 13.2622 12.7194C13.2622 12.7194 14.2803 13.7438 15.2622 13.7076C16.244 13.6713 16.1965 13.1207 16.1903 13.0607" fill="#DD2025"/>
<path d="M14.9717 1.2981V4.96872H18.4923L14.9717 1.2981Z" fill="#909090"/>
<path d="M15.0195 1.25V4.92063H18.5402L15.0195 1.25Z" fill="#F4F4F4"/>
<path d="M5.60984 2.78557H4.79297V5.78557H5.43797V4.77432L5.58047 4.78245C5.71837 4.78055 5.85501 4.75584 5.98484 4.70932C6.09898 4.67057 6.20388 4.60865 6.29297 4.52745C6.38364 4.45064 6.45476 4.35338 6.50047 4.2437C6.56375 4.06164 6.58615 3.86789 6.56609 3.6762C6.56253 3.53923 6.53851 3.40357 6.49484 3.2737C6.45549 3.17983 6.39697 3.09521 6.32303 3.02525C6.2491 2.9553 6.16137 2.90155 6.06547 2.86745C5.98241 2.83653 5.8963 2.81453 5.80859 2.80182C5.74268 2.79109 5.676 2.78566 5.60922 2.78557M5.49109 4.21932H5.43547V3.29432H5.55672C5.60996 3.29048 5.66338 3.29866 5.71303 3.31824C5.76269 3.33782 5.80731 3.36831 5.84359 3.40745C5.91879 3.50808 5.95896 3.63058 5.95797 3.7562C5.95797 3.90995 5.95797 4.04932 5.81922 4.14745C5.71929 4.20249 5.60549 4.22725 5.49172 4.2187M7.78547 2.77745C7.71609 2.77745 7.64859 2.78245 7.60109 2.78432L7.45422 2.78807H6.96672V5.78807H7.54047C7.75971 5.79371 7.97794 5.75656 8.18297 5.6787C8.34804 5.61351 8.49416 5.50801 8.60797 5.37182C8.7195 5.23504 8.79914 5.07512 8.84109 4.9037C8.89039 4.7099 8.91434 4.51053 8.91234 4.31057C8.92458 4.07442 8.9063 3.83768 8.85797 3.6062C8.8117 3.436 8.72606 3.27907 8.60797 3.14807C8.51534 3.04214 8.4014 2.95695 8.27359 2.89807C8.16411 2.84732 8.0489 2.80997 7.93047 2.78682C7.88337 2.7791 7.83569 2.77555 7.78797 2.7762M7.67422 5.23682H7.61172V3.32182H7.61984C7.74869 3.30692 7.87909 3.33018 7.99484 3.3887C8.07963 3.4564 8.14872 3.5417 8.19734 3.6387C8.24982 3.74078 8.28006 3.85283 8.28609 3.96745C8.29172 4.10495 8.28609 4.21745 8.28609 4.31057C8.2884 4.41784 8.2815 4.52511 8.26547 4.6312C8.24581 4.73999 8.21022 4.84529 8.15984 4.9437C8.10294 5.03548 8.02521 5.11256 7.93297 5.1687C7.85591 5.2187 7.76456 5.24198 7.67297 5.23495M10.8461 2.78807H9.32734V5.78807H9.96984V4.59807H10.7823V4.04057H9.96984V3.34557H10.8448V2.78807" fill="white"/>
</svg>
