<svg width="18" height="18" viewBox="0 0 18 18" fill="none" xmlns="http://www.w3.org/2000/svg">
<path fill-rule="evenodd" clip-rule="evenodd" d="M7.44866 0.512406C7.82192 0.400434 8.21619 0.377271 8.59999 0.444765C8.98379 0.51226 9.3465 0.668543 9.65917 0.901139C9.97183 1.13374 10.2258 1.4362 10.4008 1.7844C10.5758 2.1326 10.6669 2.51688 10.667 2.90657V15.0932C10.6669 15.4829 10.5758 15.8672 10.4008 16.2154C10.2258 16.5636 9.97183 16.8661 9.65917 17.0987C9.3465 17.3313 8.98379 17.4876 8.59999 17.555C8.21619 17.6225 7.82192 17.5994 7.44866 17.4874L2.44866 15.9874C1.93374 15.8329 1.48233 15.5166 1.16139 15.0853C0.840454 14.6541 0.66708 14.1308 0.666992 13.5932V4.40657C0.66708 3.86899 0.840454 3.34575 1.16139 2.91448C1.48233 2.4832 1.93374 2.16687 2.44866 2.01241L7.44866 0.512406ZM11.5003 2.33324C11.5003 2.11223 11.5881 1.90026 11.7444 1.74398C11.9007 1.5877 12.1126 1.49991 12.3337 1.49991H14.8337C15.4967 1.49991 16.1326 1.7633 16.6014 2.23214C17.0703 2.70098 17.3337 3.33686 17.3337 3.99991V4.83324C17.3337 5.05425 17.2459 5.26621 17.0896 5.42249C16.9333 5.57877 16.7213 5.66657 16.5003 5.66657C16.2793 5.66657 16.0673 5.57877 15.9111 5.42249C15.7548 5.26621 15.667 5.05425 15.667 4.83324V3.99991C15.667 3.77889 15.5792 3.56693 15.4229 3.41065C15.2666 3.25437 15.0547 3.16657 14.8337 3.16657H12.3337C12.1126 3.16657 11.9007 3.07877 11.7444 2.92249C11.5881 2.76621 11.5003 2.55425 11.5003 2.33324ZM16.5003 12.3332C16.7213 12.3332 16.9333 12.421 17.0896 12.5773C17.2459 12.7336 17.3337 12.9456 17.3337 13.1666V13.9999C17.3337 14.6629 17.0703 15.2988 16.6014 15.7677C16.1326 16.2365 15.4967 16.4999 14.8337 16.4999H12.3337C12.1126 16.4999 11.9007 16.4121 11.7444 16.2558C11.5881 16.0995 11.5003 15.8876 11.5003 15.6666C11.5003 15.4456 11.5881 15.2336 11.7444 15.0773C11.9007 14.921 12.1126 14.8332 12.3337 14.8332H14.8337C15.0547 14.8332 15.2666 14.7454 15.4229 14.5892C15.5792 14.4329 15.667 14.2209 15.667 13.9999V13.1666C15.667 12.9456 15.7548 12.7336 15.9111 12.5773C16.0673 12.421 16.2793 12.3332 16.5003 12.3332ZM6.50033 8.16657C6.27931 8.16657 6.06735 8.25437 5.91107 8.41065C5.75479 8.56693 5.66699 8.77889 5.66699 8.99991C5.66699 9.22092 5.75479 9.43288 5.91107 9.58916C6.06735 9.74544 6.27931 9.83324 6.50033 9.83324H6.50116C6.72217 9.83324 6.93413 9.74544 7.09041 9.58916C7.2467 9.43288 7.33449 9.22092 7.33449 8.99991C7.33449 8.77889 7.2467 8.56693 7.09041 8.41065C6.93413 8.25437 6.72217 8.16657 6.50116 8.16657H6.50033Z" fill="#140A6A"/>
<path d="M12.334 8.99992H16.5007M16.5007 8.99992L14.834 7.33325M16.5007 8.99992L14.834 10.6666" stroke="#140A6A" stroke-width="2" stroke-linecap="round" stroke-linejoin="round"/>
</svg>
