<svg width="14" height="14" viewBox="0 0 14 14" fill="none" xmlns="http://www.w3.org/2000/svg">
<path d="M-0.00292969 0.496094C-0.00292969 0.363486 0.0497488 0.236308 0.143517 0.14254C0.237285 0.048772 0.364462 -0.00390625 0.49707 -0.00390625H0.93507C1.66207 -0.00390625 2.08007 0.469094 2.32207 0.941094C2.48707 1.26409 2.60607 1.65809 2.70507 2.00009H13.0001C13.1546 2.00014 13.307 2.03599 13.4453 2.10484C13.5837 2.17368 13.7042 2.27365 13.7974 2.39689C13.8906 2.52013 13.9539 2.66329 13.9825 2.81514C14.0111 2.96699 14.0041 3.1234 13.9621 3.27209L12.4661 8.54709C12.3471 8.9656 12.0948 9.33389 11.7476 9.5961C11.4004 9.85832 10.9772 10.0001 10.5421 10.0001H5.46307C5.02435 10.0002 4.59774 9.85613 4.24899 9.58995C3.90023 9.32378 3.64867 8.95031 3.53307 8.52709L2.89107 6.17209L2.88107 6.14009L1.85107 2.64209L1.75107 2.30509C1.65107 1.95909 1.56307 1.65309 1.43107 1.39609C1.27207 1.08609 1.12607 0.996094 0.93507 0.996094H0.49707C0.364462 0.996094 0.237285 0.943415 0.143517 0.849647C0.0497488 0.755879 -0.00292969 0.628702 -0.00292969 0.496094ZM5.50007 14.0001C5.8979 14.0001 6.27943 13.8421 6.56073 13.5608C6.84204 13.2794 7.00007 12.8979 7.00007 12.5001C7.00007 12.1023 6.84204 11.7207 6.56073 11.4394C6.27943 11.1581 5.8979 11.0001 5.50007 11.0001C5.10225 11.0001 4.72071 11.1581 4.43941 11.4394C4.15811 11.7207 4.00007 12.1023 4.00007 12.5001C4.00007 12.8979 4.15811 13.2794 4.43941 13.5608C4.72071 13.8421 5.10225 14.0001 5.50007 14.0001ZM10.5001 14.0001C10.8979 14.0001 11.2794 13.8421 11.5607 13.5608C11.842 13.2794 12.0001 12.8979 12.0001 12.5001C12.0001 12.1023 11.842 11.7207 11.5607 11.4394C11.2794 11.1581 10.8979 11.0001 10.5001 11.0001C10.1022 11.0001 9.72071 11.1581 9.43941 11.4394C9.15811 11.7207 9.00007 12.1023 9.00007 12.5001C9.00007 12.8979 9.15811 13.2794 9.43941 13.5608C9.72071 13.8421 10.1022 14.0001 10.5001 14.0001Z" fill="#140A6A"/>
</svg>
