<svg width="40" height="37" viewBox="0 0 40 37" fill="none" xmlns="http://www.w3.org/2000/svg">
<path d="M25.0223 5.24797C26.5641 6.95288 27.6623 9.01117 28.22 11.2411C28.7778 13.471 28.7779 15.804 28.2203 18.034L28.0783 18.558L34.8783 27.304C35.4508 28.0399 35.823 28.9116 35.9586 29.834C36.0943 30.7565 35.9887 31.6984 35.6523 32.568C35.8926 32.6354 36.1454 32.6457 36.3903 32.598L36.6303 32.538C37.1313 32.3781 37.675 32.4221 38.1439 32.6602C38.6127 32.8983 38.9689 33.3115 39.1354 33.8103C39.3018 34.3091 39.2651 34.8534 39.0332 35.3253C38.8013 35.7973 38.3929 36.1589 37.8963 36.332C36.596 36.7787 35.1759 36.726 33.9123 36.184C33.5189 36.0177 33.1458 35.807 32.8003 35.556C31.9712 35.9223 31.0632 36.074 30.16 35.9971C29.2569 35.9202 28.3876 35.6172 27.6323 35.116L27.3043 34.878L18.5603 28.078C16.266 28.7475 13.8386 28.8185 11.5091 28.2843C9.17955 27.75 7.0256 26.6283 5.25232 25.026C9.52585 22.9401 13.4219 20.1567 16.7803 16.79C20.1502 13.4284 22.9358 9.52618 25.0223 5.24797ZM21.8383 2.62797C19.9082 6.84636 17.2373 10.6844 13.9523 13.96C10.6787 17.242 6.84341 19.9109 2.62832 21.84C1.0243 19.1621 0.360816 16.0251 0.743202 12.9271C1.12559 9.82912 2.53193 6.94763 4.73895 4.74016C6.94596 2.53268 9.82716 1.12574 12.9251 0.742705C16.023 0.359674 19.1601 1.02451 21.8383 2.62797Z" fill="white"/>
</svg>
