<svg width="39" height="39" viewBox="0 0 39 39" fill="none" xmlns="http://www.w3.org/2000/svg">
<path d="M4.12708 34.9726C2.72251 33.5646 1.58731 31.9334 0.799805 30.125V36.9362C0.799805 38.0612 1.72027 38.9817 2.84526 38.9817H32.8488C33.9737 38.9817 34.8942 38.0612 34.8942 36.9362V35.5726H5.57275C5.0273 35.5726 4.5157 35.3612 4.12708 34.9726Z" fill="white"/>
<path d="M34.8941 6.25459C34.8941 4.74779 33.6737 3.52732 32.1668 3.52732H29.4362V5.57278C29.4157 6.46937 28.0913 6.46767 28.0725 5.57278V3.52732C28.0725 2.02051 26.8521 0.800049 25.3453 0.800049C23.8385 0.800049 22.618 2.02051 22.618 3.52732H14.4362V5.57278C14.4362 5.94778 14.1294 6.25459 13.7543 6.25459C13.3793 6.25459 13.0725 5.94778 13.0725 5.57278V3.52732C12.9651 -0.0743801 7.72708 -0.0777838 7.61799 3.52732H3.52708C2.02027 3.52732 0.799805 4.74779 0.799805 6.25459V8.98187H34.8942L34.8941 6.25459ZM8.98154 3.52732C9.03097 1.72902 11.6594 1.73073 11.7088 3.52732H8.98154ZM23.9815 3.52732C24.031 1.72902 26.6594 1.73073 26.7088 3.52732H23.9815Z" fill="white"/>
<path d="M12.1551 23.4383L9.94776 28.5943C9.77731 28.9898 10.0159 29.2711 10.0926 29.3478C10.1694 29.4245 10.4506 29.6648 10.8461 29.4927L16.0039 27.2836C15.2863 26.721 14.5908 26.1313 13.9499 25.4904C13.3056 24.846 12.7175 24.1523 12.1567 23.4381L12.1551 23.4383Z" fill="white"/>
<path d="M12.7706 22.0047C13.4183 22.8928 14.1308 23.7451 14.9132 24.5274C15.6904 25.3047 16.5427 26.0172 17.4376 26.6701L19.8717 25.6269L13.8137 19.5688L12.7705 22.0029L12.7706 22.0047Z" fill="white"/>
<path d="M38.7874 33.0434C36.2783 30.5343 34.8942 27.2001 34.8942 23.6481V10.3459H0.799805V23.6481C0.799805 27.5617 2.32027 31.2434 5.08843 34.0117C5.21798 34.1344 5.38843 34.2094 5.57253 34.2094H38.3033C38.8862 34.2282 39.2152 33.4508 38.7874 33.0434ZM19.2531 19.2246L22.1458 16.332C22.4117 16.0661 22.8429 16.0661 23.1105 16.332C23.3764 16.5979 23.3764 17.0292 23.1105 17.2968L20.2179 20.1894C20.0849 20.3223 19.9111 20.3888 19.7355 20.3888C19.5616 20.3888 19.3861 20.3223 19.2531 20.1894C18.9872 19.9235 18.9872 19.4922 19.2531 19.2246ZM16.3605 13.4376C16.0946 13.1717 16.0946 12.7404 16.3605 12.4728C16.6264 12.2069 17.0577 12.2069 17.3253 12.4728C18.6548 13.8024 18.6548 15.9654 17.3253 17.2951C17.1923 17.428 17.0185 17.4945 16.8429 17.4945C16.669 17.4945 16.4935 17.428 16.3605 17.2951C16.0946 17.0292 16.0946 16.5979 16.3605 16.3303C17.1582 15.5326 17.1582 14.2353 16.3605 13.4376ZM22.3863 27.1778C22.2533 27.3108 22.0795 27.3772 21.9039 27.3772C21.73 27.3772 21.5544 27.3108 21.4215 27.1778L20.9084 26.6647L11.3817 30.7454C11.1192 30.8579 10.8431 30.9125 10.5703 30.9142C10.0402 30.9142 9.52036 30.7062 9.12658 30.3125C8.52999 29.7159 8.35954 28.8312 8.69363 28.0573L12.7726 18.5324L12.2595 18.0193C11.9936 17.7534 11.9936 17.3221 12.2595 17.0546C12.5255 16.7887 12.9567 16.7887 13.2243 17.0546L14.0715 17.9017L14.0732 17.9034L21.5359 25.3661C21.5376 25.3678 21.5376 25.3678 21.5393 25.3695L22.3847 26.215C22.6506 26.4809 22.6506 26.9122 22.3847 27.1797L22.3863 27.1778ZM26.9664 23.0801C26.8334 23.213 26.6595 23.2795 26.484 23.2795C26.3101 23.2795 26.1345 23.213 26.0016 23.0801C25.2277 22.3079 23.8811 22.3079 23.1089 23.0801C22.843 23.346 22.4118 23.346 22.1442 23.0801C21.8783 22.8142 21.8783 22.3829 22.1442 22.1153C22.7885 21.471 23.6442 21.1164 24.5544 21.1164C25.4646 21.1164 26.3203 21.471 26.9646 22.1153C27.2305 22.3812 27.2305 22.8125 26.9646 23.0801H26.9664Z" fill="white"/>
</svg>
