<svg width="46" height="46" viewBox="0 0 46 46" fill="none" xmlns="http://www.w3.org/2000/svg">
<path d="M44.9542 16.0063L40.817 11.8691C40.4832 11.5398 40.0382 11.3476 39.5696 11.3302C39.101 11.3128 38.643 11.4717 38.2858 11.7754C37.7342 12.2448 37.0265 12.4899 36.3028 12.4621C35.579 12.4344 34.8922 12.1357 34.3783 11.6254C33.8682 11.1115 33.5697 10.4248 33.5419 9.70132C33.5141 8.97782 33.7591 8.27027 34.2282 7.71881C34.5319 7.36157 34.6908 6.90352 34.6734 6.43496C34.6561 5.9664 34.4638 5.52135 34.1345 5.18756L29.9936 1.04568C29.6436 0.696408 29.1694 0.500244 28.675 0.500244C28.1805 0.500244 27.7063 0.696408 27.3564 1.04568L20.7611 7.64006C20.354 8.04877 20.0469 8.54611 19.8639 9.09318C19.8283 9.19837 19.7689 9.29394 19.6904 9.37247C19.6118 9.451 19.5163 9.51038 19.4111 9.546C18.8638 9.72897 18.3663 10.0364 17.9579 10.4441L1.04544 27.3566C0.696164 27.7066 0.5 28.1808 0.5 28.6752C0.5 29.1696 0.696164 29.6439 1.04544 29.9938L5.18731 34.131C5.5211 34.4603 5.96616 34.6526 6.43472 34.6699C6.90327 34.6873 7.36133 34.5284 7.71856 34.2247C8.26877 33.7515 8.97749 33.5037 9.7027 33.5309C10.4279 33.5581 11.1161 33.8584 11.6292 34.3716C12.1424 34.8848 12.4427 35.5729 12.4699 36.2981C12.4971 37.0233 12.2493 37.732 11.7761 38.2822C11.4724 38.6395 11.3135 39.0975 11.3309 39.5661C11.3482 40.0347 11.5405 40.4797 11.8698 40.8135L16.007 44.9507C16.3569 45.3 16.8312 45.4961 17.3256 45.4961C17.82 45.4961 18.2942 45.3 18.6442 44.9507L35.5567 28.0382C35.9643 27.63 36.2717 27.133 36.4548 26.586C36.4903 26.4805 36.5497 26.3846 36.6284 26.3059C36.7071 26.2271 36.803 26.1677 36.9086 26.1322C37.4554 25.9493 37.9524 25.6422 38.3608 25.2351L44.9551 18.6397C45.3031 18.2898 45.4984 17.8163 45.4982 17.3228C45.4981 16.8293 45.3024 16.356 44.9542 16.0063ZM23.5445 13.2266C23.4052 13.3659 23.2398 13.4765 23.0578 13.5519C22.8758 13.6273 22.6807 13.6661 22.4837 13.6661C22.2867 13.6661 22.0916 13.6273 21.9096 13.5519C21.7276 13.4765 21.5622 13.3659 21.4229 13.2266L20.3439 12.1476C20.0694 11.8648 19.9172 11.4855 19.9202 11.0915C19.9232 10.6974 20.081 10.3204 20.3597 10.0419C20.6384 9.7633 21.0155 9.60558 21.4095 9.60279C21.8035 9.6 22.1828 9.75235 22.4654 10.0269L23.5445 11.1051C23.6838 11.2444 23.7943 11.4097 23.8697 11.5917C23.9452 11.7737 23.984 11.9688 23.984 12.1658C23.984 12.3629 23.9452 12.5579 23.8697 12.7399C23.7943 12.922 23.6838 13.0873 23.5445 13.2266ZM27.6695 17.3516C27.3882 17.6327 27.0068 17.7906 26.6092 17.7906C26.2115 17.7906 25.8302 17.6327 25.5489 17.3516L24.5176 16.3204C24.2363 16.039 24.0782 15.6575 24.0782 15.2596C24.0782 14.8617 24.2363 14.4801 24.5176 14.1988C24.799 13.9175 25.1805 13.7594 25.5784 13.7594C25.9763 13.7594 26.3579 13.9175 26.6392 14.1988L27.6704 15.2301C27.8102 15.3693 27.9212 15.5348 27.9969 15.7171C28.0727 15.8993 28.1117 16.0947 28.1118 16.2921C28.1119 16.4894 28.073 16.6848 27.9974 16.8671C27.9219 17.0494 27.8111 17.215 27.6714 17.3544L27.6695 17.3516ZM31.7945 21.4766C31.6552 21.6159 31.4898 21.7265 31.3078 21.8019C31.1258 21.8773 30.9307 21.9161 30.7337 21.9161C30.5367 21.9161 30.3416 21.8773 30.1596 21.8019C29.9776 21.7265 29.8122 21.6159 29.6729 21.4766L28.6417 20.4454C28.3672 20.1626 28.215 19.7833 28.218 19.3893C28.221 18.9953 28.3789 18.6182 28.6575 18.3397C28.9362 18.0611 29.3133 17.9034 29.7073 17.9006C30.1014 17.8978 30.4806 18.0502 30.7633 18.3247L31.7945 19.356C31.9347 19.495 32.0461 19.6604 32.1222 19.8426C32.1983 20.0248 32.2378 20.2202 32.2382 20.4177C32.2386 20.6151 32.2001 20.8107 32.1247 20.9933C32.0494 21.1758 31.9388 21.3416 31.7992 21.4813L31.7945 21.4766ZM35.9598 25.6522C35.8205 25.7916 35.6551 25.9021 35.4731 25.9775C35.2911 26.0529 35.096 26.0917 34.899 26.0917C34.702 26.0917 34.5069 26.0529 34.3249 25.9775C34.1429 25.9021 33.9775 25.7916 33.8382 25.6522L32.7658 24.5741C32.6235 24.4352 32.5103 24.2695 32.4327 24.0864C32.3551 23.9034 32.3146 23.7068 32.3136 23.508C32.3127 23.3092 32.3513 23.1122 32.4271 22.9284C32.503 22.7447 32.6146 22.5778 32.7555 22.4376C32.8965 22.2974 33.0639 22.1865 33.248 22.1116C33.4321 22.0366 33.6293 21.999 33.8281 22.0009C34.0269 22.0028 34.2233 22.0442 34.406 22.1227C34.5886 22.2012 34.7538 22.3153 34.892 22.4582L35.9654 23.5354C36.1047 23.6747 36.2151 23.8401 36.2905 24.0222C36.3658 24.2042 36.4045 24.3993 36.4044 24.5963C36.4043 24.7934 36.3654 24.9884 36.29 25.1704C36.2145 25.3524 36.1039 25.5177 35.9645 25.6569L35.9598 25.6522Z" fill="white"/>
</svg>
