<svg width="97" height="90" viewBox="0 0 97 90" fill="none" xmlns="http://www.w3.org/2000/svg">
<g clip-path="url(#clip0_1_414)">
<path fill-rule="evenodd" clip-rule="evenodd" d="M50.0422 0.00125122C49.1441 0.0438021 48.4998 1.46986 48.0276 2.50567C47.4944 3.70682 47.0636 4.8399 46.6853 5.76143C40.5244 21.1223 34.4636 36.4479 28.3418 51.5729C30.8031 51.2334 33.2391 50.7319 35.6338 50.0715C39.3664 40.1024 43.2065 29.8902 46.9391 20.0293C47.1673 19.4215 47.3052 18.5705 47.9434 18.196C48.3834 19.0803 48.7471 20.0003 49.0306 20.946C51.5064 27.6496 54.0896 34.3021 56.4874 40.9753C59.8668 39.0989 63.1444 37.0458 66.3064 34.8249C72.5502 30.4622 78.1306 25.2262 82.8758 19.278C84.0938 17.787 85.1845 16.1969 86.1362 14.5245C87.2565 12.6502 87.8894 10.527 87.9775 8.34729C87.8628 0.939791 77.286 2.66249 71.8194 4.0922C67.6913 5.22947 63.6568 6.68046 59.7514 8.4324C59.7124 8.4324 59.6538 8.49928 59.7514 8.51752C64.5688 7.69446 70.604 5.78453 76.422 6.17964C78.8905 6.35106 80.9478 7.27379 81.7813 9.01716C82.2938 10.4397 82.3526 11.9853 81.9496 13.4425C81.2918 15.576 80.1769 17.5417 78.6819 19.2038C74.3144 23.7981 69.1832 27.6063 63.5146 30.4604C59.66 21.0895 56.5118 12.6778 52.5473 3.25943C52.0811 2.14581 51.327 0.00488716 50.091 0.00488716H50.0422V0.00125122ZM83.1198 8.66948C83.1198 8.66948 83.1198 8.66948 83.1296 8.66948L83.1223 8.67675C83.1218 8.67353 83.1218 8.67026 83.1223 8.66703L83.1198 8.66948ZM82.9539 11.5994L82.9832 11.5909V11.6091C82.9731 11.6067 82.9634 11.6035 82.9539 11.5994ZM84.0033 13.0243C84.0203 13.0364 84.0459 13.0413 84.0545 13.0534C84.0271 13.0742 83.9972 13.0913 83.9654 13.1045C83.9765 13.077 83.9891 13.0503 84.0033 13.0243ZM81.5311 16.1049C81.5433 16.1135 81.5457 16.1256 81.5604 16.1341C81.5506 16.1333 81.5408 16.1333 81.5311 16.1341V16.1001V16.1049ZM82.9356 16.6155C82.9356 16.6155 82.9527 16.607 82.9539 16.6058C82.9539 16.618 82.9539 16.6253 82.9539 16.635C82.9539 16.635 82.9368 16.6253 82.9368 16.6155H82.9356Z" fill="url(#paint0_linear_1_414)"/>
<path fill-rule="evenodd" clip-rule="evenodd" d="M81.5313 17.8313L80.8174 17.6927L81.3971 17.221L80.9894 16.5851L81.7095 16.6824L81.8498 15.9262L82.2853 16.5341L82.8832 16.0964L82.7917 16.8611L83.5081 17.0022L82.926 17.4702L83.3469 18.1036L82.6209 18.0039L82.4782 18.7601L82.0364 18.1522L81.4397 18.5875L81.5313 17.8313Z" fill="white"/>
<path fill-rule="evenodd" clip-rule="evenodd" d="M73.6824 5.2046L73.1943 5.10976L73.5933 4.78153L73.3054 4.34384L73.813 4.41437L73.9021 3.88794L74.2071 4.31346L74.6256 4.00707L74.5549 4.53473L75.0551 4.63564L74.6525 4.95657L74.938 5.39667L74.4426 5.32495L74.3486 5.85138L74.0424 5.42828L73.625 5.73344L73.6824 5.2046Z" fill="white"/>
<path fill-rule="evenodd" clip-rule="evenodd" d="M69.0694 5.91095L68.7607 5.85259L69.0048 5.64107L68.823 5.36144L69.1488 5.4064L69.2061 5.06967L69.4014 5.33955L69.6759 5.14988L69.6344 5.48543L69.9395 5.54746L69.6857 5.75775L69.8724 6.03739L69.5551 5.99361L69.4892 6.33524L69.2976 6.05928L69.0256 6.25744L69.0694 5.91095Z" fill="white"/>
<path fill-rule="evenodd" clip-rule="evenodd" d="M83.9318 12.9197L83.1875 12.7762L83.789 12.2814L83.3645 11.6188L84.1149 11.7246L84.2576 10.9307L84.7262 11.5738L85.3619 11.1131L85.2557 11.9155L85.9953 12.0577L85.3974 12.5513L85.8219 13.209L85.0691 13.1081L84.925 13.9008L84.4674 13.2613L83.8293 13.7172L83.9318 12.9197Z" fill="white"/>
<path fill-rule="evenodd" clip-rule="evenodd" d="M78.5715 5.32011L77.8174 5.17786L78.4189 4.68304L77.9919 4.01803L78.7509 4.12259L78.8936 3.33359L79.3511 3.97307L79.9857 3.51472L79.8844 4.31466L80.6336 4.46177L80.0235 4.94806L80.4567 5.61188L79.6989 5.5061L79.5671 6.30363L79.0998 5.6617L78.469 6.11883L78.5715 5.32011Z" fill="white"/>
<path fill-rule="evenodd" clip-rule="evenodd" d="M83.1823 7.78078L82.167 7.58259L82.9833 6.92003L82.4037 6.02158L83.4213 6.16383L83.6203 5.08911L84.2474 5.95959L85.1017 5.33227L84.9613 6.41912L85.9741 6.61365L85.1517 7.27747L85.7447 8.17588L84.7148 8.03241L84.5233 9.10835L83.8936 8.24273L83.0394 8.86155L83.1823 7.78078Z" fill="white"/>
<path fill-rule="evenodd" clip-rule="evenodd" d="M77.8183 22.4352L77.2852 22.3331L77.7208 21.983L77.4096 21.5113L77.9477 21.5855L78.049 21.025L78.3736 21.4773L78.825 21.1539L78.7567 21.7204L79.2826 21.8213L78.8506 22.1727L79.1593 22.6407L78.6176 22.569L78.52 23.1331L78.1991 22.6772L77.7427 23.0018L77.8183 22.4352Z" fill="white"/>
<path fill-rule="evenodd" clip-rule="evenodd" d="M67.9311 30.419L67.3516 30.3097L67.8214 29.934L67.4943 29.427L68.0764 29.5072L68.1813 28.8994L68.5364 29.3857L69.011 29.0355L68.9354 29.6434L69.504 29.754L69.0477 30.1297L69.3698 30.633L68.7987 30.5565L68.6889 31.1582L68.329 30.6719L67.8531 31.0184L67.9311 30.419Z" fill="white"/>
<path fill-rule="evenodd" clip-rule="evenodd" d="M73.2598 26.6454L72.6875 26.5336L73.1585 26.1579L72.8278 25.6509L73.4074 25.7311L73.516 25.1233L73.8638 25.6096L74.3519 25.2595L74.2726 25.8673L74.8387 25.9767L74.3812 26.3524L74.7082 26.8581L74.1285 26.7779L74.0188 27.3858L73.6698 26.8994L73.1914 27.2496L73.2598 26.6454Z" fill="white"/>
<path fill-rule="evenodd" clip-rule="evenodd" d="M13.708 69.3142H37.1362V67.4371H32.6653C32.4171 67.3835 32.1776 67.2955 31.9539 67.1757C30.1968 66.2518 30.7264 63.7133 31.2865 61.835C42.5662 59.4217 51.2346 54.3983 59.5955 49.0697C61.5479 54.2974 63.1427 58.9901 65.1243 64.1777C65.6124 65.4652 66.2311 66.8232 65.0218 67.4383H63.4148V69.3154H87.5825V67.4383H83.5716C83.5353 67.4375 83.499 67.4347 83.463 67.4298C79.49 66.8985 77.8195 64.2105 76.2637 61.3377C75.2352 59.3309 74.3154 57.2705 73.5084 55.1654C71.6989 50.7888 70.0357 46.7355 68.3103 42.4767C77.1789 34.9574 85.3324 26.277 90.921 15.7718C82.7321 26.243 73.1497 35.9446 61.2697 43.4773C55.2749 47.4197 48.803 50.5897 42.0085 52.9114C38.2527 54.1948 34.3819 55.1161 30.4494 55.6627C24.0005 56.4577 18.7194 54.9976 18.2985 49.1536C18.3 46.2913 18.7529 43.4471 19.6407 40.7249C18.6145 42.5983 17.3113 44.597 16.2876 46.8169C15.1357 49.089 14.4001 51.5477 14.1156 54.0773C13.6763 60.2047 17.6078 62.5875 23.6601 62.6702C22.2971 65.3545 20.7719 66.9775 17.5029 67.4371H13.7129V69.3142H13.708ZM34.1271 56.1635C34.1517 56.1866 34.1745 56.2114 34.1955 56.2377C34.1735 56.245 34.1454 56.2486 34.1271 56.2547V56.1635Z" fill="url(#paint1_linear_1_414)"/>
<path fill-rule="evenodd" clip-rule="evenodd" d="M16.2821 54.5223L15.4609 54.363L16.1247 53.8269L15.6586 53.0974L16.4871 53.2191L16.6433 52.351L17.1436 53.0476L17.8343 52.548L17.722 53.4221L18.5517 53.5826L17.8794 54.1211L18.348 54.8506L17.5255 54.7399L17.373 55.6055L16.8605 54.9052L16.1711 55.4098L16.2821 54.5223Z" fill="white"/>
<path fill-rule="evenodd" clip-rule="evenodd" d="M33.9576 58.8139L32.9082 58.6145L33.7624 57.9215L33.1608 56.9854L34.2224 57.1373L34.4237 56.0189L35.0753 56.9185L35.96 56.2741L35.8123 57.3975L36.8739 57.6005L36.0197 58.2899L36.6299 59.2224L35.5634 59.0789L35.3633 60.1889L34.7117 59.294L33.8246 59.9384L33.9576 58.8139Z" fill="white"/>
<path fill-rule="evenodd" clip-rule="evenodd" d="M19.6467 59.3075L18.3838 59.0643L19.399 58.2449L18.6766 57.1264L19.9542 57.3064L20.186 55.9763L20.9658 57.051L22.0201 56.279L21.8492 57.6163L23.1121 57.8595L22.0896 58.6814L22.8217 59.7986L21.5515 59.6211L21.3172 60.9499L20.5265 59.8788L19.4747 60.6472L19.6467 59.3075Z" fill="white"/>
<path fill-rule="evenodd" clip-rule="evenodd" d="M40.5163 56.7495L39.6279 56.5806L40.3393 55.997L39.8366 55.2153L40.7286 55.3368L40.8957 54.3947L41.4449 55.1508L42.1916 54.6099L42.0696 55.5581L42.9628 55.7308L42.2465 56.3131L42.7591 57.0972L41.8573 56.9757L41.6926 57.913L41.1471 57.1544L40.3967 57.699L40.5163 56.7495Z" fill="white"/>
<path fill-rule="evenodd" clip-rule="evenodd" d="M46.0167 54.3606L45.126 54.1892L45.8422 53.6068L45.3347 52.819L46.2315 52.9406L46.3974 51.9997L46.9477 52.7595L47.6945 52.2149L47.5725 53.1631L48.4584 53.3345L47.7421 53.9144L48.2509 54.7035L47.3431 54.5819L47.1808 55.518L46.639 54.7606L45.8911 55.3089L46.0167 54.3606Z" fill="white"/>
<path fill-rule="evenodd" clip-rule="evenodd" d="M51.0038 52.154L50.2607 52.0093L50.8709 51.5157L50.4474 50.8532L51.1978 50.9602L51.3333 50.1663L51.8006 50.8046L52.4339 50.3462L52.3289 51.1474L53.0806 51.2945L52.4705 51.7808L52.9073 52.4433L52.1521 52.3352L52.0044 53.1302L51.5431 52.4896L50.9172 52.9527L51.0038 52.154Z" fill="white"/>
<path fill-rule="evenodd" clip-rule="evenodd" d="M55.5732 49.3201L54.9033 49.1986L55.4402 48.7621L55.0644 48.1713L55.738 48.2624L55.86 47.5622L56.2663 48.1312L56.83 47.7227L56.7386 48.4315L57.4084 48.5616L56.8606 48.9968L57.2376 49.5864L56.5726 49.494L56.4506 50.1942L56.0406 49.6302L55.4805 50.035L55.5732 49.3201Z" fill="white"/>
<path fill-rule="evenodd" clip-rule="evenodd" d="M60.5275 46.2467L59.9346 46.1325L60.4226 45.7386L60.0773 45.2097L60.6874 45.2936L60.7984 44.6602L61.1645 45.1732L61.6697 44.8085L61.5891 45.4492L62.1931 45.5708L61.7051 45.9635L62.048 46.4948L61.4452 46.4097L61.3317 47.0443L60.9656 46.5312L60.469 46.8959L60.5275 46.2467Z" fill="white"/>
<path fill-rule="evenodd" clip-rule="evenodd" d="M65.2276 42.9144L64.6406 42.8025L65.1141 42.4159L64.7797 41.8968L65.3727 41.9746L65.4826 41.3582L65.8486 41.8567L66.3367 41.4993L66.2599 42.1278L66.8395 42.2384L66.3746 42.6214L66.7053 43.1405L66.1171 43.0603L66.0036 43.6804L65.6376 43.1807L65.1494 43.5368L65.2276 42.9144Z" fill="white"/>
<path fill-rule="evenodd" clip-rule="evenodd" d="M26.798 60.2788L25.4375 60.0174L26.5357 59.1239L25.7523 57.9227L27.1202 58.11L27.3862 56.6766L28.2098 57.8327L29.3605 57.0048L29.1714 58.4552L30.5307 58.7129L29.4325 59.6017L30.2122 60.8052L28.8395 60.618L28.5845 62.0489L27.7449 60.8928L26.6065 61.7219L26.798 60.2788Z" fill="white"/>
<path fill-rule="evenodd" clip-rule="evenodd" d="M8.39144 84.7383C7.1964 85.2876 5.91336 85.6222 4.60146 85.7267H4.57338L6.70632 80.0917L8.43903 84.7395L8.39144 84.7383ZM13.4554 89.1502C13.4335 89.1486 13.4118 89.1449 13.3907 89.1393C13.1552 89.0833 12.6585 88.9666 11.9655 87.3496C11.3468 85.8822 10.1864 82.973 9.25048 80.6449C8.51835 78.803 7.87772 77.2116 7.69713 76.7983C7.53972 76.4336 7.40062 76.1698 7.14804 76.1698C6.87227 76.1698 6.74781 76.4481 6.54404 76.9381L2.21958 87.7083C1.86815 88.5824 1.57165 89.0457 0.948119 89.1563H0V89.7958H4.75886V89.1563H3.76803C3.69546 89.1332 3.63346 89.0853 3.59303 89.021C3.5526 88.9567 3.53635 88.88 3.54717 88.8049C3.57534 88.4607 3.65771 88.123 3.79123 87.8043L4.18901 86.7649C5.7636 86.7132 7.31655 86.384 8.77581 85.7924C8.79202 85.783 8.80872 85.7744 8.82584 85.7667L10.0192 88.9702C10.0355 88.9983 10.0423 89.0309 10.0385 89.0631C10.0348 89.0953 10.0207 89.1254 9.99847 89.1491H9.5897V89.7885H14.5059V89.1491H13.5188L13.4554 89.1502Z" fill="#003B7C"/>
<path fill-rule="evenodd" clip-rule="evenodd" d="M26.2083 87.5369L26.1961 87.5588L26.1497 87.6511C25.8312 88.2493 24.9807 88.5339 23.5494 88.5339H19.5227L20.4537 87.1212C22.5867 83.8922 24.7928 80.5488 26.8269 77.2493L26.8538 77.2055C26.9261 77.1059 26.9684 76.9879 26.9758 76.8652C26.9758 76.7436 26.8708 76.6159 26.5694 76.6159H20.5538C20.0327 76.6159 19.2835 76.6086 18.1573 76.5612C17.9946 76.5578 17.8331 76.5316 17.6777 76.4834C17.621 76.4665 17.5631 76.4539 17.5045 76.4457L17.3983 76.4372L16.7589 79.7343L17.3593 79.8558L17.5582 78.8237C17.7104 78.5204 17.95 78.2695 18.2464 78.1028C19.0203 77.8206 19.845 77.7034 20.6673 77.7587H23.8301C22.5086 79.8255 21.0858 82.0284 19.7045 84.1535C18.6844 85.7206 17.6643 87.2925 16.665 88.8486C16.4478 89.1732 16.3867 89.273 16.3867 89.4274C16.3867 89.5344 16.4404 89.7107 16.7955 89.7107C18.6161 89.7107 20.2646 89.735 21.8558 89.7581C23.3042 89.7787 24.6683 89.7995 26.0435 89.7995C26.148 89.801 26.2514 89.7777 26.3449 89.7314L26.3925 89.7046L26.4779 89.2766L27.0124 86.5375L26.4145 86.4232L26.2083 87.5369Z" fill="#003B7C"/>
<path fill-rule="evenodd" clip-rule="evenodd" d="M76.3756 77.1011H76.8124C77.0114 77.099 77.2103 77.1144 77.4066 77.1472C77.8813 77.2481 78.0168 77.4353 78.057 78.0213C78.0924 78.566 78.0924 79.0377 78.0924 81.6504V83.7936C78.0924 85.61 78.018 87.0762 77.1248 87.9661C76.5063 88.5493 75.6848 88.8706 74.8332 88.8621C74.0795 88.8992 73.3386 88.6576 72.7527 88.1838C72.0767 87.6318 71.4496 86.754 71.4496 84.0502V81.6492C71.4496 79.0366 71.4496 78.5648 71.4874 78.0201C71.5167 77.4293 71.6484 77.2178 72.0255 77.1497C72.1862 77.1173 72.3497 77.1002 72.5136 77.0986H72.9028V76.4908H67.2898V76.7594C67.2816 76.7812 67.277 76.8042 67.2764 76.8275C67.2772 76.8519 67.2818 76.8761 67.2898 76.8992V77.095H67.6864C67.9038 77.0906 68.121 77.106 68.3356 77.1411C68.8102 77.242 68.9457 77.4293 68.9835 78.0152C69.0201 78.5599 69.0201 79.0317 69.0201 81.6443V84.1486C68.9304 84.9875 69.0244 85.8359 69.2955 86.6352C69.5666 87.4344 70.0084 88.1655 70.5905 88.7782C71.6921 89.6532 73.0821 90.0868 74.4879 89.9939C75.8214 90.0497 77.1265 89.5987 78.1388 88.732C79.6165 87.4737 79.8191 85.4665 79.8191 83.4836V81.6478C79.8191 79.0352 79.819 78.5636 79.8495 78.019C79.8825 77.4281 80.0155 77.2166 80.3877 77.1485C80.5484 77.1162 80.7118 77.0991 80.8757 77.0974H81.3358V76.4896H76.3719L76.3756 77.1011Z" fill="#003B7C"/>
<path fill-rule="evenodd" clip-rule="evenodd" d="M92.0363 76.4968V77.1047H92.516C92.8082 77.0897 93.101 77.1209 93.3835 77.197C93.7142 77.3356 93.88 77.5861 93.8947 78.639L94.0655 86.1437C93.8581 85.9321 93.4385 85.4969 92.9357 84.9741C92.095 84.1 91.0601 83.0132 90.3915 82.3458C88.0023 79.9872 85.4325 77.2482 85.0542 76.8433L84.8956 76.6706C84.6857 76.4397 84.5394 76.2768 84.3369 76.2768C83.9976 76.2768 83.9975 76.7837 83.9975 76.9721L83.8462 87.1272C83.8291 88.5654 83.7608 89.0311 83.3935 89.1441C83.3021 89.1701 83.2086 89.1885 83.1141 89.1989H82.21V89.8068H87.2861V89.1989H86.3806C86.2483 89.1848 86.1181 89.1554 85.9926 89.1114C85.7656 89.0348 85.5045 88.7575 85.4667 87.3145L85.2849 80.3544C85.3484 80.4225 85.4241 80.5063 85.5131 80.606C86.2379 81.3962 87.7399 83.0448 89.2286 84.5158C89.9607 85.2295 90.7417 86.021 91.5007 86.7796C92.6099 87.8944 93.6641 88.9472 94.3071 89.56C94.4702 89.7727 94.7061 89.9184 94.9698 89.9696C95.3115 89.9696 95.3114 89.5174 95.3114 89.3277L95.5005 78.5076C95.5176 77.4815 95.6836 77.2615 96.0509 77.157C96.2108 77.12 96.375 77.104 96.539 77.1096H96.9929V76.5017L92.0363 76.4968Z" fill="#003B7C"/>
<path fill-rule="evenodd" clip-rule="evenodd" d="M38.6818 86.9255C38.4377 86.9255 38.4036 87.1369 38.3828 87.2767C38.2608 87.9563 38.0765 88.2785 37.6714 88.462C37.1645 88.6228 36.632 88.6888 36.101 88.6566C34.361 88.6566 34.1792 88.4038 34.1487 87.3193C34.1353 86.9692 34.1487 86.0829 34.1487 85.3742C34.1487 85.0909 34.1487 84.8355 34.1487 84.6689V83.3134C34.1509 83.2948 34.1509 83.276 34.1487 83.2575C34.5623 83.2575 36.2511 83.2745 36.5745 83.3073C37.2261 83.3791 37.3762 83.6563 37.4286 83.8922C37.4583 84.037 37.4779 84.1836 37.4872 84.331C37.4872 84.3882 37.4957 84.4441 37.4994 84.494V84.8015H38.1095V81.6551H37.4994V82.0199C37.3064 82.0928 37.1029 82.1339 36.8966 82.1414C36.6428 82.1621 35.6679 82.1754 34.1487 82.1876C34.1469 82.1585 34.1469 82.1293 34.1487 82.1002V77.7599C34.1466 77.7405 34.1466 77.721 34.1487 77.7016C34.4757 77.7016 36.2963 77.7356 36.5891 77.7685C37.4116 77.8681 37.5495 78.0566 37.6434 78.3167C37.6838 78.4127 37.7105 78.5137 37.7227 78.617V79.2565H38.3328V78.6365C38.3414 78.4894 38.3548 78.3192 38.3658 78.1684C38.3767 78.0177 38.3828 77.8852 38.3877 77.8159C38.4079 77.5007 38.4458 77.187 38.5012 76.8761C38.5137 76.8163 38.5223 76.7558 38.5268 76.695C38.5268 76.4518 38.3718 76.4263 38.306 76.4263C38.2362 76.4298 38.1675 76.4442 38.1022 76.4689C38.071 76.4816 38.0388 76.4913 38.0058 76.498C37.9387 76.5114 37.8496 76.5284 37.7471 76.5418H29.8011V77.208H31.2836C31.5825 77.3223 31.6899 77.5253 31.7217 78.0213C31.7558 78.566 31.7558 79.0377 31.7558 81.6504V84.6701C31.7558 86.2384 31.7558 87.5977 31.6668 88.3089C31.5984 88.8317 31.5106 89.1029 31.2592 89.16L31.2055 89.1708L29.7998 89.1781V89.786H35.3714C35.9815 89.8054 36.7502 89.8201 37.6714 89.8201C38.323 89.8201 38.572 89.8201 38.7159 89.2876C38.8362 88.651 38.9113 88.0066 38.9405 87.3594C38.9356 87.1807 38.9356 86.9255 38.6818 86.9255Z" fill="#003B7C"/>
<path fill-rule="evenodd" clip-rule="evenodd" d="M62.4155 81.7318L61.9372 81.3744C60.4265 80.2352 60.1581 79.6784 60.1581 78.994C60.1581 77.991 60.9159 77.3429 62.0897 77.3429C62.4301 77.3185 62.7711 77.3787 63.0825 77.5178C63.3938 77.657 63.6656 77.8709 63.8736 78.1405C64.0372 78.3437 64.158 78.5778 64.2287 78.8286V79.6298H64.8388V76.7619L64.8181 76.6476H64.7278C64.6979 76.6361 64.6673 76.6263 64.6363 76.6184C63.8808 76.4141 63.1006 76.3143 62.3178 76.3218C59.9116 76.3218 58.2228 77.7016 58.2228 79.6784C58.2228 81.1762 59.0025 82.4174 60.8194 83.8338L61.6101 84.4526C62.9817 85.5213 63.2562 86.258 63.2562 87.1066C63.2385 87.373 63.1669 87.6332 63.0458 87.8714C62.9247 88.1097 62.7566 88.3211 62.5515 88.493C62.3463 88.6649 62.1084 88.7936 61.8521 88.8717C61.5958 88.9498 61.3264 88.9755 61.0598 88.9472C60.5372 88.9824 60.0183 88.8378 59.5898 88.5378C59.1612 88.2378 58.8488 87.8004 58.7048 87.2986C58.6645 87.1357 58.6193 86.9473 58.5901 86.7881V86.0245H57.9897V86.365C57.982 86.3929 57.9763 86.4213 57.9727 86.45V89.346L58.0056 89.38C58.0794 89.4511 58.167 89.5066 58.263 89.5429C59.0737 89.879 59.9483 90.0346 60.8255 89.9988C61.8094 90.0357 62.7825 89.7847 63.6247 89.2767C64.1446 88.9491 64.571 88.4937 64.8631 87.9544C65.1552 87.4151 65.3032 86.81 65.2928 86.1973C65.2781 84.5098 64.5069 83.3001 62.4155 81.7318Z" fill="#003B7C"/>
<path fill-rule="evenodd" clip-rule="evenodd" d="M46.1545 77.7928V77.7806C46.426 77.7381 46.7009 77.7202 46.9757 77.7271C47.864 77.7271 49.3649 78.335 49.3649 80.623C49.4167 81.0631 49.3603 81.5092 49.2007 81.9228C49.0411 82.3364 48.7829 82.7051 48.4485 82.9973C48.2045 83.1748 48.0459 83.2405 47.3723 83.2405C46.9644 83.2447 46.5574 83.1989 46.1606 83.1043C46.1581 83.0711 46.1581 83.0379 46.1606 83.0047V77.7928H46.1545ZM53.2818 87.949C52.4105 87.0335 51.4137 85.7838 50.1568 84.1997L49.7127 83.6417C50.355 83.2108 50.8865 82.6352 51.2643 81.9617C51.642 81.2882 51.8554 80.5356 51.8871 79.7647C51.8849 79.2701 51.7685 78.7825 51.547 78.3398C51.3255 77.8971 51.0047 77.5111 50.6095 77.2116C49.6484 76.6401 48.5374 76.3686 47.4199 76.4323V76.4117H41.8496V77.3405H43.2711C43.4798 77.4244 43.5762 77.5496 43.6006 78.031C43.6336 78.5733 43.6335 79.0401 43.6335 81.6515V84.6703C43.6335 86.2337 43.6336 87.588 43.5567 88.2894C43.481 88.8098 43.4066 88.997 43.2723 89.0189L42.101 89.0383V89.9039H48.324V89.0298H46.8598H46.8219C46.7834 89.0281 46.7451 89.0237 46.7072 89.0165C46.4022 88.9776 46.2948 88.8135 46.2399 88.2871C46.1594 87.5819 46.1594 86.2203 46.1594 84.6459V84.5158L47.5467 84.5462C47.6407 84.5462 47.6505 84.5596 47.6688 84.5839C47.7908 84.7188 48.1008 85.1626 48.4693 85.6903C48.7487 86.0854 49.0659 86.5303 49.3576 86.9339C49.9781 87.9606 50.8098 88.8448 51.798 89.5283C52.4052 89.8185 53.0795 89.9407 53.7504 89.8821H56.0688V89.008H54.9706C54.3179 88.8232 53.7319 88.4562 53.2818 87.9503V87.949Z" fill="#003B7C"/>
</g>
<defs>
<linearGradient id="paint0_linear_1_414" x1="75.0366" y1="5.31313" x2="35.0389" y2="43.3709" gradientUnits="userSpaceOnUse">
<stop stop-color="#007BAC"/>
<stop offset="0.3" stop-color="#007BAC"/>
<stop offset="0.67" stop-color="#003C7B"/>
<stop offset="1" stop-color="#003C7B"/>
</linearGradient>
<linearGradient id="paint1_linear_1_414" x1="52.3145" y1="15.7718" x2="52.3145" y2="69.3154" gradientUnits="userSpaceOnUse">
<stop stop-color="#91BB30"/>
<stop offset="0.22" stop-color="#91BB30"/>
<stop offset="0.58" stop-color="#248332"/>
<stop offset="0.74" stop-color="#1B6A2F"/>
<stop offset="0.92" stop-color="#14522A"/>
<stop offset="1" stop-color="#14522A"/>
</linearGradient>
<clipPath id="clip0_1_414">
<rect width="97" height="90" fill="white"/>
</clipPath>
</defs>
</svg>
