<svg width="110" height="90" viewBox="0 0 110 90" fill="none" xmlns="http://www.w3.org/2000/svg">
<g clip-path="url(#clip0_1_474)">
<path d="M1.30708 52.7719V51.3588V50.4596V49.9201C1.30708 49.7916 1.30708 49.6631 1.28145 49.5347C1.25582 49.2778 1.20457 49.0722 1.12768 48.9438C1.05079 48.8153 0.871389 48.7125 0.640727 48.6868C0.589469 48.6611 0.486952 48.6611 0.384436 48.6611H0.128145C0.0512582 48.6611 0 48.6355 0 48.5841C0 48.507 0.0768872 48.4556 0.230662 48.4556H0.768872C0.948276 48.4556 1.12768 48.4556 1.30708 48.4813C1.46086 48.4813 1.61463 48.4813 1.71715 48.507H2.17847C2.30662 48.507 2.46039 48.507 2.66542 48.4813C2.84483 48.4813 3.04986 48.4813 3.28052 48.4556H5.25396C5.76654 48.4556 6.27912 48.507 6.81733 48.6098C7.35555 48.7125 7.91938 48.8667 8.43197 49.1236C8.97018 49.3548 9.45713 49.7145 9.91845 50.1513C10.0979 50.3568 10.2773 50.5881 10.4567 50.8193C10.6361 51.0762 10.7898 51.3588 10.918 51.6671C11.0461 51.9755 11.1486 52.3351 11.2512 52.6948C11.3281 53.0802 11.3793 53.4913 11.3793 53.9281C11.3793 54.3905 11.3281 54.853 11.2512 55.2641C11.1743 55.6751 11.0461 56.0605 10.8924 56.4202C10.7386 56.7799 10.5592 57.0882 10.3798 57.3965C10.1747 57.6791 9.99534 57.9361 9.76468 58.1673C9.6109 58.3471 9.40587 58.527 9.14958 58.7325C8.89329 58.9381 8.58574 59.1179 8.22693 59.2977C7.86813 59.4776 7.43243 59.6061 6.94548 59.7345C6.45853 59.8373 5.89469 59.9144 5.25396 59.9144C4.94641 59.9144 4.5876 59.9144 4.2288 59.8887C3.84436 59.863 3.51118 59.8373 3.20363 59.8373C2.87046 59.8116 2.58854 59.7859 2.35787 59.7859C2.12721 59.7602 1.99907 59.7602 1.94781 59.7602H1.74278C1.64026 59.7602 1.48649 59.7602 1.33271 59.7859C1.17894 59.7859 1.02516 59.7859 0.871389 59.8116C0.717614 59.8116 0.589469 59.8373 0.461323 59.8373C0.307549 59.8373 0.230662 59.7859 0.230662 59.7088C0.230662 59.6574 0.28192 59.6317 0.358807 59.6317C0.435694 59.6317 0.512582 59.6317 0.589469 59.6061C0.666356 59.6061 0.743243 59.5804 0.82013 59.5547C0.973905 59.529 1.07642 59.4262 1.12768 59.2977C1.17894 59.1436 1.2302 58.9637 1.25582 58.7325C1.30708 58.4242 1.30708 57.9617 1.33271 57.3965V52.7719H1.30708ZM2.56291 54.3905V56.4973C2.56291 56.7799 2.56291 57.0368 2.58854 57.2424V57.6534C2.58854 57.7305 2.58854 57.8333 2.61417 57.9618C2.61417 58.0645 2.63979 58.193 2.63979 58.2957C2.63979 58.3985 2.66542 58.5013 2.69105 58.6041C2.71668 58.6811 2.74231 58.7582 2.76794 58.8096C2.8192 58.8867 2.89609 58.9381 2.9986 59.0151C3.10112 59.0922 3.25489 59.1436 3.4343 59.2207C3.63933 59.2721 3.86999 59.3234 4.17754 59.3748C4.48509 59.4005 4.8439 59.4262 5.27959 59.4262C5.97157 59.4262 6.63793 59.2977 7.25303 59.0665C7.86813 58.8353 8.40634 58.4756 8.84203 58.0388C9.02143 57.859 9.20084 57.6277 9.35461 57.3451C9.50839 57.0882 9.63653 56.7799 9.73905 56.4716C9.84157 56.1633 9.91845 55.8293 9.96971 55.4953C10.021 55.1613 10.0466 54.8016 10.0466 54.4676C10.0466 53.9794 9.99534 53.5427 9.91845 53.1573C9.84157 52.7719 9.71342 52.4122 9.55965 52.1039C9.40587 51.7956 9.2521 51.513 9.09832 51.2818C8.91892 51.0505 8.76514 50.845 8.61137 50.6908C8.25256 50.3311 7.89376 50.0228 7.50932 49.7916C7.12488 49.5604 6.71482 49.4062 6.30475 49.2778C5.89469 49.1493 5.48462 49.0722 5.04893 49.0465C4.61323 49.0208 4.17754 48.9951 3.71622 48.9951H3.45993C3.35741 48.9951 3.28052 48.9951 3.17801 49.0208C3.07549 49.0208 2.9986 49.0465 2.92171 49.0465C2.84483 49.0722 2.79357 49.0722 2.76794 49.0722C2.63979 49.1236 2.58854 49.2264 2.58854 49.3805V54.3905H2.56291ZM15.7363 53.7996V52.5921V51.847V51.3845C15.7363 51.2818 15.7363 51.1533 15.7106 51.0505C15.685 50.8193 15.6594 50.6651 15.5825 50.5624C15.5312 50.4596 15.3774 50.3825 15.1724 50.3568C15.1212 50.3568 15.0443 50.3311 14.9674 50.3311H14.7367C14.6598 50.3311 14.6342 50.3055 14.6342 50.2284C14.6342 50.1513 14.7111 50.1256 14.8392 50.1256H18.0429C18.4529 50.1256 18.8886 50.1513 19.3243 50.2284C19.76 50.3055 20.1445 50.4339 20.5033 50.6908C20.5801 50.7422 20.6827 50.845 20.7852 50.9478C20.8877 51.0505 20.9902 51.179 21.0927 51.3331C21.1952 51.4873 21.2721 51.6415 21.3234 51.847C21.4003 52.0268 21.4259 52.2324 21.4259 52.4636C21.4259 52.9261 21.2978 53.4142 21.0671 53.8767C20.8364 54.3391 20.4007 54.853 19.8113 55.3668C20.3495 56.0348 20.8364 56.6514 21.2978 57.2167C21.7591 57.7819 22.1692 58.2444 22.5536 58.6554C22.9124 59.0151 23.1943 59.2464 23.425 59.3491C23.6556 59.4519 23.8607 59.529 24.0144 59.529C24.1426 59.5547 24.2451 59.5547 24.322 59.5547H24.4758C24.5527 59.5547 24.6039 59.5804 24.6039 59.6574C24.6039 59.7088 24.5783 59.7345 24.527 59.7345C24.4758 59.7602 24.3989 59.7602 24.2707 59.7602H23.4506C23.0662 59.7602 22.7842 59.7345 22.6048 59.7088C22.3998 59.6574 22.2204 59.6061 22.0666 59.5033C21.7847 59.3491 21.5028 59.1179 21.2465 58.8096C20.9902 58.5013 20.657 58.1159 20.2726 57.6278C20.1445 57.4479 19.9907 57.2937 19.8625 57.0882C19.7344 56.9084 19.5806 56.7285 19.4781 56.5744C19.35 56.4202 19.2474 56.2661 19.1449 56.1119C19.0424 55.9834 18.9655 55.855 18.8886 55.7779C18.8374 55.7265 18.7861 55.7008 18.7092 55.7008L17.0433 55.6751C16.9921 55.6751 16.9664 55.7008 16.9664 55.7779V57.7305C16.9664 58.193 16.9921 58.5784 17.0177 58.8353C17.0433 59.0151 17.069 59.1693 17.1459 59.2977C17.2227 59.4005 17.3509 59.4776 17.5303 59.5033C17.6072 59.529 17.7353 59.529 17.8378 59.5547C17.966 59.5547 18.0429 59.5804 18.0941 59.5804C18.171 59.5804 18.1966 59.6061 18.1966 59.6831C18.1966 59.7602 18.1198 59.7859 17.9916 59.7859H17.4534C17.274 59.7859 17.0946 59.7859 16.9408 59.7602C16.787 59.7602 16.6589 59.7602 16.5564 59.7345H16.377C16.1719 59.7345 16.0182 59.7602 15.8644 59.7602C15.7363 59.7602 15.5825 59.7602 15.4287 59.7859H15.0443C14.9161 59.7859 14.8392 59.7602 14.8392 59.6831C14.8392 59.6061 14.8649 59.5804 14.9418 59.5804C14.993 59.5804 15.0699 59.5804 15.1468 59.5547C15.2237 59.5547 15.3006 59.529 15.3518 59.5033C15.48 59.4776 15.5568 59.4005 15.6081 59.2977C15.6337 59.195 15.685 59.0408 15.7106 58.8353C15.7619 58.5784 15.7619 58.2187 15.7875 57.7305V53.7996H15.7363ZM16.8639 54.8787C16.8639 54.9558 16.8896 55.0071 16.9408 55.0328C16.9921 55.0585 17.069 55.0842 17.1715 55.1099C17.274 55.1356 17.3765 55.1613 17.5303 55.1613C17.6584 55.187 17.8122 55.187 17.966 55.2127C18.1198 55.2127 18.2735 55.2384 18.4017 55.2384C18.5555 55.2384 18.7349 55.2384 18.8886 55.2127C19.068 55.187 19.2218 55.1356 19.3756 55.0071C19.6062 54.853 19.7856 54.6218 19.9394 54.2878C20.0932 53.9538 20.1701 53.5427 20.1701 53.0545C20.1701 52.2581 19.9651 51.6415 19.555 51.2047C19.1449 50.7679 18.6067 50.5624 17.8891 50.5624C17.6841 50.5624 17.5047 50.5624 17.3253 50.5881C17.1459 50.6138 17.0177 50.6138 16.9408 50.6395C16.8639 50.6908 16.8383 50.7165 16.8383 50.7936V54.8787H16.8639ZM28.0638 53.7996V52.5921V51.847V51.3845C28.0638 51.2818 28.0638 51.1533 28.0382 51.0505C28.0126 50.8193 27.987 50.6651 27.9101 50.5624C27.8588 50.4596 27.705 50.3825 27.5 50.3568C27.4487 50.3568 27.3719 50.3311 27.295 50.3311H27.0643C26.9874 50.3311 26.9618 50.3055 26.9618 50.2284C26.9618 50.1513 27.0387 50.1256 27.1668 50.1256H31.8057C31.9338 50.1256 32.062 50.0999 32.1645 50.0999C32.267 50.0742 32.3439 50.0742 32.3952 50.0742C32.4208 50.0742 32.4464 50.0485 32.472 50.0485C32.4977 50.0228 32.5233 50.0228 32.5489 50.0228C32.6002 50.0228 32.6002 50.0742 32.6002 50.1513C32.6002 50.2027 32.6002 50.2541 32.5746 50.3568C32.5489 50.4339 32.5233 50.5624 32.4977 50.7422V50.8964C32.4977 50.9735 32.4977 51.0505 32.472 51.1533C32.472 51.2304 32.4464 51.3331 32.4464 51.4102C32.4464 51.4873 32.4464 51.5387 32.4208 51.5901C32.4208 51.6158 32.3952 51.6415 32.3695 51.6671C32.3439 51.6928 32.3183 51.7185 32.2926 51.7185C32.2157 51.7185 32.1901 51.6671 32.1901 51.5644C32.1901 51.513 32.1901 51.4359 32.1645 51.3588C32.1645 51.2818 32.1389 51.2047 32.1132 51.1019C32.0876 51.0505 32.062 50.9991 32.0363 50.9735C32.0107 50.9221 31.9595 50.8964 31.8826 50.8707C31.8057 50.845 31.7288 50.8193 31.6263 50.7936C31.5238 50.7679 31.37 50.7422 31.1906 50.7165C31.1393 50.7165 31.0112 50.6908 30.8061 50.6908C30.6267 50.6908 30.4217 50.6908 30.1911 50.6651H29.2684C29.2171 50.6651 29.1915 50.7165 29.1915 50.7936V54.2621C29.1915 54.3648 29.2171 54.3905 29.2684 54.3905H31.0112C31.2418 54.3905 31.37 54.3905 31.4469 54.3648C31.6007 54.3391 31.7288 54.3391 31.8313 54.3134C31.9338 54.2878 32.0107 54.2621 32.0876 54.185C32.1901 54.0822 32.267 54.0308 32.2926 54.0308C32.3439 54.0308 32.3695 54.0565 32.3695 54.1336C32.3695 54.185 32.3695 54.2364 32.3439 54.3648C32.3183 54.4676 32.2926 54.6218 32.267 54.853C32.2414 54.9814 32.2414 55.1356 32.2157 55.3154C32.2157 55.4953 32.1901 55.6238 32.1901 55.6751C32.1901 55.7265 32.1901 55.7779 32.1645 55.8293C32.1389 55.8807 32.1132 55.9064 32.062 55.9064C32.0107 55.9064 31.9851 55.855 31.9851 55.7779V55.5724C31.9851 55.4953 31.9595 55.4182 31.9338 55.3411C31.9082 55.2641 31.8569 55.1613 31.7801 55.1099C31.7032 55.0328 31.5238 54.9814 31.2675 54.9558C31.1906 54.9558 31.0368 54.9301 30.8318 54.9301C30.6267 54.9301 30.4217 54.9044 30.2167 54.9044H29.2684C29.2171 54.9044 29.1915 54.9301 29.1915 54.9814V58.2187C29.1915 58.4242 29.2171 58.6041 29.2684 58.7325C29.3197 58.861 29.3966 58.9637 29.4991 59.0408C29.6016 59.1179 29.781 59.1693 29.9604 59.195C30.1654 59.2207 30.4217 59.2207 30.7549 59.2207C30.9343 59.2207 31.1393 59.2207 31.4212 59.195C31.6775 59.195 31.9082 59.1436 32.0876 59.0665C32.267 58.9894 32.3952 58.8867 32.472 58.7582C32.5746 58.6297 32.6258 58.4499 32.6771 58.193C32.7027 58.0645 32.754 57.9874 32.8052 57.9874C32.8565 57.9874 32.8821 58.0131 32.8821 58.0388C32.8821 58.0902 32.9077 58.1159 32.9077 58.1673C32.9077 58.193 32.9077 58.2444 32.8821 58.3471C32.8821 58.4499 32.8565 58.5784 32.8308 58.7068C32.8052 58.8353 32.7796 58.9637 32.7796 59.0922C32.754 59.2207 32.7283 59.3234 32.7283 59.3748C32.7027 59.4519 32.6771 59.529 32.6514 59.5547C32.6258 59.6061 32.5746 59.6317 32.5233 59.6574C32.472 59.6831 32.3952 59.6831 32.3183 59.6831H31.9851C31.4981 59.6831 31.0368 59.6831 30.678 59.6574C30.2936 59.6574 29.986 59.6317 29.7041 59.6317C29.4222 59.6061 29.1915 59.6061 29.0121 59.6061H28.397C28.2945 59.6061 28.1664 59.6061 28.0126 59.6317C27.8844 59.6317 27.7563 59.6574 27.6281 59.6574H27.2693C27.1412 59.6574 27.0643 59.6317 27.0643 59.5547C27.0643 59.4776 27.0899 59.4519 27.1668 59.4519C27.2181 59.4519 27.295 59.4519 27.3719 59.4262C27.4487 59.4005 27.5256 59.4005 27.5769 59.4005C27.705 59.3748 27.7819 59.3234 27.8332 59.195C27.8588 59.0665 27.9101 58.9124 27.9357 58.7325C27.987 58.4756 27.987 58.1159 28.0126 57.6278V53.7996H28.0638ZM40.2889 50.3825C40.3658 50.177 40.4171 50.0485 40.4683 49.9715C40.5196 49.9201 40.5452 49.8944 40.5965 49.8944C40.6733 49.8944 40.7246 49.9458 40.7502 50.0228C40.7759 50.0999 40.8271 50.2284 40.904 50.3568C40.9553 50.4339 41.0322 50.6651 41.1603 50.9735C41.2884 51.3075 41.4678 51.6928 41.6472 52.1553C41.8267 52.6178 42.0317 53.1316 42.2623 53.6711C42.493 54.2364 42.698 54.7759 42.9287 55.3154C43.1594 55.855 43.3644 56.3688 43.5438 56.857C43.7488 57.3451 43.9026 57.7305 44.0564 58.0645C44.1845 58.3471 44.287 58.5784 44.3896 58.7582C44.4921 58.9381 44.5946 59.0665 44.6971 59.1693C44.7996 59.2721 44.8765 59.3491 44.9534 59.3748C45.0303 59.4262 45.1072 59.4519 45.1841 59.4519C45.2866 59.4776 45.3891 59.5033 45.466 59.5033C45.5429 59.5033 45.6454 59.529 45.6966 59.529C45.7479 59.529 45.7735 59.529 45.7992 59.5547C45.8248 59.5804 45.8504 59.6061 45.8504 59.6317C45.8504 59.6831 45.8248 59.7088 45.7735 59.7088C45.7223 59.7345 45.6454 59.7345 45.5685 59.7345H44.1845C43.9539 59.7345 43.7232 59.7345 43.4925 59.7088C43.3644 59.7088 43.2619 59.6831 43.1594 59.6831C43.0825 59.6831 43.0312 59.6574 43.0312 59.6061C43.0312 59.5804 43.0312 59.5547 43.0568 59.5547C43.0825 59.5547 43.0825 59.529 43.1337 59.529C43.185 59.5033 43.2106 59.4776 43.2619 59.4262C43.3131 59.3748 43.3131 59.2977 43.2619 59.195L42.0829 56.2661C42.0573 56.2147 42.0061 56.189 41.9548 56.189H38.9306C38.8793 56.189 38.828 56.2147 38.8024 56.2918L38.0592 58.3214C37.931 58.6554 37.8541 58.9381 37.8541 59.1693C37.8541 59.2977 37.9054 59.4005 38.0079 59.4262C38.1104 59.4776 38.213 59.5033 38.3155 59.5033H38.4436C38.5205 59.5033 38.5718 59.529 38.5718 59.6061C38.5718 59.6831 38.4949 59.7088 38.3667 59.7088H38.0592C37.931 59.7088 37.8285 59.7088 37.7004 59.6831C37.5722 59.6831 37.4697 59.6831 37.3672 59.6574H36.9828C36.8802 59.6574 36.7777 59.6574 36.6496 59.6831C36.5214 59.6831 36.3933 59.6831 36.2395 59.7088C36.0857 59.7345 35.9576 59.7088 35.8294 59.7088C35.65 59.7088 35.5732 59.6831 35.5732 59.6061C35.5732 59.529 35.6244 59.5033 35.7013 59.5033H35.9063C35.9832 59.5033 36.0601 59.5033 36.1114 59.4776C36.4189 59.4262 36.624 59.3234 36.8034 59.0922C36.9571 58.8867 37.1109 58.6297 37.239 58.2957L40.2889 50.3825ZM41.7498 55.6494C41.801 55.6494 41.801 55.6238 41.801 55.5724L40.4939 52.0782C40.4171 51.8984 40.3402 51.8984 40.2633 52.0782L39.0331 55.5724C39.0075 55.6238 39.0331 55.6494 39.0843 55.6494H41.7498ZM59.8183 58.0902C59.8183 58.193 59.8439 58.3214 59.8695 58.4499C59.8952 58.5784 59.9208 58.7068 59.972 58.8353C60.0233 58.9637 60.0746 59.0665 60.1771 59.1693C60.254 59.2721 60.3565 59.3491 60.5103 59.3748C60.6897 59.4262 60.8691 59.4776 61.0228 59.4776C61.1766 59.4776 61.2791 59.5033 61.356 59.5033C61.4329 59.5033 61.4585 59.529 61.4585 59.5804C61.4585 59.6317 61.4329 59.6574 61.3816 59.6574C61.3304 59.6831 61.2791 59.6831 61.1766 59.6831H60.7665C60.5615 59.6831 60.3565 59.6831 60.1258 59.6574C59.8952 59.6574 59.6645 59.6574 59.4338 59.6317C59.2032 59.6317 59.0494 59.6061 58.9212 59.6061C58.7675 59.5804 58.665 59.5547 58.6137 59.5547C58.5624 59.529 58.5368 59.5033 58.5368 59.4776C58.5368 59.4262 58.5624 59.4005 58.6137 59.3748C58.665 59.3748 58.6906 59.3234 58.6906 59.2207C58.6906 59.1436 58.6906 59.0408 58.665 58.9124L58.0499 52.4893H58.0242L54.8719 58.9894C54.7437 59.2721 54.6412 59.4519 54.5899 59.529C54.5387 59.6061 54.4874 59.6574 54.4105 59.6574C54.3336 59.6574 54.2824 59.6061 54.2311 59.529C54.1799 59.4519 54.0774 59.2977 53.9492 59.0665C53.8723 58.9124 53.7442 58.7068 53.616 58.4499C53.4879 58.193 53.3341 57.9104 53.1803 57.6278C53.0266 57.3451 52.8984 57.0625 52.7446 56.7799C52.6165 56.523 52.4883 56.2918 52.4115 56.1119C52.3089 55.9064 52.1808 55.6494 52.027 55.3154C51.8732 54.9814 51.6938 54.6218 51.5144 54.2878C51.335 53.9281 51.1813 53.6198 51.0531 53.3114C50.8993 53.0031 50.7968 52.7976 50.7456 52.6691H50.6943L50.1817 58.4242C50.1817 58.527 50.1561 58.6297 50.1561 58.7325V59.0665C50.1561 59.2464 50.2586 59.3748 50.4636 59.4262C50.5662 59.4519 50.6687 59.4776 50.7712 59.4776C50.8481 59.4776 50.925 59.5033 50.9762 59.5033C51.0531 59.5033 51.0788 59.529 51.0788 59.5804C51.0788 59.6574 51.0019 59.7088 50.8481 59.7088H50.4636C50.4636 59.7088 50.2074 59.7088 50.0792 59.6831C49.9767 59.6831 49.8742 59.6831 49.7717 59.6574H49.4129C49.336 59.6574 49.2335 59.6574 49.1309 59.6831C49.0284 59.6831 48.9003 59.6831 48.7978 59.7088H48.4902C48.3364 59.7088 48.2596 59.6574 48.2596 59.5804C48.2596 59.529 48.3108 59.5033 48.3877 59.5033H48.5415C48.5927 59.5033 48.6696 59.4776 48.7721 59.4776C49.0028 59.4262 49.1309 59.3234 49.1566 59.1179C49.2078 58.9124 49.2335 58.7068 49.2591 58.4499L50.2074 50.1513C50.233 49.9971 50.2842 49.9201 50.3611 49.9201C50.4636 49.9201 50.5662 49.9971 50.6174 50.1256L54.5899 58.0388L58.4087 50.1513C58.4855 50.0228 58.5368 49.9458 58.6137 49.9458C58.7162 49.9458 58.7675 50.0485 58.8187 50.2798L59.8183 58.0902ZM66.6612 56.0862V57.2937C66.6612 57.6277 66.6869 57.9104 66.6869 58.1416C66.7125 58.3728 66.7381 58.5527 66.7637 58.6811C66.7894 58.8096 66.8406 58.9124 66.9175 58.9637C67.02 59.0665 67.2251 59.1436 67.4814 59.195C67.7376 59.2464 68.1477 59.2721 68.6603 59.2721C69.0191 59.2721 69.3267 59.2464 69.5829 59.2207C69.8649 59.195 70.0699 59.0665 70.2237 58.8867C70.3006 58.7839 70.3774 58.6811 70.4287 58.5527C70.48 58.4242 70.5312 58.2957 70.5312 58.1673C70.5568 58.0645 70.6081 58.0131 70.6594 58.0131C70.7106 58.0131 70.7363 58.0902 70.7363 58.2187C70.7363 58.2444 70.7363 58.3214 70.7106 58.4242C70.7106 58.527 70.685 58.6554 70.6594 58.7582C70.6337 58.8867 70.6081 59.0151 70.6081 59.1436C70.5825 59.2721 70.5568 59.4005 70.5312 59.4776C70.5056 59.5547 70.48 59.6317 70.4543 59.6574C70.4287 59.7088 70.3774 59.7345 70.3262 59.7602C70.2749 59.7859 70.198 59.7859 70.0955 59.8116C69.993 59.8116 69.8649 59.8373 69.6855 59.8373C68.7628 59.8373 68.0196 59.8116 67.4045 59.7859C67.0969 59.7859 66.8406 59.7602 66.61 59.7602H65.7642C65.6617 59.7602 65.5592 59.7602 65.431 59.7859C65.3029 59.7859 65.1491 59.8116 65.021 59.8116H64.6622C64.534 59.8116 64.4571 59.7859 64.4571 59.7088C64.4571 59.6317 64.4828 59.6061 64.5596 59.6061C64.6109 59.6061 64.6878 59.6061 64.7647 59.5804C64.8416 59.5804 64.9184 59.5547 64.9697 59.529C65.0979 59.5033 65.1747 59.4262 65.226 59.3234C65.2516 59.2207 65.3029 59.0665 65.3285 58.861C65.3798 58.6041 65.3798 58.2444 65.4054 57.7562V53.8767V52.6691V51.9241V51.4616C65.4054 51.3588 65.4054 51.2304 65.3798 51.1276C65.3541 50.8964 65.3285 50.7422 65.2516 50.6395C65.2004 50.5367 65.0466 50.4596 64.8416 50.4339C64.7903 50.4339 64.7134 50.4082 64.6365 50.4082H64.4059C64.329 50.4082 64.3034 50.3825 64.3034 50.3055C64.3034 50.2284 64.3802 50.2027 64.5084 50.2027H67.4557C67.5839 50.2027 67.6608 50.2284 67.6608 50.3055C67.6608 50.3568 67.6351 50.3825 67.5583 50.3825H67.3532C67.2763 50.3825 67.1994 50.3825 67.1226 50.4082C66.9175 50.4596 66.7894 50.511 66.7381 50.6138C66.6869 50.7165 66.6356 50.8964 66.6356 51.1276V56.0862H66.6612ZM77.8099 50.3825C77.8868 50.177 77.938 50.0485 77.9893 49.9715C78.0405 49.9201 78.0662 49.8944 78.1174 49.8944C78.1943 49.8944 78.2456 49.9458 78.2712 50.0228C78.2968 50.0999 78.3481 50.2284 78.425 50.3568C78.4762 50.4339 78.5531 50.6651 78.6813 50.9735C78.8094 51.3075 78.9888 51.6928 79.1682 52.1553C79.3476 52.6178 79.5527 53.1316 79.7833 53.6711C80.014 54.2364 80.219 54.7759 80.4497 55.3154C80.6803 55.855 80.8854 56.3688 81.0648 56.857C81.2698 57.3451 81.4236 57.7305 81.5773 58.0645C81.7055 58.3471 81.808 58.5784 81.9105 58.7582C82.013 58.9381 82.1156 59.0665 82.2181 59.1693C82.3206 59.2721 82.3975 59.3491 82.4744 59.3748C82.5513 59.4262 82.6281 59.4519 82.705 59.4519C82.8075 59.4776 82.9101 59.5033 82.9869 59.5033C83.0638 59.5033 83.1664 59.529 83.2176 59.529C83.2689 59.529 83.2945 59.529 83.3201 59.5547C83.3458 59.5804 83.3714 59.6061 83.3714 59.6317C83.3714 59.6831 83.3458 59.7088 83.2945 59.7088C83.2432 59.7345 83.1664 59.7345 83.0895 59.7345H81.7055C81.4748 59.7345 81.2442 59.7345 81.0135 59.7088C80.8854 59.7088 80.7828 59.6831 80.6803 59.6831C80.6034 59.6831 80.5522 59.6574 80.5522 59.6061C80.5522 59.5804 80.5522 59.5547 80.5778 59.5547C80.6034 59.5547 80.6034 59.529 80.6547 59.529C80.706 59.5033 80.7316 59.4776 80.7829 59.4262C80.8341 59.3748 80.8341 59.2977 80.7829 59.195L79.6039 56.2661C79.5783 56.2147 79.527 56.189 79.4758 56.189H76.4515C76.4003 56.189 76.349 56.2147 76.3234 56.2918L75.5801 58.3214C75.452 58.6554 75.3751 58.9381 75.3751 59.1693C75.3751 59.2977 75.4264 59.4005 75.5289 59.4262C75.6314 59.4776 75.7339 59.5033 75.8364 59.5033H75.9646C76.0415 59.5033 76.0927 59.529 76.0927 59.6061C76.0927 59.6831 76.0158 59.7088 75.8877 59.7088H75.5801C75.452 59.7088 75.3495 59.7088 75.2213 59.6831C75.0932 59.6831 74.9907 59.6831 74.8882 59.6574H74.5037C74.4012 59.6574 74.2987 59.6574 74.1705 59.6831C74.0424 59.6831 73.9143 59.6831 73.7605 59.7088C73.6067 59.7345 73.4786 59.7088 73.3504 59.7088C73.171 59.7088 73.0941 59.6831 73.0941 59.6061C73.0941 59.529 73.1454 59.5033 73.2223 59.5033H73.4273C73.5042 59.5033 73.5811 59.5033 73.6323 59.4776C73.9399 59.4262 74.1449 59.3234 74.3243 59.0922C74.4781 58.8867 74.6319 58.6297 74.76 58.2957L77.8099 50.3825ZM79.2707 55.6494C79.322 55.6494 79.322 55.6238 79.322 55.5724L78.0149 52.0782C77.938 51.8984 77.8611 51.8984 77.7842 52.0782L76.5541 55.5724C76.5284 55.6238 76.554 55.6494 76.6053 55.6494H79.2707ZM87.8565 58.0131C87.8565 58.2701 87.8821 58.5013 87.9077 58.6554C87.9334 58.8353 87.959 58.9637 87.9846 59.0922C88.0359 59.195 88.0615 59.2977 88.1384 59.3491C88.1897 59.4005 88.2665 59.4519 88.369 59.4519C88.4972 59.4776 88.6253 59.5033 88.7535 59.5033C88.8816 59.5033 88.9842 59.529 89.0354 59.529C89.1123 59.529 89.1379 59.5547 89.1379 59.6317C89.1379 59.7088 89.061 59.7345 88.9073 59.7345C88.5228 59.7345 88.2153 59.7345 87.9846 59.7088C87.7283 59.6831 87.6002 59.6831 87.5233 59.6831C87.472 59.6831 87.3183 59.6831 87.062 59.7088C86.8057 59.7345 86.5494 59.7345 86.2418 59.7345C86.1137 59.7345 86.0368 59.7088 86.0368 59.6317C86.0368 59.5547 86.0624 59.529 86.1393 59.529C86.1906 59.529 86.2675 59.529 86.37 59.5033C86.4725 59.5033 86.575 59.4776 86.6775 59.4519C86.7544 59.4262 86.8313 59.4005 86.8826 59.3234C86.9338 59.2721 86.9595 59.1693 86.9851 59.0665C87.0107 58.9381 87.0363 58.7839 87.0363 58.6041C87.0363 58.3985 87.062 58.1673 87.062 57.8847V50.5881C87.062 50.3311 87.0876 50.1513 87.1132 50.0742C87.1389 49.9971 87.1901 49.9458 87.2414 49.9458C87.3183 49.9458 87.4208 49.9971 87.4977 50.0999L87.754 50.3568C87.8052 50.4082 87.959 50.5624 88.1897 50.8193C88.4459 51.0762 88.7535 51.4102 89.1379 51.8213C89.5224 52.2324 89.9324 52.6691 90.4194 53.1573C90.9063 53.6454 91.3933 54.1593 91.9059 54.6731C92.239 55.0071 92.5722 55.3411 92.8798 55.7008C93.213 56.0348 93.4949 56.3688 93.8024 56.6771C94.0843 56.9854 94.3406 57.2424 94.5457 57.4736C94.7507 57.7048 94.9045 57.859 95.007 57.9618L94.8788 51.5901C94.8788 51.179 94.8276 50.8964 94.7763 50.7165C94.7251 50.5367 94.5969 50.4339 94.3919 50.4082C94.2637 50.3825 94.1356 50.3825 94.0074 50.3568C93.8793 50.3568 93.7768 50.3311 93.7512 50.3311C93.7255 50.3311 93.6743 50.3055 93.6743 50.2798C93.6743 50.2541 93.6486 50.2284 93.6486 50.2027C93.6486 50.1513 93.7255 50.1256 93.9049 50.1256C94.2125 50.1256 94.4944 50.1256 94.7507 50.1513C95.007 50.1513 95.1864 50.177 95.2633 50.177C95.3402 50.177 95.4939 50.177 95.6733 50.1513C95.8784 50.1513 96.109 50.1256 96.3653 50.1256C96.5191 50.1256 96.596 50.1513 96.596 50.2027C96.596 50.2284 96.596 50.2541 96.5704 50.2798C96.5447 50.3055 96.5191 50.3311 96.4678 50.3311H96.3397C96.2884 50.3311 96.2372 50.3311 96.1347 50.3568C96.0322 50.3825 95.9296 50.4082 95.8784 50.4596C95.8271 50.511 95.7759 50.5881 95.7502 50.6651C95.7246 50.7422 95.699 50.845 95.699 50.9991C95.699 51.1276 95.6733 51.2818 95.6733 51.4873L95.6477 58.9381V59.4262C95.6477 59.5547 95.6477 59.6317 95.6221 59.7088C95.6221 59.7859 95.5965 59.8116 95.5965 59.8373C95.5708 59.863 95.5708 59.863 95.5452 59.863C95.5196 59.863 95.4683 59.863 95.4427 59.8373C95.3914 59.8116 95.3402 59.7859 95.2633 59.7345C95.1864 59.6831 95.0839 59.6061 94.9814 59.5033C94.8788 59.4005 94.7251 59.2721 94.5457 59.0922L94.1612 58.7068L93.3155 57.859C92.9823 57.525 92.6235 57.1653 92.239 56.7542C91.8546 56.3688 91.4702 55.9834 91.137 55.6238C90.7526 55.2127 90.3937 54.8273 90.0349 54.4419C89.6761 54.0565 89.343 53.6968 89.0354 53.3885C88.7279 53.0545 88.4716 52.7719 88.2409 52.5407C88.0102 52.3095 87.8565 52.1296 87.754 52.0268L87.8565 58.0131ZM101.081 53.7996V52.5921V51.847V51.3845C101.081 51.2818 101.081 51.1533 101.055 51.0505C101.03 50.8193 101.004 50.6651 100.927 50.5624C100.876 50.4596 100.722 50.3825 100.517 50.3568C100.466 50.3568 100.389 50.3311 100.312 50.3311H100.082C100.005 50.3311 99.979 50.3055 99.979 50.2284C99.979 50.1513 100.056 50.1256 100.184 50.1256H104.644C105.079 50.1256 105.541 50.177 106.027 50.2541C106.514 50.3311 106.976 50.4853 107.463 50.6908C107.924 50.8964 108.36 51.2047 108.744 51.5901C109.077 51.9241 109.359 52.3608 109.641 52.8747C109.897 53.4142 110.026 54.0565 110.026 54.8016C110.026 55.2127 109.974 55.5724 109.897 55.9321C109.821 56.2918 109.718 56.6258 109.59 56.9084C109.462 57.2167 109.308 57.4736 109.129 57.7305C108.949 57.9874 108.77 58.193 108.59 58.3728C108.462 58.527 108.257 58.6811 108.052 58.861C107.822 59.0408 107.565 59.195 107.232 59.3234C106.899 59.4776 106.54 59.5804 106.104 59.6831C105.669 59.7859 105.182 59.8373 104.618 59.8373C104.336 59.8373 104.028 59.8373 103.695 59.8116C103.362 59.7859 103.055 59.7859 102.773 59.7602C102.491 59.7345 102.234 59.7345 102.029 59.7088C101.824 59.6831 101.722 59.6831 101.696 59.6831H101.158C101.03 59.6831 100.876 59.7088 100.748 59.7088H100.363C100.235 59.7088 100.158 59.6831 100.158 59.6061C100.158 59.529 100.184 59.5033 100.261 59.5033C100.312 59.5033 100.389 59.5033 100.466 59.4776C100.543 59.4776 100.62 59.4519 100.671 59.4262C100.799 59.4005 100.876 59.3234 100.927 59.2207C100.953 59.1179 101.004 58.9637 101.03 58.7582C101.081 58.5013 101.081 58.1416 101.107 57.6534V53.7996H101.081ZM102.286 55.187V57.9361C102.286 58.0902 102.311 58.2701 102.337 58.4499C102.363 58.6297 102.388 58.7582 102.439 58.8353C102.491 58.8867 102.542 58.9637 102.644 59.0151C102.721 59.0665 102.849 59.1179 103.029 59.1693C103.183 59.2207 103.413 59.2464 103.67 59.2977C103.926 59.3234 104.259 59.3491 104.644 59.3491C105.259 59.3491 105.822 59.2464 106.335 59.0665C106.848 58.861 107.309 58.5784 107.719 58.2187C107.898 58.0645 108.027 57.859 108.155 57.6534C108.283 57.4222 108.385 57.191 108.488 56.9084C108.565 56.6514 108.642 56.3688 108.693 56.0605C108.744 55.7779 108.77 55.4696 108.77 55.187C108.77 54.7759 108.719 54.4162 108.642 54.0822C108.565 53.7482 108.462 53.4399 108.334 53.183C108.206 52.9261 108.078 52.6948 107.924 52.4893C107.77 52.2838 107.642 52.1296 107.514 51.9755C107.206 51.6671 106.873 51.4102 106.54 51.2304C106.207 51.0505 105.848 50.8964 105.515 50.7936C105.156 50.6908 104.797 50.6395 104.413 50.5881C104.028 50.5624 103.644 50.5367 103.26 50.5367C103.131 50.5367 102.978 50.5367 102.824 50.5624C102.644 50.5881 102.542 50.6138 102.491 50.6138C102.388 50.6651 102.337 50.7422 102.337 50.8707V55.187H102.286ZM17.6841 73.6597C17.6841 73.3514 17.6841 73.1202 17.6584 72.9403C17.6328 72.7605 17.6072 72.6063 17.5815 72.5036C17.5303 72.4008 17.479 72.3237 17.3765 72.2723C17.2996 72.221 17.1715 72.1696 17.0177 72.1182C16.9664 72.0925 16.8639 72.0925 16.7614 72.0925H16.5051C16.4282 72.0925 16.377 72.0668 16.377 72.0154C16.377 71.9383 16.4539 71.887 16.6076 71.887H17.1459C17.3253 71.887 17.5047 71.887 17.6841 71.9126C17.8378 71.9126 17.9916 71.9126 18.0941 71.9383H18.5042C18.6067 71.9383 18.7605 71.9383 18.8886 71.9126C19.0424 71.9126 19.1962 71.9126 19.35 71.887H19.76C19.9138 71.887 19.9907 71.9383 19.9907 72.0154C19.9907 72.0668 19.9394 72.0925 19.8625 72.0925H19.7088C19.6575 72.0925 19.5806 72.1182 19.5037 72.1182C19.2987 72.1696 19.1705 72.2467 19.0937 72.3751C19.0168 72.5036 18.9655 72.7091 18.9399 72.966C18.9143 73.1973 18.9143 73.4542 18.9143 73.6854V76.5886C18.9143 76.6914 18.9143 76.7685 18.8886 76.8199C18.863 76.8713 18.863 76.9226 18.8374 76.9226C18.8117 76.9483 18.7605 76.974 18.7349 76.9997C18.5042 77.1282 18.2479 77.2309 17.966 77.3337C17.6841 77.4108 17.4021 77.4879 17.1202 77.5393C16.8383 77.5906 16.5564 77.642 16.3001 77.642C16.0438 77.6677 15.7875 77.6677 15.5825 77.6677C15.3006 77.6677 14.9674 77.642 14.5573 77.6163C14.1729 77.5906 13.7628 77.5136 13.3015 77.4108C12.8658 77.308 12.4045 77.1282 11.9688 76.9226C11.5075 76.7171 11.0718 76.4088 10.6617 76.0748C10.431 75.8693 10.2004 75.638 9.99534 75.3297C9.79031 75.0471 9.58527 74.7131 9.4315 74.3534C9.27773 73.9937 9.12395 73.5826 9.04706 73.1716C8.94455 72.7348 8.89329 72.298 8.89329 71.8356C8.89329 71.2447 8.97018 70.6794 9.09832 70.1656C9.22647 69.6517 9.40587 69.1893 9.63653 68.7782C9.86719 68.3671 10.1235 68.0074 10.431 67.6734C10.7386 67.3651 11.0461 67.1082 11.3793 66.877C11.7125 66.6714 12.0713 66.4916 12.4045 66.3631C12.7633 66.2347 13.0965 66.1319 13.4296 66.0805C13.7628 66.0034 14.096 65.9777 14.4292 65.952C14.7623 65.9264 15.0699 65.9264 15.3518 65.9264C15.5825 65.9264 15.8388 65.9264 16.0694 65.952C16.3001 65.9777 16.5308 66.0034 16.7358 66.0291C16.9408 66.0548 17.1202 66.0805 17.2996 66.1062C17.4534 66.1319 17.5815 66.1576 17.6328 66.1576C17.7866 66.209 17.9916 66.2347 18.2223 66.2603C18.4529 66.286 18.658 66.3117 18.8374 66.3117C18.9143 66.3117 18.9655 66.3374 18.9911 66.3631C19.0168 66.3888 19.0168 66.4145 19.0168 66.4402C19.0168 66.4916 19.0168 66.5687 18.9911 66.6457C18.9911 66.7228 18.9655 66.8513 18.9655 67.0311C18.9399 67.1853 18.9399 67.3908 18.9399 67.6477C18.9399 67.9047 18.9143 68.213 18.9143 68.5727C18.9143 68.7011 18.9143 68.7782 18.8886 68.8296C18.863 68.881 18.8374 68.9067 18.7861 68.9067C18.7349 68.9067 18.7092 68.8296 18.6836 68.6754C18.6836 68.5727 18.658 68.4185 18.6067 68.2387C18.5555 68.0588 18.4786 67.879 18.376 67.6991C18.2992 67.5707 18.1454 67.4165 17.9404 67.2623C17.7353 67.1082 17.5047 66.9797 17.1971 66.877C16.9152 66.7742 16.5564 66.6714 16.1719 66.5944C15.7875 66.5173 15.3518 66.4916 14.8649 66.4916C14.6342 66.4916 14.3779 66.4916 14.1216 66.5173C13.8653 66.543 13.609 66.5687 13.3271 66.6457C13.0708 66.7228 12.7889 66.7999 12.507 66.954C12.2251 67.0825 11.9431 67.2624 11.6612 67.4936C11.2255 67.8533 10.8667 68.3414 10.5848 69.0094C10.3029 69.6517 10.1747 70.4225 10.1747 71.3217C10.1747 71.8613 10.226 72.3494 10.3541 72.7862C10.4567 73.2486 10.6104 73.634 10.7642 73.9937C10.918 74.3534 11.0974 74.6617 11.2768 74.893C11.4562 75.1499 11.61 75.3297 11.7381 75.4582C12.3276 76.0491 12.9683 76.4602 13.6347 76.6914C14.301 76.9483 14.9674 77.0511 15.6594 77.0511C15.7875 77.0511 15.9413 77.0511 16.0951 77.0254C16.2488 77.0254 16.4026 76.9997 16.5564 76.974C16.7102 76.9483 16.8639 76.9226 16.9921 76.8713C17.1202 76.8199 17.2484 76.7942 17.3509 76.7171C17.5559 76.6143 17.6584 76.4345 17.6584 76.2033V73.6597H17.6841ZM23.2456 72.632C23.2456 72.1182 23.3481 71.5786 23.5531 70.9877C23.7582 70.3968 24.0657 69.8573 24.5014 69.3691C24.9115 68.881 25.4753 68.4699 26.116 68.1359C26.7824 67.8019 27.5513 67.6477 28.4483 67.6477C29.1915 67.6477 29.8835 67.7505 30.4986 67.9817C31.1393 68.213 31.6775 68.5213 32.1389 68.9323C32.6002 69.3434 32.959 69.8573 33.2409 70.4482C33.4972 71.0391 33.6253 71.7071 33.6253 72.4265C33.6253 73.1459 33.4972 73.8139 33.2409 74.4305C32.9846 75.0728 32.6258 75.6123 32.1645 76.0748C31.7032 76.5373 31.1393 76.9226 30.4986 77.1796C29.8579 77.4622 29.1403 77.5906 28.3458 77.5906C27.4487 77.5906 26.6799 77.4365 26.0391 77.1282C25.3984 76.8199 24.8602 76.4345 24.4501 75.9463C24.0401 75.4582 23.7325 74.9186 23.5275 74.3277C23.3481 73.7882 23.2456 73.1973 23.2456 72.632ZM24.6039 72.298C24.6039 73.0431 24.7064 73.7111 24.9115 74.302C25.1165 74.893 25.424 75.4068 25.7829 75.8179C26.1673 76.229 26.603 76.5629 27.0899 76.7942C27.6025 77.0254 28.1407 77.1282 28.7302 77.1282C29.0377 77.1282 29.3709 77.0768 29.781 76.974C30.1911 76.8713 30.5755 76.6657 30.9343 76.3574C31.3187 76.0491 31.6263 75.6123 31.8826 75.0471C32.1389 74.4819 32.267 73.7368 32.267 72.8376C32.267 72.0925 32.1645 71.3988 31.9338 70.8336C31.7288 70.2427 31.4212 69.7545 31.0624 69.3691C30.7036 68.9837 30.2936 68.6754 29.8066 68.4956C29.3453 68.29 28.8327 68.1873 28.3201 68.1873C27.7819 68.1873 27.2693 68.2643 26.808 68.4442C26.3467 68.624 25.9366 68.881 25.6034 69.215C25.2703 69.549 25.014 69.9857 24.8089 70.4996C24.7064 70.9877 24.6039 71.6043 24.6039 72.298ZM39.0331 73.8139V75.0214C39.0331 75.3554 39.0587 75.638 39.0587 75.8693C39.0843 76.1005 39.11 76.2803 39.1356 76.4088C39.1612 76.5373 39.2125 76.64 39.2894 76.6914C39.3919 76.7942 39.5969 76.8713 39.8532 76.9226C40.1095 76.974 40.5196 76.9997 41.0322 76.9997C41.391 76.9997 41.6985 76.974 41.9548 76.9483C42.2367 76.9226 42.4417 76.7942 42.5955 76.6143C42.6724 76.5116 42.7493 76.4088 42.8006 76.2803C42.8518 76.1519 42.9031 76.0234 42.9031 75.8949C42.9287 75.7922 42.98 75.7408 43.0312 75.7408C43.0825 75.7408 43.1081 75.8179 43.1081 75.9463C43.1081 75.972 43.1081 76.0491 43.0825 76.1519C43.0825 76.2546 43.0568 76.3831 43.0312 76.4859C43.0056 76.6143 42.98 76.7428 42.98 76.8713C42.9543 76.9997 42.9287 77.1282 42.9031 77.2053C42.8774 77.2823 42.8518 77.3594 42.8262 77.3851C42.8006 77.4365 42.7493 77.4622 42.698 77.4879C42.6468 77.5136 42.5699 77.5136 42.4674 77.5393C42.3649 77.5393 42.2367 77.5649 42.0573 77.5649C41.1347 77.5649 40.3914 77.5393 39.7763 77.5136C39.4688 77.5136 39.2125 77.4879 38.9818 77.4879H38.1361C38.1361 77.4879 37.931 77.4879 37.8029 77.5136C37.6747 77.5136 37.521 77.5393 37.3928 77.5393H37.034C36.9059 77.5393 36.829 77.5136 36.829 77.4365C36.829 77.3594 36.8546 77.3337 36.9315 77.3337C36.9828 77.3337 37.0596 77.3337 37.1365 77.308C37.2134 77.308 37.2903 77.2823 37.3416 77.2566C37.4697 77.231 37.5466 77.1539 37.5979 77.0511C37.6235 76.9483 37.6747 76.7942 37.7004 76.5886C37.7516 76.3317 37.7516 75.972 37.7773 75.4839V71.6043V70.3968V69.6517V69.1893C37.7773 69.0865 37.7773 68.958 37.7516 68.8553C37.726 68.624 37.7004 68.4699 37.6235 68.3671C37.5722 68.2643 37.4184 68.1873 37.2134 68.1616C37.1622 68.1616 37.0853 68.1359 37.0084 68.1359H36.7777C36.7008 68.1359 36.6752 68.1102 36.6752 68.0331C36.6752 67.956 36.7521 67.9303 36.8802 67.9303H39.8276C39.9557 67.9303 40.0326 67.956 40.0326 68.0331C40.0326 68.0845 40.007 68.1102 39.9301 68.1102H39.7251C39.6482 68.1102 39.5713 68.1102 39.4944 68.1359C39.2894 68.1873 39.1612 68.2387 39.11 68.3414C39.0587 68.4442 39.0075 68.624 39.0075 68.8553V73.8139H39.0331ZM47.2344 71.5273V70.3197V69.5746V69.1122C47.2344 69.0094 47.2344 68.881 47.2088 68.7782C47.1831 68.547 47.1575 68.3928 47.0806 68.29C47.0294 68.1873 46.8756 68.1102 46.6706 68.0845C46.6193 68.0845 46.5424 68.0588 46.4655 68.0588H46.2349C46.158 68.0588 46.1323 68.0331 46.1323 67.956C46.1323 67.879 46.2092 67.8533 46.3374 67.8533H51.2325C51.3607 67.8533 51.4888 67.8276 51.5913 67.8276C51.6938 67.8276 51.7707 67.8019 51.8476 67.8019C51.8989 67.8019 51.9245 67.7762 51.9501 67.7505C51.9758 67.7248 52.0014 67.7248 52.027 67.7248C52.0783 67.7248 52.1039 67.7762 52.1039 67.8533C52.1039 67.9047 52.1039 67.956 52.0783 68.0588C52.0527 68.1359 52.027 68.2643 52.0014 68.4442V68.5983C52.0014 68.6754 52.0014 68.7525 51.9758 68.8553C51.9758 68.9323 51.9758 69.0351 51.9501 69.1122C51.9501 69.1893 51.9501 69.2407 51.9245 69.292C51.9245 69.3177 51.8989 69.3434 51.8732 69.3691C51.8476 69.3948 51.822 69.4205 51.7964 69.4205C51.7195 69.4205 51.6938 69.3691 51.6938 69.2663C51.6938 69.215 51.6938 69.1379 51.6682 69.0608C51.6426 68.958 51.617 68.881 51.5913 68.8039C51.5401 68.7268 51.4632 68.6497 51.3094 68.547C51.1556 68.4699 50.9506 68.4185 50.6943 68.4185L48.5415 68.3928C48.4646 68.3928 48.439 68.4442 48.439 68.5213V72.0668C48.439 72.0925 48.4646 72.0925 48.5158 72.0925L50.3099 72.0668H50.6174C50.7199 72.0668 50.8225 72.0668 50.8993 72.0411C51.0531 72.0154 51.1813 71.9897 51.2838 71.964C51.3863 71.9383 51.4632 71.887 51.5144 71.8099C51.5913 71.7328 51.6426 71.6814 51.6682 71.6814C51.7195 71.6814 51.7451 71.7071 51.7451 71.7842C51.7451 71.8356 51.7195 71.9126 51.6938 72.0154C51.6682 72.1182 51.6426 72.298 51.617 72.5036C51.5913 72.632 51.5913 72.7862 51.5913 72.9917V73.3514C51.5913 73.4028 51.5913 73.4799 51.5657 73.5313C51.5401 73.5826 51.5144 73.6083 51.4632 73.6083C51.4119 73.6083 51.3863 73.557 51.3863 73.4799C51.3863 73.4028 51.3607 73.3257 51.3607 73.2486C51.3607 73.1716 51.335 73.0945 51.3094 73.0174C51.2838 72.9403 51.2069 72.8376 51.1044 72.7605C51.0019 72.6834 50.8481 72.632 50.6431 72.6063C50.5662 72.6063 50.4124 72.5806 50.2074 72.5806H48.5158C48.4646 72.5806 48.439 72.632 48.439 72.7091V75.4068C48.439 75.895 48.4646 76.2546 48.4902 76.5116C48.5158 76.6914 48.5415 76.8456 48.6184 76.974C48.6696 77.0768 48.7978 77.1539 48.9772 77.1796C49.0797 77.2053 49.1822 77.2053 49.3103 77.2309C49.4385 77.2309 49.5154 77.2566 49.5666 77.2566C49.6435 77.2566 49.6692 77.2823 49.6692 77.3594C49.6692 77.4365 49.5923 77.4622 49.4641 77.4622H48.9003C48.7209 77.4622 48.5415 77.4622 48.3877 77.4365C48.2339 77.4365 48.1058 77.4365 48.0033 77.4108H47.6445C47.5419 77.4108 47.4394 77.4108 47.2856 77.4365C47.1575 77.4365 47.0037 77.4365 46.8756 77.4622H46.5168C46.3886 77.4622 46.3117 77.4365 46.3117 77.3594C46.3117 77.2823 46.3374 77.2566 46.4143 77.2566C46.4655 77.2566 46.5424 77.2566 46.6193 77.2309C46.6962 77.2053 46.7731 77.2053 46.8243 77.2053C46.9525 77.1796 47.0294 77.1282 47.0806 76.9997C47.1062 76.8713 47.1575 76.7171 47.1831 76.5373C47.2344 76.2803 47.2344 75.9206 47.26 75.4325V71.5273H47.2344ZM65.1491 77.6934C64.0214 77.6934 63.0732 77.5649 62.2787 77.2823C61.5098 77.0254 60.8178 76.6143 60.2027 76.0748C59.8439 75.7408 59.5363 75.4068 59.3057 75.0214C59.075 74.6617 58.8956 74.2763 58.7418 73.891C58.6137 73.5056 58.5112 73.1202 58.4599 72.7348C58.4087 72.3494 58.383 71.9897 58.383 71.63C58.383 71.3731 58.4087 71.0905 58.4599 70.7565C58.5112 70.4225 58.5881 70.0628 58.7162 69.7031C58.8444 69.3434 59.0238 68.958 59.2288 68.5983C59.4595 68.213 59.7157 67.879 60.0489 67.545C60.2796 67.3137 60.5103 67.1082 60.8178 66.9284C61.0997 66.7228 61.4329 66.5687 61.7917 66.4145C62.1505 66.286 62.5862 66.1576 63.0475 66.0805C63.5089 66.0034 64.0214 65.952 64.6109 65.952C64.9184 65.952 65.2516 65.952 65.6361 65.9777C66.0205 66.0034 66.4049 66.0548 66.7637 66.1319C67.0457 66.1833 67.3276 66.2347 67.5583 66.2603C67.8145 66.3117 68.0452 66.3374 68.2759 66.3374C68.3527 66.3374 68.404 66.3631 68.4296 66.3888C68.4553 66.4145 68.4553 66.4402 68.4553 66.4916C68.4553 66.543 68.4553 66.6457 68.4296 66.7485C68.404 66.8513 68.404 67.0568 68.3784 67.3137C68.3784 67.4422 68.3528 67.5707 68.3528 67.7248V68.8553C68.3528 69.0608 68.3015 69.1636 68.2246 69.1636C68.1477 69.1636 68.0965 69.0608 68.0965 68.8553C68.0965 68.5727 68.0452 68.29 67.9427 68.0074C67.8402 67.7248 67.6864 67.4936 67.4814 67.3394C67.2251 67.1082 66.815 66.9027 66.2768 66.7485C65.7386 66.5687 65.1491 66.4916 64.4828 66.4916C63.9958 66.4916 63.5601 66.5173 63.1757 66.5944C62.8169 66.6714 62.4837 66.7485 62.2018 66.8513C61.9198 66.954 61.6892 67.0825 61.5098 67.211C61.3304 67.3394 61.151 67.4679 61.0228 67.5963C60.4846 68.1359 60.1258 68.7268 59.9464 69.3691C59.767 70.0114 59.6901 70.7308 59.6901 71.5016C59.6901 72.221 59.8183 72.9146 60.0746 73.557C60.3308 74.225 60.7153 74.7902 61.1766 75.304C61.6379 75.8179 62.2274 76.2033 62.8681 76.5116C63.5345 76.8199 64.2521 76.974 65.0466 76.974C65.6104 76.974 66.123 76.9226 66.5587 76.8199C66.9944 76.7171 67.3532 76.5116 67.6608 76.2033C67.8145 76.0234 67.9427 75.8179 68.0452 75.561C68.1477 75.304 68.199 75.0985 68.2246 74.9443C68.2502 74.7902 68.3015 74.7131 68.3784 74.7131C68.4296 74.7131 68.4553 74.7388 68.4553 74.7902C68.4809 74.8416 68.4809 74.893 68.4809 74.9443C68.4809 74.97 68.4809 75.0728 68.4553 75.2269C68.4296 75.3811 68.404 75.5609 68.3784 75.7665C68.3527 75.972 68.3015 76.1776 68.2759 76.3831C68.2246 76.5886 68.199 76.7428 68.1477 76.8969C68.0965 77.0254 68.0452 77.1282 68.0196 77.1796C67.9939 77.2309 67.8914 77.2823 67.7633 77.3337C67.6095 77.3851 67.4301 77.4365 67.2251 77.4879C67.02 77.5393 66.7894 77.5649 66.5587 77.5906C66.3281 77.6163 66.0718 77.642 65.8155 77.642C65.6361 77.6677 65.3798 77.6934 65.1491 77.6934ZM74.2731 73.8139V75.0214C74.2731 75.3554 74.2987 75.638 74.2987 75.8693C74.3243 76.1005 74.35 76.2803 74.3756 76.4088C74.4012 76.5373 74.4525 76.64 74.5294 76.6914C74.6319 76.7942 74.8369 76.8713 75.0932 76.9226C75.3495 76.974 75.7596 76.9997 76.2721 76.9997C76.6309 76.9997 76.9385 76.974 77.1948 76.9483C77.4767 76.9226 77.6817 76.7942 77.8355 76.6143C77.9124 76.5116 77.9893 76.4088 78.0405 76.2803C78.0918 76.1519 78.1431 76.0234 78.1431 75.8949C78.1687 75.7922 78.2199 75.7408 78.2712 75.7408C78.3225 75.7408 78.3481 75.8179 78.3481 75.9463C78.3481 75.972 78.3481 76.0491 78.3225 76.1519C78.3225 76.2546 78.2968 76.3831 78.2712 76.4859C78.2456 76.6143 78.2199 76.7428 78.2199 76.8713C78.1943 76.9997 78.1687 77.1282 78.1431 77.2053C78.1174 77.2823 78.0918 77.3594 78.0662 77.3851C78.0405 77.4365 77.9893 77.4622 77.938 77.4879C77.8868 77.5136 77.8099 77.5136 77.7074 77.5393C77.6048 77.5393 77.4767 77.5649 77.2973 77.5649C76.3746 77.5649 75.6314 77.5393 75.0163 77.5136C74.7088 77.5136 74.4525 77.4879 74.2218 77.4879H73.376C73.2735 77.4879 73.171 77.4879 73.0429 77.5136C72.9147 77.5136 72.7609 77.5393 72.6328 77.5393H72.274C72.1459 77.5393 72.069 77.5136 72.069 77.4365C72.069 77.3594 72.0946 77.3337 72.1715 77.3337C72.2227 77.3337 72.2996 77.3337 72.3765 77.308C72.4534 77.308 72.5303 77.2823 72.5816 77.2566C72.7097 77.231 72.7866 77.1539 72.8378 77.0511C72.8635 76.9483 72.9147 76.7942 72.9404 76.5886C72.9916 76.3317 72.9916 75.972 73.0172 75.4839V71.6043V70.3968V69.6517V69.1893C73.0172 69.0865 73.0172 68.958 72.9916 68.8553C72.966 68.624 72.9403 68.4699 72.8635 68.3671C72.8122 68.2643 72.6584 68.1873 72.4534 68.1616C72.4021 68.1616 72.3252 68.1359 72.2484 68.1359H72.0177C71.9408 68.1359 71.9152 68.1102 71.9152 68.0331C71.9152 67.956 71.9921 67.9303 72.1202 67.9303H75.0676C75.1957 67.9303 75.2726 67.956 75.2726 68.0331C75.2726 68.0845 75.247 68.1102 75.1701 68.1102H74.965C74.8882 68.1102 74.8113 68.1102 74.7344 68.1359C74.5294 68.1873 74.4012 68.2387 74.35 68.3414C74.2987 68.4442 74.2474 68.624 74.2474 68.8553V73.8139H74.2731ZM81.5773 71.5273V70.3197V69.5746V69.1122C81.5773 69.0094 81.5774 68.881 81.5517 68.7782C81.5261 68.5727 81.5005 68.4185 81.4236 68.29C81.3723 68.1616 81.2185 68.0845 81.0135 68.0588C80.9623 68.0588 80.8854 68.0331 80.8085 68.0331H80.5778C80.5009 68.0331 80.4753 68.0074 80.4753 67.9303C80.4753 67.8533 80.5522 67.8276 80.6803 67.8276H83.5252C83.6789 67.8276 83.7558 67.8533 83.7558 67.9303C83.7558 68.0074 83.7046 68.0331 83.6277 68.0331H83.4739C83.4226 68.0331 83.3714 68.0331 83.2945 68.0588C83.1151 68.0845 83.0126 68.1616 82.9613 68.2644C82.9101 68.3671 82.8588 68.547 82.8588 68.7525C82.8588 68.8553 82.8332 68.958 82.8332 69.0865V73.2743C82.8332 73.7368 82.8588 74.1222 82.9101 74.4562C82.9613 74.7902 83.0382 75.0728 83.1151 75.3297C83.192 75.5866 83.2945 75.7665 83.4226 75.9463C83.5508 76.1005 83.6789 76.2546 83.8071 76.3831C84.1146 76.6657 84.4478 76.8713 84.7297 76.9483C85.0373 77.0254 85.3705 77.0768 85.7549 77.0768C86.165 77.0768 86.5494 76.9997 86.9082 76.8199C87.267 76.6657 87.5489 76.4345 87.7796 76.1776C88.0871 75.8179 88.2922 75.3811 88.3947 74.8673C88.4972 74.3534 88.5485 73.7625 88.5485 73.1202V71.5273V70.3197V69.5746C88.5485 69.3691 88.5485 69.215 88.5228 69.1122V68.7782C88.5228 68.5727 88.4716 68.4185 88.4203 68.29C88.3691 68.1616 88.2153 68.0845 88.0102 68.0588C87.959 68.0588 87.8821 68.0331 87.8052 68.0331H87.5746C87.4977 68.0331 87.472 68.0074 87.472 67.9303C87.472 67.8533 87.5489 67.8276 87.6771 67.8276H89.0867C89.1379 67.8276 89.2917 67.8276 89.5224 67.8019C89.7786 67.8019 89.9837 67.7762 90.1887 67.7762C90.3169 67.7762 90.3938 67.8019 90.3938 67.879C90.3938 67.956 90.3681 67.9817 90.2912 67.9817H90.1375C90.0862 67.9817 90.0349 67.9817 89.9581 68.0074C89.7787 68.0588 89.6505 68.1102 89.5993 68.2387C89.548 68.3414 89.4967 68.4956 89.4967 68.7268C89.4967 68.8296 89.4711 68.9323 89.4711 69.0608V72.8376C89.4711 73.1973 89.4455 73.5313 89.4198 73.891C89.3942 74.2506 89.343 74.5846 89.2404 74.9186C89.1636 75.2526 89.0354 75.5609 88.856 75.8693C88.7022 76.1776 88.4972 76.4345 88.2409 76.64C88.0102 76.8456 87.754 77.0254 87.5233 77.1282C87.267 77.2566 87.0363 77.3337 86.8057 77.4108C86.575 77.4879 86.3444 77.5136 86.1137 77.5393C85.883 77.5649 85.678 77.5649 85.4986 77.5649C85.3961 77.5649 85.2423 77.5649 85.0117 77.5393C84.8066 77.5393 84.576 77.4879 84.3197 77.4365C84.0634 77.3851 83.8071 77.2823 83.5252 77.1796C83.2432 77.0511 83.0126 76.8969 82.7819 76.6657C82.6281 76.5116 82.4744 76.3317 82.3462 76.1519C82.2181 75.9463 82.0899 75.7408 81.9874 75.4582C81.8849 75.2013 81.808 74.893 81.7311 74.5333C81.6799 74.1736 81.6542 73.7625 81.6542 73.3V71.5273H81.5773ZM94.6994 71.5273V70.3197V69.5746V69.1122C94.6994 69.0094 94.6994 68.881 94.6738 68.7782C94.6482 68.547 94.6226 68.3928 94.5457 68.2644C94.4944 68.1359 94.3406 68.0588 94.1356 68.0331C94.0843 68.0331 94.0075 68.0074 93.9306 68.0074H93.6999C93.623 68.0074 93.5974 67.9817 93.5974 67.9303C93.5974 67.8533 93.6743 67.8276 93.8024 67.8276H95.3402C95.4939 67.8276 95.7246 67.8276 96.0065 67.8019C96.2884 67.8019 96.5704 67.7762 96.8779 67.7762C97.4161 67.7762 97.8774 67.8533 98.2362 67.9817C98.5951 68.1102 98.877 68.29 99.082 68.4956C99.287 68.7011 99.4408 68.9067 99.5177 69.1379C99.5946 69.3691 99.6458 69.549 99.6458 69.7288C99.6458 69.9857 99.6202 70.217 99.5433 70.4225C99.4664 70.628 99.3639 70.8336 99.2358 71.0134C99.1076 71.1933 98.9795 71.3474 98.8001 71.5273C98.6463 71.6814 98.4669 71.8356 98.3131 71.9897C98.5694 72.0668 98.8257 72.1953 99.1076 72.3237C99.3896 72.4779 99.6202 72.6577 99.8509 72.889C100.082 73.1202 100.261 73.3771 100.415 73.6597C100.568 73.9423 100.645 74.2763 100.645 74.636C100.645 74.9957 100.568 75.3554 100.44 75.6894C100.312 76.0234 100.107 76.3317 99.8252 76.5886C99.5433 76.8456 99.2102 77.0768 98.8001 77.2309C98.39 77.3851 97.9031 77.4622 97.3392 77.4622H96.8266C96.6216 77.4622 96.391 77.4365 96.1859 77.4365C95.9809 77.4365 95.8015 77.4108 95.6221 77.4108H94.8019C94.6738 77.4108 94.52 77.4365 94.3919 77.4365H94.0074C93.8793 77.4365 93.8024 77.4108 93.8024 77.3337C93.8024 77.2823 93.828 77.2566 93.9049 77.2566C93.9562 77.2566 94.0331 77.2566 94.11 77.2309C94.1869 77.2053 94.2637 77.2053 94.315 77.2053C94.4431 77.1796 94.52 77.1025 94.5713 76.974C94.5969 76.8456 94.6482 76.6914 94.6738 76.4859C94.7251 76.229 94.7251 75.8693 94.7507 75.3811V71.5273H94.6994ZM95.8271 71.8099C95.8271 71.887 95.8527 71.9383 95.904 71.9383C95.9553 71.9383 96.0322 71.964 96.1603 71.964C96.2884 71.9897 96.4678 71.9897 96.7241 71.9897C97.0829 71.9897 97.3649 71.964 97.5443 71.9383C97.7237 71.9126 97.8774 71.8099 98.0056 71.6557C98.1337 71.5016 98.2619 71.296 98.3644 71.0905C98.4669 70.8593 98.5182 70.6023 98.5182 70.294C98.5182 70.0628 98.4925 69.8059 98.4156 69.5746C98.3388 69.3177 98.2363 69.1122 98.0825 68.9067C97.9287 68.7011 97.7493 68.547 97.5186 68.4185C97.288 68.29 97.0061 68.2387 96.6729 68.2387C96.596 68.2387 96.4935 68.2387 96.3653 68.2644C96.2372 68.2644 96.109 68.29 96.0065 68.3157C95.904 68.3414 95.8527 68.3928 95.8527 68.4442V71.8099H95.8271ZM95.8271 73.1973V75.9206C95.8271 76.0748 95.8527 76.2033 95.8527 76.306C95.8527 76.4088 95.8784 76.4859 95.904 76.563C95.9296 76.64 95.9809 76.6914 96.0322 76.7428C96.0834 76.7942 96.1603 76.8456 96.2628 76.8969C96.4422 76.974 96.6472 77.0254 96.8779 77.0511C97.1086 77.0768 97.288 77.0768 97.4161 77.0768C97.6468 77.0768 97.8518 77.0511 98.0825 76.9997C98.3131 76.9483 98.5182 76.8456 98.6976 76.7171C98.877 76.563 99.0307 76.3831 99.1589 76.1262C99.287 75.8693 99.3383 75.5353 99.3383 75.1242C99.3383 74.9957 99.3127 74.8159 99.287 74.6103C99.2614 74.4048 99.1845 74.1993 99.1076 73.9937C99.0308 73.7882 98.9026 73.557 98.7232 73.3771C98.5694 73.1716 98.3388 72.9917 98.0825 72.8119C97.8518 72.6834 97.6468 72.5806 97.4417 72.555C97.2367 72.5293 97.0573 72.5036 96.9035 72.4779C96.8523 72.4779 96.801 72.4522 96.6985 72.4522H95.8527C95.8015 72.4522 95.7759 72.4779 95.7759 72.5293V73.1973H95.8271Z" fill="#5D6135"/>
<path d="M71.9406 17.1624C70.736 20.374 67.4812 22.6606 63.6368 22.6606H63.1755C60.6638 22.5835 57.9728 21.4787 55.743 18.704C51.0529 12.8205 42.9541 15.7751 40.75 17.5478C38.5716 19.2949 38.0846 20.5795 37.4439 22.2238C37.162 22.8918 36.3418 22.8918 36.1624 21.9669C35.1373 15.3383 38.3409 7.88753 43.9537 3.87954C51.0529 -1.20753 58.024 -0.411068 62.8679 1.43877C66.251 2.72339 68.8651 5.13846 70.4285 7.11677C72.7351 9.9943 73.4784 13.7454 71.9406 17.1624ZM63.5855 10.5852C62.8936 10.0971 62.1759 9.63461 61.3814 9.17215C50.4378 3.18585 42.0315 11.2532 42.0315 11.2532C48.5669 7.27092 54.846 7.45077 60.4332 10.4825C60.792 10.688 61.1508 10.8935 61.5096 11.1248C63.7906 12.4351 66.6098 14.4648 68.4551 17.0597C68.4551 17.0597 67.6862 13.4371 63.5855 10.5852ZM39.2892 22.7634C40.4937 19.5518 43.7486 17.2652 47.593 17.2652H48.0543C50.566 17.3423 53.257 18.4471 55.4867 21.2218C60.1769 27.1053 68.2757 24.1507 70.4798 22.378C72.6582 20.6309 73.1452 19.3463 73.7859 17.702C74.0678 17.034 74.888 17.034 75.0674 17.9589C76.0925 24.5875 72.8889 32.0383 67.2761 36.0463C60.1769 41.1333 53.2058 40.3369 48.3619 38.487C44.9788 37.2024 42.3647 34.7873 40.8013 32.809C38.4947 29.9315 37.7514 26.1804 39.2892 22.7634ZM47.6442 29.3406C48.3362 29.8287 49.0538 30.2912 49.8483 30.7537C60.792 36.7399 69.1983 28.6726 69.1983 28.6726C62.6629 32.6549 56.3838 32.475 50.7966 29.4433C50.4378 29.2378 50.079 29.0323 49.7202 28.801C47.4392 27.4907 44.62 25.461 42.7747 22.8661C42.7747 22.8661 43.5436 26.5144 47.6442 29.3406Z" fill="#BABF10"/>
<path d="M44.5175 87.0968V86.5059V86.1462V85.9149V85.7608C44.5175 85.658 44.4918 85.5809 44.4662 85.5295C44.4406 85.4782 44.3637 85.4525 44.2612 85.4268C44.2355 85.4268 44.2099 85.4011 44.1587 85.4011H44.0561C44.0305 85.4011 44.0049 85.4011 44.0049 85.3754C44.0049 85.3497 44.0305 85.324 44.1074 85.324H45.4657C45.722 85.324 45.9271 85.3497 46.0808 85.4268C46.2346 85.5038 46.3628 85.5809 46.4653 85.6837C46.5678 85.7865 46.619 85.8892 46.6447 85.992C46.6703 86.0948 46.6959 86.1975 46.6959 86.2746C46.6959 86.4031 46.6703 86.5058 46.6447 86.6086C46.619 86.7114 46.5678 86.8142 46.5165 86.8912C46.4653 86.9683 46.3884 87.0711 46.3371 87.1482C46.2602 87.2252 46.209 87.3023 46.1321 87.3794C46.2346 87.4051 46.3628 87.4822 46.4909 87.5335C46.619 87.6106 46.7216 87.6877 46.8241 87.7905C46.9266 87.8932 47.0035 88.0217 47.0804 88.1758C47.1573 88.33 47.1829 88.4842 47.1829 88.664C47.1829 88.8182 47.1573 88.998 47.0804 89.1522C47.0035 89.3063 46.9266 89.4605 46.7985 89.5889C46.6703 89.7174 46.5165 89.8201 46.3115 89.8972C46.1065 89.9743 45.9014 90.0257 45.6195 90.0257H45.1838C45.1069 90.0257 45.0044 90 44.9275 90H44.7994H44.2355C44.1587 90 44.133 89.9743 44.133 89.9486C44.133 89.9229 44.1587 89.9229 44.1843 89.9229H44.2868C44.3124 89.9229 44.3381 89.9229 44.3893 89.8972C44.4406 89.8972 44.4918 89.8458 44.5175 89.7945C44.5431 89.7431 44.5687 89.666 44.5687 89.5632C44.5944 89.4348 44.5944 89.2549 44.5944 89.0237V87.0968H44.5175ZM45.0044 87.2252C45.0044 87.2509 45.03 87.2766 45.0557 87.3023C45.0813 87.3023 45.1069 87.3023 45.1838 87.328H45.6451C45.6964 87.328 45.7477 87.328 45.7989 87.3023C45.8502 87.3023 45.8758 87.2766 45.9014 87.2509C45.9271 87.2252 45.9527 87.1995 46.004 87.1738C46.0808 87.0968 46.1321 87.0197 46.1577 86.9169C46.209 86.8142 46.209 86.6857 46.209 86.5572C46.209 86.4288 46.1834 86.3003 46.1577 86.1718C46.1321 86.0434 46.0808 85.9406 46.004 85.8379C45.9271 85.7351 45.8502 85.658 45.7477 85.6066C45.6451 85.5552 45.517 85.5038 45.3632 85.5038H45.2351C45.1838 85.5038 45.1326 85.5038 45.0813 85.5295C45.03 85.5295 45.0044 85.5552 45.0044 85.6066V87.2252ZM45.0044 87.8675V89.3577C45.0044 89.4091 45.03 89.4605 45.03 89.4861C45.0557 89.5118 45.0557 89.5632 45.0813 89.5632C45.1069 89.5889 45.1326 89.6146 45.1838 89.6403C45.2351 89.666 45.2607 89.666 45.312 89.6917C45.3632 89.6917 45.4145 89.7174 45.4657 89.7174H45.6964C45.7733 89.7174 45.8758 89.6917 45.9783 89.666C46.0808 89.6403 46.1834 89.5889 46.2602 89.5375C46.3371 89.4605 46.414 89.3834 46.4909 89.2806C46.5422 89.1778 46.5678 89.0237 46.5678 88.8438C46.5678 88.7668 46.5678 88.664 46.5422 88.5355C46.5165 88.4328 46.4909 88.3043 46.4396 88.2015C46.3884 88.0988 46.3371 87.996 46.2602 87.8932C46.1834 87.7905 46.0808 87.6877 45.9783 87.6106C45.8758 87.5335 45.7733 87.5078 45.6964 87.4822C45.6195 87.4565 45.5426 87.4565 45.4657 87.4308H45.0044C44.9788 87.4308 44.9788 87.4565 44.9788 87.4822V87.8675H45.0044ZM51.1041 86.0948C51.1298 86.0177 51.1554 85.9663 51.181 85.9406C51.2067 85.9149 51.2067 85.9149 51.2323 85.9149C51.2579 85.9149 51.2835 85.9406 51.3092 85.9663C51.3348 85.992 51.3348 86.0434 51.3604 86.0948C51.3861 86.1205 51.4117 86.2232 51.4629 86.3517C51.5142 86.4802 51.5911 86.66 51.668 86.8398C51.7449 87.0197 51.8218 87.2252 51.9243 87.4565C52.0268 87.6877 52.1037 87.8932 52.2062 88.1245C52.2831 88.3557 52.3856 88.5612 52.4625 88.7411C52.5394 88.9466 52.6163 89.1008 52.6675 89.2292C52.7188 89.3577 52.77 89.4348 52.7957 89.5118C52.8469 89.5889 52.8725 89.6403 52.9238 89.666C52.9751 89.7174 53.0007 89.7431 53.0263 89.7431C53.0519 89.7688 53.0776 89.7688 53.1288 89.7688C53.1801 89.7688 53.2057 89.7945 53.257 89.7945H53.4108C53.4364 89.7945 53.4364 89.8202 53.4364 89.8202C53.4364 89.8458 53.4364 89.8458 53.4108 89.8458H52.36C52.3343 89.8458 52.3087 89.8458 52.3087 89.8202V89.7945C52.3087 89.7945 52.3343 89.7945 52.3343 89.7688C52.36 89.7688 52.36 89.7431 52.3856 89.7174C52.4112 89.6917 52.4112 89.666 52.3856 89.6146L51.8986 88.4328C51.8986 88.4071 51.873 88.4071 51.8474 88.4071H50.6172C50.5916 88.4071 50.5659 88.4328 50.5659 88.4585L50.2584 89.2806C50.2071 89.4091 50.1815 89.5375 50.1815 89.6403C50.1815 89.6917 50.2071 89.7174 50.2327 89.7431C50.284 89.7688 50.3096 89.7688 50.3609 89.7688H50.4122C50.4378 89.7688 50.4634 89.7945 50.4634 89.8202C50.4634 89.8458 50.4378 89.8715 50.3865 89.8715H49.8996H49.3614C49.2845 89.8715 49.2588 89.8458 49.2588 89.8202C49.2588 89.7945 49.2845 89.7688 49.3101 89.7688H49.4639C49.592 89.7431 49.6689 89.6917 49.7458 89.6146C49.7971 89.5375 49.8739 89.4091 49.9252 89.2806L51.1041 86.0948ZM51.6936 88.2529C51.7192 88.2529 51.7192 88.2529 51.7192 88.2272L51.181 86.8142C51.1554 86.7371 51.1298 86.7371 51.0785 86.8142L50.5659 88.2272C50.5659 88.2529 50.5659 88.2529 50.5916 88.2529H51.6936ZM56.0505 87.5078V87.0197V86.7114V86.5315V86.4031C56.0505 86.326 56.0249 86.2489 55.9993 86.1975C55.9737 86.1462 55.9224 86.1205 55.8199 86.1205H55.6405C55.6149 86.1205 55.5892 86.0948 55.5892 86.0691C55.5892 86.0434 55.6149 86.0177 55.6661 86.0177H56.8194C56.8707 86.0177 56.8963 86.0434 56.8963 86.0691C56.8963 86.0948 56.8707 86.1205 56.8451 86.1205H56.7169C56.64 86.1462 56.5888 86.1718 56.5888 86.1975C56.5631 86.2489 56.5375 86.3003 56.5375 86.4031V87.8161H56.5631C56.5631 87.7905 56.6144 87.7648 56.6656 87.7134L56.8707 87.5078L57.127 87.2509L57.4089 86.9683L57.6396 86.7371L57.7933 86.5829L57.9984 86.3774C58.0496 86.326 58.0752 86.2489 58.0752 86.2232C58.0752 86.1718 58.0496 86.1205 57.9984 86.1205C57.9727 86.1205 57.9471 86.0948 57.9471 86.0691C57.9471 86.0434 57.9727 86.0434 57.9984 86.0434H58.921C58.9723 86.0434 58.9979 86.0434 58.9979 86.0691C58.9979 86.0948 58.9723 86.1205 58.9466 86.1205C58.8954 86.1205 58.8697 86.1205 58.8185 86.1462C58.7672 86.1718 58.716 86.1718 58.6647 86.1975C58.5622 86.2489 58.4597 86.3003 58.3828 86.3774C58.3059 86.4545 58.2034 86.5315 58.1009 86.6343C58.0752 86.66 58.024 86.6857 57.9727 86.7628L57.7677 86.9683C57.6908 87.0454 57.5883 87.1225 57.5114 87.2252L57.2551 87.4822L57.0501 87.6877L56.9219 87.8161L57.0757 87.9703L57.332 88.2272L57.6396 88.5355L57.9471 88.8438C58.0496 88.9466 58.1521 89.0237 58.229 89.1008L58.4084 89.2806C58.5109 89.3834 58.6135 89.4605 58.6903 89.5375C58.7672 89.5889 58.8185 89.6403 58.8697 89.6917C58.921 89.7431 58.9723 89.7688 59.0235 89.7945L59.1773 89.8715C59.2542 89.8972 59.3054 89.9229 59.3823 89.9229C59.4592 89.9229 59.4848 89.9486 59.5105 89.9486C59.5617 89.9486 59.5874 89.9743 59.5874 90C59.5874 90 59.5874 90.0257 59.5617 90.0257H58.8185C58.7416 90.0257 58.6903 90 58.6391 90L58.4853 89.9229C58.4341 89.8972 58.3828 89.8715 58.3315 89.8202C58.2803 89.7945 58.229 89.7431 58.1778 89.6917C58.1265 89.666 58.0752 89.6146 57.9984 89.5118L57.7164 89.2292L57.3833 88.8952C57.2551 88.7668 57.1526 88.664 57.0501 88.5355C56.9476 88.4328 56.8451 88.33 56.7682 88.2272C56.6913 88.1245 56.6144 88.0731 56.5888 87.996H56.5631V89.1778C56.5631 89.3834 56.5631 89.5118 56.5888 89.6403C56.5888 89.7174 56.6144 89.7688 56.64 89.8202C56.6656 89.8715 56.7169 89.8972 56.7938 89.8972C56.8194 89.8972 56.8707 89.9229 56.8963 89.9229H56.9988C57.0245 89.9229 57.0501 89.9486 57.0501 89.9743C57.0501 90 57.0245 90.0257 56.9732 90.0257H56.3325H55.8199C55.7686 90.0257 55.743 90 55.743 89.9743C55.743 89.9486 55.7686 89.9229 55.7943 89.9229H55.8711C55.8968 89.9229 55.9224 89.9229 55.948 89.8972C55.9993 89.8972 56.0249 89.8458 56.0505 89.8202C56.0762 89.7688 56.0762 89.7174 56.1018 89.6403C56.1274 89.5375 56.1274 89.3834 56.1274 89.1778V87.5078H56.0505ZM61.8171 87.5078V87.0197V86.7114V86.5315V86.4031C61.8171 86.326 61.7915 86.2489 61.7658 86.1975C61.7402 86.1462 61.6889 86.1205 61.5864 86.0948H61.407C61.3814 86.0948 61.3558 86.0691 61.3558 86.0434C61.3558 86.0177 61.3814 85.992 61.4327 85.992H62.586C62.6372 85.992 62.6885 86.0177 62.6885 86.0434C62.6885 86.0691 62.6628 86.0948 62.6372 86.0948H62.5091C62.4322 86.0948 62.4066 86.1462 62.3809 86.1718C62.3553 86.2232 62.3553 86.2746 62.3297 86.3774V88.2015C62.3297 88.3814 62.3297 88.5612 62.3553 88.6897C62.3809 88.8182 62.4066 88.9466 62.4322 89.0494C62.4578 89.1522 62.5091 89.2292 62.5603 89.3063C62.6116 89.3834 62.6629 89.4348 62.7141 89.4861C62.8423 89.6146 62.9704 89.6917 63.0985 89.7174C63.2267 89.7431 63.3548 89.7688 63.5086 89.7688C63.688 89.7688 63.8418 89.7431 63.9699 89.666C64.1237 89.5889 64.2262 89.5118 64.3287 89.4091C64.4569 89.2549 64.5338 89.0751 64.585 88.8695C64.6363 88.664 64.6363 88.4328 64.6363 88.1502V87.5078V87.0197V86.7114V86.5315V86.4031C64.6363 86.326 64.6107 86.2489 64.585 86.1975C64.5594 86.1462 64.5081 86.1205 64.4056 86.0948H64.2262C64.2006 86.0948 64.175 86.0691 64.175 86.0434C64.175 86.0177 64.2006 85.992 64.2519 85.992H65.277C65.3283 85.992 65.3539 86.0177 65.3539 86.0434C65.3539 86.0691 65.3283 86.0948 65.3026 86.0948H65.1745C65.0976 86.1205 65.0464 86.1462 65.0207 86.1975C64.9951 86.2489 64.9951 86.3003 64.9695 86.4031V88.0731C64.9695 88.2272 64.9695 88.3557 64.9438 88.5098C64.9438 88.664 64.9182 88.7925 64.867 88.9209C64.8413 89.0494 64.7901 89.1778 64.7132 89.3063C64.6363 89.4348 64.5594 89.5375 64.4569 89.6146C64.3544 89.6917 64.2519 89.7688 64.1493 89.8202C64.0468 89.8715 63.9443 89.8972 63.8674 89.9229C63.7649 89.9486 63.688 89.9743 63.5855 89.9743H63.1242C63.0473 89.9743 62.9448 89.9486 62.8423 89.9229C62.7397 89.8972 62.6372 89.8715 62.5091 89.8202C62.4066 89.7688 62.304 89.6917 62.2015 89.6146C62.1246 89.5632 62.0734 89.4862 62.0221 89.4091C61.9709 89.332 61.9196 89.2292 61.8683 89.1265C61.8171 89.0237 61.7915 88.8952 61.7658 88.7411C61.7402 88.5869 61.7402 88.4328 61.7402 88.2272V87.5078H61.8171Z" fill="#5D6135"/>
</g>
<defs>
<clipPath id="clip0_1_474">
<rect width="110" height="90" fill="white"/>
</clipPath>
</defs>
</svg>
