<svg width="218" height="90" viewBox="0 0 218 90" fill="none" xmlns="http://www.w3.org/2000/svg">
<path d="M138.438 18.7306V42.7749H133.731V27.8303H133.664L127.83 38.1919H124.78L118.945 27.8303H118.879V42.7749H114.039V18.7306H118.813L126.172 32.4133H126.239L133.598 18.7306H138.438Z" fill="url(#paint0_linear_1_452)"/>
<path d="M158.594 35.9336H146.991C147.521 37.9262 149.112 39.1218 151.234 39.1218C153.024 39.1882 154.284 38.3912 155.212 37.262L158.063 39.9188C156.671 41.7122 154.218 43.0406 150.903 43.0406C146.063 43.0406 142.416 39.6531 142.416 34.4723C142.416 29.4244 145.93 25.9705 150.637 25.9705C155.477 25.9705 158.726 29.4908 158.726 34.3395C158.726 34.9373 158.726 35.6679 158.594 35.9336ZM146.991 32.7454H154.284C153.82 31.0185 152.626 29.8893 150.704 29.8893C148.98 29.8893 147.521 30.8856 146.991 32.7454Z" fill="url(#paint1_linear_1_452)"/>
<path d="M178.617 17.8672V42.8413H174.374V40.8487H174.308C173.18 42.31 171.457 43.107 169.202 43.107C164.628 43.107 161.312 39.7196 161.312 34.6052C161.312 29.5572 164.694 26.0369 169.07 26.0369C171.125 26.0369 172.849 26.7675 174.042 28.1624H174.175V17.8672H178.617ZM174.44 34.6052C174.44 31.9483 172.584 29.9557 170.064 29.9557C167.677 29.9557 165.821 31.7491 165.821 34.6052C165.821 37.262 167.611 39.1218 170.064 39.1218C172.517 39.1218 174.44 37.3284 174.44 34.6052Z" fill="url(#paint2_linear_1_452)"/>
<path d="M182.794 21.1882C182.794 19.7269 184.054 18.4649 185.512 18.4649C187.037 18.4649 188.297 19.6605 188.297 21.1882C188.297 22.7159 187.037 23.9114 185.512 23.9114C184.054 23.9114 182.794 22.7159 182.794 21.1882ZM183.324 26.2362H187.767V42.7749H183.324V26.2362Z" fill="url(#paint3_linear_1_452)"/>
<path d="M208.652 26.2362V42.7749H204.475V40.7823H204.342C203.215 42.2436 201.557 43.0406 199.369 43.0406C194.795 43.0406 191.479 39.6531 191.479 34.5388C191.479 29.4908 194.861 25.9705 199.237 25.9705C201.226 25.9705 202.883 26.7011 204.077 28.096H204.209V26.2362H208.652ZM204.408 34.6052C204.408 31.9483 202.618 29.9557 200.231 29.9557C197.844 29.9557 195.988 31.7491 195.988 34.6052C195.988 37.262 197.778 39.1218 200.231 39.1218C202.486 39.1218 204.408 37.3284 204.408 34.6052Z" fill="url(#paint4_linear_1_452)"/>
<path d="M131.808 64.9594C131.808 68.8118 129.222 71.6015 123.984 71.6015H114.039V47.4908H122.725C127.83 47.4908 130.548 49.5498 130.548 53.3358C130.548 55.5277 129.554 57.7196 126.902 58.7159V58.7823C130.084 59.5793 131.808 61.7712 131.808 64.9594ZM118.746 57.3874H122.194C124.117 57.3874 125.841 56.524 125.841 54.5314C125.841 52.8044 124.714 51.7417 121.929 51.7417H118.813V57.3874H118.746ZM126.835 64.3616C126.835 62.4354 125.443 61.2398 122.592 61.2398H118.68V67.417H122.526C125.111 67.417 126.835 66.4207 126.835 64.3616Z" fill="url(#paint5_linear_1_452)"/>
<path d="M151.632 55.0627V71.6015H147.455V69.6089H147.322C146.195 71.0701 144.538 71.8672 142.35 71.8672C137.775 71.8672 134.46 68.4797 134.46 63.3653C134.46 58.3173 137.841 54.797 142.217 54.797C144.206 54.797 145.864 55.5277 147.057 56.9225H147.19V55.0627H151.632ZM147.455 63.3653C147.455 60.7085 145.665 58.7159 143.278 58.7159C140.891 58.7159 139.035 60.5092 139.035 63.3653C139.035 66.0221 140.825 67.8819 143.278 67.8819C145.532 67.8819 147.455 66.0886 147.455 63.3653Z" fill="url(#paint6_linear_1_452)"/>
<path d="M156.207 46.6273H160.649V71.6015H156.207V46.6273Z" fill="url(#paint7_linear_1_452)"/>
<path d="M181.534 55.0627V71.6015H177.357V69.6089H177.225C176.098 71.0701 174.44 71.8672 172.252 71.8672C167.677 71.8672 164.362 68.4797 164.362 63.3653C164.362 58.3173 167.744 54.797 172.12 54.797C174.109 54.797 175.766 55.5277 176.96 56.9225H177.092V55.0627H181.534ZM177.291 63.3653C177.291 60.7085 175.501 58.7159 173.114 58.7159C170.727 58.7159 168.871 60.5092 168.871 63.3653C168.871 66.0221 170.661 67.8819 173.114 67.8819C175.368 67.8819 177.291 66.0886 177.291 63.3653Z" fill="url(#paint8_linear_1_452)"/>
<path d="M201.623 61.7712V71.6015H197.181V62.9004C197.181 59.7786 196.054 58.7823 193.999 58.7823C191.744 58.7823 190.22 60.31 190.22 63.2989V71.6679H185.777V55.0627H190.22V57.1882H190.286C191.612 55.5941 193.535 54.797 195.59 54.797C199.17 54.797 201.623 56.6568 201.623 61.7712Z" fill="url(#paint9_linear_1_452)"/>
<path d="M204.541 69.476L206.729 66.4207C208.055 67.6827 209.514 68.3469 211.304 68.3469C212.564 68.3469 213.359 67.8155 213.359 67.0184C213.359 66.2214 212.497 65.8893 210.376 65.1587C207.657 64.2288 205.27 62.9668 205.27 59.7786C205.27 56.7897 207.856 54.797 211.237 54.797C213.558 54.797 215.415 55.3948 217.271 56.8561L215.149 60.1107C213.89 58.9151 212.431 58.3173 211.171 58.3173C210.442 58.3173 209.514 58.7159 209.514 59.5793C209.514 60.2435 210.376 60.7085 212.033 61.3727C215.613 62.7011 217.735 63.4981 217.735 66.7528C217.735 69.6753 215.613 71.9336 211.304 71.9336C208.585 71.8672 206.331 71.0037 204.541 69.476Z" fill="url(#paint10_linear_1_452)"/>
<path d="M11.0728 89.7343H66.9651C81.7504 89.7343 93.751 77.7122 93.751 62.9004C93.751 48.0886 81.7504 36.0664 66.9651 36.0664C62.0588 36.0664 58.0144 40.1181 58.0144 45.0332C58.0144 49.9483 62.0588 54 66.9651 54C71.8715 54 75.8496 57.9852 75.8496 62.9004C75.8496 67.8155 71.8715 71.8007 66.9651 71.8007H6.63059C6.63059 71.8007 2.12207 75.8524 2.12207 80.7675C2.12207 85.6827 6.16647 89.7343 11.0728 89.7343Z" fill="url(#paint11_linear_1_452)"/>
<path d="M6.6306 18.3985H66.6999C71.3411 18.3985 75.2529 21.786 75.7833 26.2362C76.1811 29.8893 74.3909 33.3432 71.2085 35.0701C77.7723 36.0664 83.6069 39.321 87.8502 44.0369C91.9609 38.9225 94.1488 32.3469 93.6847 25.4391C92.7565 11.4244 80.8222 0.398529 66.4347 0.398529H10.0783C7.62512 0.398529 5.30456 1.39484 3.58072 3.1882C1.85688 4.98155 0.994954 7.30628 1.12756 9.76384C1.32646 14.5461 6.6306 18.3985 6.6306 18.3985Z" fill="url(#paint12_linear_1_452)"/>
<path d="M41.7708 40.5166L28.5105 19.7269H10.4101H7.42655L21.7477 41.9114C22.6759 43.3727 22.7422 45.2989 21.814 46.7601L7.29395 70.4059H28.1127L41.8371 47.69C43.0969 45.4981 43.0969 42.7749 41.7708 40.5166Z" fill="url(#paint13_linear_1_452)"/>
<defs>
<linearGradient id="paint0_linear_1_452" x1="114.054" y1="30.77" x2="138.425" y2="30.77" gradientUnits="userSpaceOnUse">
<stop stop-color="#354A9A"/>
<stop offset="1" stop-color="#38509E"/>
</linearGradient>
<linearGradient id="paint1_linear_1_452" x1="142.419" y1="34.5342" x2="158.7" y2="34.5342" gradientUnits="userSpaceOnUse">
<stop stop-color="#354A9A"/>
<stop offset="1" stop-color="#38509E"/>
</linearGradient>
<linearGradient id="paint2_linear_1_452" x1="161.341" y1="30.4649" x2="178.638" y2="30.4649" gradientUnits="userSpaceOnUse">
<stop stop-color="#354A9A"/>
<stop offset="1" stop-color="#38509E"/>
</linearGradient>
<linearGradient id="paint3_linear_1_452" x1="182.801" y1="30.6513" x2="188.318" y2="30.6513" gradientUnits="userSpaceOnUse">
<stop stop-color="#354A9A"/>
<stop offset="1" stop-color="#38509E"/>
</linearGradient>
<linearGradient id="paint4_linear_1_452" x1="191.5" y1="34.5342" x2="208.628" y2="34.5342" gradientUnits="userSpaceOnUse">
<stop stop-color="#354A9A"/>
<stop offset="1" stop-color="#38509E"/>
</linearGradient>
<linearGradient id="paint5_linear_1_452" x1="114.054" y1="59.5594" x2="131.824" y2="59.5594" gradientUnits="userSpaceOnUse">
<stop stop-color="#354A9A"/>
<stop offset="1" stop-color="#38509E"/>
</linearGradient>
<linearGradient id="paint6_linear_1_452" x1="134.532" y1="63.3235" x2="151.66" y2="63.3235" gradientUnits="userSpaceOnUse">
<stop stop-color="#354A9A"/>
<stop offset="1" stop-color="#38509E"/>
</linearGradient>
<linearGradient id="paint7_linear_1_452" x1="156.195" y1="59.1185" x2="160.629" y2="59.1185" gradientUnits="userSpaceOnUse">
<stop stop-color="#354A9A"/>
<stop offset="1" stop-color="#38509E"/>
</linearGradient>
<linearGradient id="paint8_linear_1_452" x1="164.387" y1="63.3235" x2="181.515" y2="63.3235" gradientUnits="userSpaceOnUse">
<stop stop-color="#354A9A"/>
<stop offset="1" stop-color="#38509E"/>
</linearGradient>
<linearGradient id="paint9_linear_1_452" x1="185.847" y1="63.1879" x2="201.654" y2="63.1879" gradientUnits="userSpaceOnUse">
<stop stop-color="#354A9A"/>
<stop offset="1" stop-color="#38509E"/>
</linearGradient>
<linearGradient id="paint10_linear_1_452" x1="204.532" y1="63.3235" x2="217.665" y2="63.3235" gradientUnits="userSpaceOnUse">
<stop stop-color="#354A9A"/>
<stop offset="1" stop-color="#38509E"/>
</linearGradient>
<linearGradient id="paint11_linear_1_452" x1="47.754" y1="66.8182" x2="93.3286" y2="95.9691" gradientUnits="userSpaceOnUse">
<stop stop-color="#4D87C6"/>
<stop offset="1" stop-color="#354A9A"/>
</linearGradient>
<linearGradient id="paint12_linear_1_452" x1="45.915" y1="23.3168" x2="85.3466" y2="-31.081" gradientUnits="userSpaceOnUse">
<stop stop-color="#4D87C6"/>
<stop offset="1" stop-color="#354A9A"/>
</linearGradient>
<linearGradient id="paint13_linear_1_452" x1="11.9129" y1="45.7585" x2="121.979" y2="32.9625" gradientUnits="userSpaceOnUse">
<stop stop-color="#4D87C6"/>
<stop offset="1" stop-color="#354A9A"/>
</linearGradient>
</defs>
</svg>
